M48
; DRILL file {KiCad 8.0.7} date 2025-01-06T08:36:47-0600
; FORMAT={-:-/ absolute / inch / decimal}
; #@! TF.CreationDate,2025-01-06T08:36:47-06:00
; #@! TF.GenerationSoftware,Kicad,Pcbnew,8.0.7
; #@! TF.FileFunction,NonPlated,1,2,NPTH
FMAT,2
INCH
; #@! TA.AperFunction,NonPlated,NPTH,ComponentDrill
T1C0.0354
; #@! TA.AperFunction,NonPlated,NPTH,ComponentDrill
T2C0.0748
; #@! TA.AperFunction,NonPlated,NPTH,ComponentDrill
T3C0.0866
; #@! TA.AperFunction,NonPlated,NPTH,ComponentDrill
T4C0.1181
; #@! TA.AperFunction,NonPlated,NPTH,ComponentDrill
T5C0.1969
%
G90
G05
T1
X6.2608Y-3.4252
X6.2608Y-3.5433
T2
X1.3583Y-1.7717
X1.3583Y-2.4606
X1.3583Y-3.1496
X1.5404Y-3.8386
X1.7913Y-1.7717
X1.7913Y-2.4606
X1.7913Y-3.1496
X1.9734Y-3.8386
X2.0866Y-1.7717
X2.0866Y-2.4606
X2.0866Y-3.1496
X2.2687Y-3.8386
X2.5197Y-1.7717
X2.5197Y-2.4606
X2.5197Y-3.1496
X2.7018Y-3.8386
X2.815Y-1.7717
X2.815Y-2.4606
X2.815Y-3.1496
X3.248Y-1.7717
X3.248Y-2.4606
X3.248Y-3.1496
X3.5433Y-1.5994
X3.5433Y-2.2884
X3.5433Y-2.9774
X3.5433Y-4.1831
X3.9764Y-1.5994
X3.9764Y-2.2884
X3.9764Y-2.9774
X3.9764Y-4.1831
X4.2717Y-1.9439
X4.2717Y-2.6329
X4.2717Y-3.3219
X4.2717Y-4.1831
X4.7047Y-1.9439
X4.7047Y-2.6329
X4.7047Y-3.3219
X4.7047Y-4.1831
X5.0Y-1.9439
X5.0Y-2.6329
X5.0Y-3.3219
X5.0Y-4.1831
X5.4331Y-1.9439
X5.4331Y-2.6329
X5.4331Y-3.3219
X5.4331Y-4.1831
X5.7283Y-4.1831
X6.1614Y-4.1831
T3
X1.939Y-2.1161
X5.5807Y-3.8386
T4
X1.378Y-1.9193
X1.378Y-2.6083
X1.378Y-3.2972
X1.56Y-3.9862
X1.5748Y-2.0059
X1.5748Y-2.6949
X1.5748Y-3.3839
X1.7569Y-4.0728
X1.7717Y-1.9193
X1.7717Y-2.6083
X1.7717Y-3.2972
X1.9537Y-3.9862
X2.1063Y-1.9193
X2.1063Y-2.6083
X2.1063Y-3.2972
X2.2884Y-3.9862
X2.3031Y-2.0059
X2.3031Y-2.6949
X2.3031Y-3.3839
X2.4852Y-4.0728
X2.5Y-1.9193
X2.5Y-2.6083
X2.5Y-3.2972
X2.6821Y-3.9862
X2.8346Y-1.9193
X2.8346Y-2.6083
X2.8346Y-3.2972
X3.0315Y-2.0059
X3.0315Y-2.6949
X3.0315Y-3.3839
X3.2283Y-1.9193
X3.2283Y-2.6083
X3.2283Y-3.2972
X3.563Y-1.747
X3.563Y-2.436
X3.563Y-3.125
X3.563Y-4.3307
X3.7598Y-1.8337
X3.7598Y-2.5226
X3.7598Y-3.2116
X3.7598Y-4.4173
X3.9567Y-1.747
X3.9567Y-2.436
X3.9567Y-3.125
X3.9567Y-4.3307
X4.2913Y-2.0915
X4.2913Y-2.7805
X4.2913Y-3.4695
X4.2913Y-4.3307
X4.4882Y-2.1781
X4.4882Y-2.8671
X4.4882Y-3.5561
X4.4882Y-4.4173
X4.685Y-2.0915
X4.685Y-2.7805
X4.685Y-3.4695
X4.685Y-4.3307
X5.0197Y-2.0915
X5.0197Y-2.7805
X5.0197Y-3.4695
X5.0197Y-4.3307
X5.2165Y-2.1781
X5.2165Y-2.8671
X5.2165Y-3.5561
X5.2165Y-4.4173
X5.4134Y-2.0915
X5.4134Y-2.7805
X5.4134Y-3.4695
X5.4134Y-4.3307
X5.748Y-4.3307
X5.9449Y-4.4173
X6.1417Y-4.3307
T5
X1.5748Y-1.7717
X1.5748Y-2.4606
X1.5748Y-3.1496
X1.7569Y-3.8386
X2.3031Y-1.7717
X2.3031Y-2.4606
X2.3031Y-3.1496
X2.4852Y-3.8386
X3.0315Y-1.7717
X3.0315Y-2.4606
X3.0315Y-3.1496
X3.7598Y-1.5994
X3.7598Y-2.2884
X3.7598Y-2.9774
X3.7598Y-4.1831
X4.4882Y-1.9439
X4.4882Y-2.6329
X4.4882Y-3.3219
X4.4882Y-4.1831
X5.2165Y-1.9439
X5.2165Y-2.6329
X5.2165Y-3.3219
X5.2165Y-4.1831
X5.9449Y-4.1831
M30
