%TF.GenerationSoftware,KiCad,Pcbnew,8.0.7*%
%TF.CreationDate,2025-01-06T08:36:51-06:00*%
%TF.ProjectId,omega_pcb_mbx_v0.3,6f6d6567-615f-4706-9362-5f6d62785f76,v1.0.0*%
%TF.SameCoordinates,Original*%
%TF.FileFunction,Soldermask,Bot*%
%TF.FilePolarity,Negative*%
%FSLAX46Y46*%
G04 Gerber Fmt 4.6, Leading zero omitted, Abs format (unit mm)*
G04 Created by KiCad (PCBNEW 8.0.7) date 2025-01-06 08:36:51*
%MOMM*%
%LPD*%
G01*
G04 APERTURE LIST*
G04 Aperture macros list*
%AMRoundRect*
0 Rectangle with rounded corners*
0 $1 Rounding radius*
0 $2 $3 $4 $5 $6 $7 $8 $9 X,Y pos of 4 corners*
0 Add a 4 corners polygon primitive as box body*
4,1,4,$2,$3,$4,$5,$6,$7,$8,$9,$2,$3,0*
0 Add four circle primitives for the rounded corners*
1,1,$1+$1,$2,$3*
1,1,$1+$1,$4,$5*
1,1,$1+$1,$6,$7*
1,1,$1+$1,$8,$9*
0 Add four rect primitives between the rounded corners*
20,1,$1+$1,$2,$3,$4,$5,0*
20,1,$1+$1,$4,$5,$6,$7,0*
20,1,$1+$1,$6,$7,$8,$9,0*
20,1,$1+$1,$8,$9,$2,$3,0*%
%AMFreePoly0*
4,1,14,1.335355,1.335355,1.350000,1.300000,1.350000,-1.300000,1.335355,-1.335355,1.300000,-1.350000,-0.117000,-1.350000,-0.152355,-1.335355,-1.335355,-0.152355,-1.350000,-0.117000,-1.350000,1.300000,-1.335355,1.335355,-1.300000,1.350000,1.300000,1.350000,1.335355,1.335355,1.335355,1.335355,$1*%
%AMFreePoly1*
4,1,16,-0.214645,0.660355,-0.210957,0.656235,0.289043,0.031235,0.299694,-0.005522,0.289043,-0.031235,-0.210957,-0.656235,-0.244478,-0.674694,-0.250000,-0.675000,-0.500000,-0.675000,-0.535355,-0.660355,-0.550000,-0.625000,-0.550000,0.625000,-0.535355,0.660355,-0.500000,0.675000,-0.250000,0.675000,-0.214645,0.660355,-0.214645,0.660355,$1*%
%AMFreePoly2*
4,1,16,0.535355,0.660355,0.550000,0.625000,0.550000,-0.625000,0.535355,-0.660355,0.500000,-0.675000,-0.650000,-0.675000,-0.685355,-0.660355,-0.700000,-0.625000,-0.689043,-0.593765,-0.214031,0.000000,-0.689043,0.593765,-0.699694,0.630522,-0.681235,0.664043,-0.650000,0.675000,0.500000,0.675000,0.535355,0.660355,0.535355,0.660355,$1*%
%AMFreePoly3*
4,1,16,0.635355,0.285355,0.650000,0.250000,0.650000,-1.000000,0.635355,-1.035355,0.600000,-1.050000,0.564645,-1.035355,0.000000,-0.470710,-0.564645,-1.035355,-0.600000,-1.050000,-0.635355,-1.035355,-0.650000,-1.000000,-0.650000,0.250000,-0.635355,0.285355,-0.600000,0.300000,0.600000,0.300000,0.635355,0.285355,0.635355,0.285355,$1*%
%AMFreePoly4*
4,1,14,0.035355,0.435355,0.635355,-0.164645,0.650000,-0.200000,0.650000,-0.400000,0.635355,-0.435355,0.600000,-0.450000,-0.600000,-0.450000,-0.635355,-0.435355,-0.650000,-0.400000,-0.650000,-0.200000,-0.635355,-0.164645,-0.035355,0.435355,0.000000,0.450000,0.035355,0.435355,0.035355,0.435355,$1*%
G04 Aperture macros list end*
%ADD10RoundRect,0.050000X0.889000X0.889000X-0.889000X0.889000X-0.889000X-0.889000X0.889000X-0.889000X0*%
%ADD11RoundRect,0.050000X0.450000X0.600000X-0.450000X0.600000X-0.450000X-0.600000X0.450000X-0.600000X0*%
%ADD12C,2.005000*%
%ADD13RoundRect,0.050000X-0.889000X0.889000X-0.889000X-0.889000X0.889000X-0.889000X0.889000X0.889000X0*%
%ADD14RoundRect,0.050000X-0.600000X0.450000X-0.600000X-0.450000X0.600000X-0.450000X0.600000X0.450000X0*%
%ADD15O,1.800000X1.800000*%
%ADD16C,1.800000*%
%ADD17RoundRect,0.050000X-0.600000X0.300000X-0.600000X-0.300000X0.600000X-0.300000X0.600000X0.300000X0*%
%ADD18C,2.300000*%
%ADD19C,2.000000*%
%ADD20C,3.100000*%
%ADD21C,5.100000*%
%ADD22FreePoly0,180.000000*%
%ADD23RoundRect,0.050000X1.300000X1.300000X-1.300000X1.300000X-1.300000X-1.300000X1.300000X-1.300000X0*%
%ADD24RoundRect,0.050000X0.500000X-0.775000X0.500000X0.775000X-0.500000X0.775000X-0.500000X-0.775000X0*%
%ADD25FreePoly1,180.000000*%
%ADD26FreePoly1,0.000000*%
%ADD27FreePoly2,0.000000*%
%ADD28C,0.900000*%
%ADD29FreePoly2,180.000000*%
%ADD30RoundRect,0.050000X-0.400000X0.500000X-0.400000X-0.500000X0.400000X-0.500000X0.400000X0.500000X0*%
%ADD31C,1.000000*%
%ADD32RoundRect,0.050000X-0.750000X0.350000X-0.750000X-0.350000X0.750000X-0.350000X0.750000X0.350000X0*%
%ADD33FreePoly3,90.000000*%
%ADD34O,1.850000X1.300000*%
%ADD35FreePoly4,90.000000*%
G04 APERTURE END LIST*
D10*
%TO.C,D4*%
X62310000Y-89000000D03*
D11*
X60150000Y-89000000D03*
X56850000Y-89000000D03*
D12*
X54690000Y-89000000D03*
%TD*%
D10*
%TO.C,D19*%
X99310000Y-98250000D03*
D11*
X97150000Y-98250000D03*
X93850000Y-98250000D03*
D12*
X91690000Y-98250000D03*
%TD*%
D10*
%TO.C,D18*%
X136310000Y-58375000D03*
D11*
X134150000Y-58375000D03*
X130850000Y-58375000D03*
D12*
X128690000Y-58375000D03*
%TD*%
D10*
%TO.C,D10*%
X99310000Y-84625000D03*
D11*
X97150000Y-84625000D03*
X93850000Y-84625000D03*
D12*
X91690000Y-84625000D03*
%TD*%
D10*
%TO.C,D8*%
X80810000Y-71500000D03*
D11*
X78650000Y-71500000D03*
X75350000Y-71500000D03*
D12*
X73190000Y-71500000D03*
%TD*%
D10*
%TO.C,D21*%
X136310000Y-98250000D03*
D11*
X134150000Y-98250000D03*
X130850000Y-98250000D03*
D12*
X128690000Y-98250000D03*
%TD*%
D10*
%TO.C,D14*%
X117810000Y-75875000D03*
D11*
X115650000Y-75875000D03*
X112350000Y-75875000D03*
D12*
X110190000Y-75875000D03*
%TD*%
D10*
%TO.C,D15*%
X117810000Y-58375000D03*
D11*
X115650000Y-58375000D03*
X112350000Y-58375000D03*
D12*
X110190000Y-58375000D03*
%TD*%
D10*
%TO.C,D1*%
X43810000Y-89000000D03*
D11*
X41650000Y-89000000D03*
X38350000Y-89000000D03*
D12*
X36190000Y-89000000D03*
%TD*%
D10*
%TO.C,D9*%
X80810000Y-54000000D03*
D11*
X78650000Y-54000000D03*
X75350000Y-54000000D03*
D12*
X73190000Y-54000000D03*
%TD*%
D10*
%TO.C,D12*%
X99310000Y-49625000D03*
D11*
X97150000Y-49625000D03*
X93850000Y-49625000D03*
D12*
X91690000Y-49625000D03*
%TD*%
D10*
%TO.C,D20*%
X117810000Y-98250000D03*
D11*
X115650000Y-98250000D03*
X112350000Y-98250000D03*
D12*
X110190000Y-98250000D03*
%TD*%
D10*
%TO.C,D16*%
X136310000Y-93375000D03*
D11*
X134150000Y-93375000D03*
X130850000Y-93375000D03*
D12*
X128690000Y-93375000D03*
%TD*%
D10*
%TO.C,D5*%
X62310000Y-71500000D03*
D11*
X60150000Y-71500000D03*
X56850000Y-71500000D03*
D12*
X54690000Y-71500000D03*
%TD*%
D10*
%TO.C,D7*%
X80810000Y-89000000D03*
D11*
X78650000Y-89000000D03*
X75350000Y-89000000D03*
D12*
X73190000Y-89000000D03*
%TD*%
D10*
%TO.C,D22*%
X154810000Y-98250000D03*
D11*
X152650000Y-98250000D03*
X149350000Y-98250000D03*
D12*
X147190000Y-98250000D03*
%TD*%
D13*
%TO.C,D24*%
X75125000Y-95690000D03*
D14*
X75125000Y-97850000D03*
X75125000Y-101150000D03*
D12*
X75125000Y-103310000D03*
%TD*%
D13*
%TO.C,D23*%
X78125000Y-95690000D03*
D14*
X78125000Y-97850000D03*
X78125000Y-101150000D03*
D12*
X78125000Y-103310000D03*
%TD*%
D10*
%TO.C,D3*%
X43810000Y-54000000D03*
D11*
X41650000Y-54000000D03*
X38350000Y-54000000D03*
D12*
X36190000Y-54000000D03*
%TD*%
D10*
%TO.C,D17*%
X136310000Y-75875000D03*
D11*
X134150000Y-75875000D03*
X130850000Y-75875000D03*
D12*
X128690000Y-75875000D03*
%TD*%
D15*
%TO.C,DISP1*%
X146920000Y-77075000D03*
X149460000Y-77075000D03*
X152000000Y-77075000D03*
X154540000Y-77075000D03*
D16*
X157080000Y-77075000D03*
D17*
X157080000Y-75325000D03*
X154540000Y-75325000D03*
X149460000Y-75325000D03*
X146920000Y-75325000D03*
X157080000Y-74425000D03*
X154540000Y-74425000D03*
X149460000Y-74425000D03*
X146920000Y-74425000D03*
%TD*%
D10*
%TO.C,D6*%
X62310000Y-54000000D03*
D11*
X60150000Y-54000000D03*
X56850000Y-54000000D03*
D12*
X54690000Y-54000000D03*
%TD*%
D10*
%TO.C,D13*%
X117810000Y-93375000D03*
D11*
X115650000Y-93375000D03*
X112350000Y-93375000D03*
D12*
X110190000Y-93375000D03*
%TD*%
D10*
%TO.C,D2*%
X43810000Y-71500000D03*
D11*
X41650000Y-71500000D03*
X38350000Y-71500000D03*
D12*
X36190000Y-71500000D03*
%TD*%
D18*
%TO.C,MH1*%
X49250000Y-53750000D03*
%TD*%
D10*
%TO.C,D11*%
X99310000Y-67125000D03*
D11*
X97150000Y-67125000D03*
X93850000Y-67125000D03*
D12*
X91690000Y-67125000D03*
%TD*%
D18*
%TO.C,MH2*%
X141750000Y-97500000D03*
%TD*%
D19*
%TO.C,S7*%
X82500000Y-80000000D03*
D20*
X82000000Y-83750000D03*
D19*
X82000000Y-74850000D03*
D20*
X77000000Y-85950000D03*
D21*
X77000000Y-80000000D03*
D20*
X72000000Y-83750000D03*
D19*
X72000000Y-74850000D03*
X71500000Y-80000000D03*
D22*
X80275000Y-85950000D03*
D23*
X68725000Y-83750000D03*
%TD*%
D19*
%TO.C,S14*%
X119500000Y-66875000D03*
D20*
X119000000Y-70625000D03*
D19*
X119000000Y-61725000D03*
D20*
X114000000Y-72825000D03*
D21*
X114000000Y-66875000D03*
D20*
X109000000Y-70625000D03*
D19*
X109000000Y-61725000D03*
X108500000Y-66875000D03*
D22*
X117275000Y-72825000D03*
D23*
X105725000Y-70625000D03*
%TD*%
D24*
%TO.C,RST1*%
X160000000Y-94875000D03*
X158300000Y-94875000D03*
X160000000Y-100125000D03*
X158300000Y-100125000D03*
%TD*%
D19*
%TO.C,S4*%
X64000000Y-80000000D03*
D20*
X63500000Y-83750000D03*
D19*
X63500000Y-74850000D03*
D20*
X58500000Y-85950000D03*
D21*
X58500000Y-80000000D03*
D20*
X53500000Y-83750000D03*
D19*
X53500000Y-74850000D03*
X53000000Y-80000000D03*
D22*
X61775000Y-85950000D03*
D23*
X50225000Y-83750000D03*
%TD*%
D19*
%TO.C,S13*%
X119500000Y-84375000D03*
D20*
X119000000Y-88125000D03*
D19*
X119000000Y-79225000D03*
D20*
X114000000Y-90325000D03*
D21*
X114000000Y-84375000D03*
D20*
X109000000Y-88125000D03*
D19*
X109000000Y-79225000D03*
X108500000Y-84375000D03*
D22*
X117275000Y-90325000D03*
D23*
X105725000Y-88125000D03*
%TD*%
D19*
%TO.C,S6*%
X64000000Y-45000000D03*
D20*
X63500000Y-48750000D03*
D19*
X63500000Y-39850000D03*
D20*
X58500000Y-50950000D03*
D21*
X58500000Y-45000000D03*
D20*
X53500000Y-48750000D03*
D19*
X53500000Y-39850000D03*
X53000000Y-45000000D03*
D22*
X61775000Y-50950000D03*
D23*
X50225000Y-48750000D03*
%TD*%
D25*
%TO.C,MCU1*%
X157000000Y-44775000D03*
D16*
X159120000Y-44775000D03*
D25*
X157000000Y-47315000D03*
D16*
X159120000Y-47315000D03*
D25*
X157000000Y-49855000D03*
D16*
X159120000Y-49855000D03*
D25*
X157000000Y-52395000D03*
D16*
X159120000Y-52395000D03*
D25*
X157000000Y-54935000D03*
D16*
X159120000Y-54935000D03*
D25*
X157000000Y-57475000D03*
D16*
X159120000Y-57475000D03*
D25*
X157000000Y-60015000D03*
D16*
X159120000Y-60015000D03*
D25*
X157000000Y-62555000D03*
D16*
X159120000Y-62555000D03*
D25*
X157000000Y-65095000D03*
D16*
X159120000Y-65095000D03*
D25*
X157000000Y-67635000D03*
D16*
X159120000Y-67635000D03*
D25*
X157000000Y-70175000D03*
D16*
X159120000Y-70175000D03*
D25*
X157000000Y-72715000D03*
D16*
X159120000Y-72715000D03*
X143880000Y-72715000D03*
D26*
X146000000Y-72715000D03*
D16*
X143880000Y-70175000D03*
D26*
X146000000Y-70175000D03*
D16*
X143880000Y-67635000D03*
D26*
X146000000Y-67635000D03*
D16*
X143880000Y-65095000D03*
D26*
X146000000Y-65095000D03*
D16*
X143880000Y-62555000D03*
D26*
X146000000Y-62555000D03*
D16*
X143880000Y-60015000D03*
D26*
X146000000Y-60015000D03*
D16*
X143880000Y-57475000D03*
D26*
X146000000Y-57475000D03*
D16*
X143880000Y-54935000D03*
D26*
X146000000Y-54935000D03*
D16*
X143880000Y-52395000D03*
D26*
X146000000Y-52395000D03*
D16*
X143880000Y-49855000D03*
D26*
X146000000Y-49855000D03*
D16*
X143880000Y-47315000D03*
D26*
X146000000Y-47315000D03*
D16*
X143880000Y-44775000D03*
D26*
X146000000Y-44775000D03*
D27*
X146725000Y-44775000D03*
D28*
X154900000Y-44775000D03*
D27*
X146725000Y-47315000D03*
D28*
X154900000Y-47315000D03*
D27*
X146725000Y-49855000D03*
D28*
X154900000Y-49855000D03*
D27*
X146725000Y-52395000D03*
D28*
X154900000Y-52395000D03*
D27*
X146725000Y-54935000D03*
D28*
X154900000Y-54935000D03*
D27*
X146725000Y-57475000D03*
D28*
X154900000Y-57475000D03*
D27*
X146725000Y-60015000D03*
D28*
X154900000Y-60015000D03*
D27*
X146725000Y-62555000D03*
D28*
X154900000Y-62555000D03*
D27*
X146725000Y-65095000D03*
D28*
X154900000Y-65095000D03*
D27*
X146725000Y-67635000D03*
D28*
X154900000Y-67635000D03*
D27*
X146725000Y-70175000D03*
D28*
X154900000Y-70175000D03*
D27*
X146725000Y-72715000D03*
D28*
X154900000Y-72715000D03*
X148100000Y-72715000D03*
D29*
X156275000Y-72715000D03*
D28*
X148100000Y-70175000D03*
D29*
X156275000Y-70175000D03*
D28*
X148100000Y-67635000D03*
D29*
X156275000Y-67635000D03*
D28*
X148100000Y-65095000D03*
D29*
X156275000Y-65095000D03*
D28*
X148100000Y-62555000D03*
D29*
X156275000Y-62555000D03*
D28*
X148100000Y-60015000D03*
D29*
X156275000Y-60015000D03*
D28*
X148100000Y-57475000D03*
D29*
X156275000Y-57475000D03*
D28*
X148100000Y-54935000D03*
D29*
X156275000Y-54935000D03*
D28*
X148100000Y-52395000D03*
D29*
X156275000Y-52395000D03*
D28*
X148100000Y-49855000D03*
D29*
X156275000Y-49855000D03*
D28*
X148100000Y-47315000D03*
D29*
X156275000Y-47315000D03*
D28*
X148100000Y-44775000D03*
D29*
X156275000Y-44775000D03*
%TD*%
D19*
%TO.C,S21*%
X101000000Y-106250000D03*
D20*
X100500000Y-110000000D03*
D19*
X100500000Y-101100000D03*
D20*
X95500000Y-112200000D03*
D21*
X95500000Y-106250000D03*
D20*
X90500000Y-110000000D03*
D19*
X90500000Y-101100000D03*
X90000000Y-106250000D03*
D22*
X98775000Y-112200000D03*
D23*
X87225000Y-110000000D03*
%TD*%
D19*
%TO.C,S8*%
X82500000Y-62500000D03*
D20*
X82000000Y-66250000D03*
D19*
X82000000Y-57350000D03*
D20*
X77000000Y-68450000D03*
D21*
X77000000Y-62500000D03*
D20*
X72000000Y-66250000D03*
D19*
X72000000Y-57350000D03*
X71500000Y-62500000D03*
D22*
X80275000Y-68450000D03*
D23*
X68725000Y-66250000D03*
%TD*%
D19*
%TO.C,S16*%
X138000000Y-84375000D03*
D20*
X137500000Y-88125000D03*
D19*
X137500000Y-79225000D03*
D20*
X132500000Y-90325000D03*
D21*
X132500000Y-84375000D03*
D20*
X127500000Y-88125000D03*
D19*
X127500000Y-79225000D03*
X127000000Y-84375000D03*
D22*
X135775000Y-90325000D03*
D23*
X124225000Y-88125000D03*
%TD*%
D19*
%TO.C,S9*%
X82500000Y-45000000D03*
D20*
X82000000Y-48750000D03*
D19*
X82000000Y-39850000D03*
D20*
X77000000Y-50950000D03*
D21*
X77000000Y-45000000D03*
D20*
X72000000Y-48750000D03*
D19*
X72000000Y-39850000D03*
X71500000Y-45000000D03*
D22*
X80275000Y-50950000D03*
D23*
X68725000Y-48750000D03*
%TD*%
D19*
%TO.C,S18*%
X138000000Y-49375000D03*
D20*
X137500000Y-53125000D03*
D19*
X137500000Y-44225000D03*
D20*
X132500000Y-55325000D03*
D21*
X132500000Y-49375000D03*
D20*
X127500000Y-53125000D03*
D19*
X127500000Y-44225000D03*
X127000000Y-49375000D03*
D22*
X135775000Y-55325000D03*
D23*
X124225000Y-53125000D03*
%TD*%
D19*
%TO.C,S20*%
X68625000Y-97500000D03*
D20*
X68125000Y-101250000D03*
D19*
X68125000Y-92350000D03*
D20*
X63125000Y-103450000D03*
D21*
X63125000Y-97500000D03*
D20*
X58125000Y-101250000D03*
D19*
X58125000Y-92350000D03*
X57625000Y-97500000D03*
D22*
X66400000Y-103450000D03*
D23*
X54850000Y-101250000D03*
%TD*%
D19*
%TO.C,S11*%
X101000000Y-58125000D03*
D20*
X100500000Y-61875000D03*
D19*
X100500000Y-52975000D03*
D20*
X95500000Y-64075000D03*
D21*
X95500000Y-58125000D03*
D20*
X90500000Y-61875000D03*
D19*
X90500000Y-52975000D03*
X90000000Y-58125000D03*
D22*
X98775000Y-64075000D03*
D23*
X87225000Y-61875000D03*
%TD*%
D19*
%TO.C,S3*%
X45500000Y-45000000D03*
D20*
X45000000Y-48750000D03*
D19*
X45000000Y-39850000D03*
D20*
X40000000Y-50950000D03*
D21*
X40000000Y-45000000D03*
D20*
X35000000Y-48750000D03*
D19*
X35000000Y-39850000D03*
X34500000Y-45000000D03*
D22*
X43275000Y-50950000D03*
D23*
X31725000Y-48750000D03*
%TD*%
D19*
%TO.C,S15*%
X119500000Y-49375000D03*
D20*
X119000000Y-53125000D03*
D19*
X119000000Y-44225000D03*
D20*
X114000000Y-55325000D03*
D21*
X114000000Y-49375000D03*
D20*
X109000000Y-53125000D03*
D19*
X109000000Y-44225000D03*
X108500000Y-49375000D03*
D22*
X117275000Y-55325000D03*
D23*
X105725000Y-53125000D03*
%TD*%
D19*
%TO.C,S1*%
X45500000Y-80000000D03*
D20*
X45000000Y-83750000D03*
D19*
X45000000Y-74850000D03*
D20*
X40000000Y-85950000D03*
D21*
X40000000Y-80000000D03*
D20*
X35000000Y-83750000D03*
D19*
X35000000Y-74850000D03*
X34500000Y-80000000D03*
D22*
X43275000Y-85950000D03*
D23*
X31725000Y-83750000D03*
%TD*%
D19*
%TO.C,S2*%
X45500000Y-62500000D03*
D20*
X45000000Y-66250000D03*
D19*
X45000000Y-57350000D03*
D20*
X40000000Y-68450000D03*
D21*
X40000000Y-62500000D03*
D20*
X35000000Y-66250000D03*
D19*
X35000000Y-57350000D03*
X34500000Y-62500000D03*
D22*
X43275000Y-68450000D03*
D23*
X31725000Y-66250000D03*
%TD*%
D19*
%TO.C,S24*%
X156500000Y-106250000D03*
D20*
X156000000Y-110000000D03*
D19*
X156000000Y-101100000D03*
D20*
X151000000Y-112200000D03*
D21*
X151000000Y-106250000D03*
D20*
X146000000Y-110000000D03*
D19*
X146000000Y-101100000D03*
X145500000Y-106250000D03*
D22*
X154275000Y-112200000D03*
D23*
X142725000Y-110000000D03*
%TD*%
D19*
%TO.C,S10*%
X101000000Y-75625000D03*
D20*
X100500000Y-79375000D03*
D19*
X100500000Y-70475000D03*
D20*
X95500000Y-81575000D03*
D21*
X95500000Y-75625000D03*
D20*
X90500000Y-79375000D03*
D19*
X90500000Y-70475000D03*
X90000000Y-75625000D03*
D22*
X98775000Y-81575000D03*
D23*
X87225000Y-79375000D03*
%TD*%
D19*
%TO.C,S19*%
X50125000Y-97500000D03*
D20*
X49625000Y-101250000D03*
D19*
X49625000Y-92350000D03*
D20*
X44625000Y-103450000D03*
D21*
X44625000Y-97500000D03*
D20*
X39625000Y-101250000D03*
D19*
X39625000Y-92350000D03*
X39125000Y-97500000D03*
D22*
X47900000Y-103450000D03*
D23*
X36350000Y-101250000D03*
%TD*%
D19*
%TO.C,S17*%
X138000000Y-66875000D03*
D20*
X137500000Y-70625000D03*
D19*
X137500000Y-61725000D03*
D20*
X132500000Y-72825000D03*
D21*
X132500000Y-66875000D03*
D20*
X127500000Y-70625000D03*
D19*
X127500000Y-61725000D03*
X127000000Y-66875000D03*
D22*
X135775000Y-72825000D03*
D23*
X124225000Y-70625000D03*
%TD*%
D30*
%TO.C,PWR1*%
X157915000Y-84850000D03*
X157915000Y-92150000D03*
D31*
X159025000Y-87000000D03*
X159025000Y-90000000D03*
D30*
X160125000Y-84850000D03*
X160125000Y-92150000D03*
D32*
X157265000Y-86250000D03*
X157265000Y-89250000D03*
X157265000Y-90750000D03*
%TD*%
D19*
%TO.C,S23*%
X138000000Y-106250000D03*
D20*
X137500000Y-110000000D03*
D19*
X137500000Y-101100000D03*
D20*
X132500000Y-112200000D03*
D21*
X132500000Y-106250000D03*
D20*
X127500000Y-110000000D03*
D19*
X127500000Y-101100000D03*
X127000000Y-106250000D03*
D22*
X135775000Y-112200000D03*
D23*
X124225000Y-110000000D03*
%TD*%
D19*
%TO.C,S22*%
X119500000Y-106250000D03*
D20*
X119000000Y-110000000D03*
D19*
X119000000Y-101100000D03*
D20*
X114000000Y-112200000D03*
D21*
X114000000Y-106250000D03*
D20*
X109000000Y-110000000D03*
D19*
X109000000Y-101100000D03*
X108500000Y-106250000D03*
D22*
X117275000Y-112200000D03*
D23*
X105725000Y-110000000D03*
%TD*%
D33*
%TO.C,JST1*%
X151184000Y-89500000D03*
X151184000Y-87500000D03*
D34*
X154000000Y-87500000D03*
X154000000Y-89500000D03*
D35*
X152200000Y-87500000D03*
X152200000Y-89500000D03*
%TD*%
D19*
%TO.C,S12*%
X101000000Y-40625000D03*
D20*
X100500000Y-44375000D03*
D19*
X100500000Y-35475000D03*
D20*
X95500000Y-46575000D03*
D21*
X95500000Y-40625000D03*
D20*
X90500000Y-44375000D03*
D19*
X90500000Y-35475000D03*
X90000000Y-40625000D03*
D22*
X98775000Y-46575000D03*
D23*
X87225000Y-44375000D03*
%TD*%
D19*
%TO.C,S5*%
X64000000Y-62500000D03*
D20*
X63500000Y-66250000D03*
D19*
X63500000Y-57350000D03*
D20*
X58500000Y-68450000D03*
D21*
X58500000Y-62500000D03*
D20*
X53500000Y-66250000D03*
D19*
X53500000Y-57350000D03*
X53000000Y-62500000D03*
D22*
X61775000Y-68450000D03*
D23*
X50225000Y-66250000D03*
%TD*%
M02*
