M48
; DRILL file {KiCad 8.0.7} date 2025-01-06T08:36:47-0600
; FORMAT={-:-/ absolute / inch / decimal}
; #@! TF.CreationDate,2025-01-06T08:36:47-06:00
; #@! TF.GenerationSoftware,Kicad,Pcbnew,8.0.7
; #@! TF.FileFunction,Plated,1,2,PTH
FMAT,2
INCH
; #@! TA.AperFunction,Plated,PTH,ViaDrill
T1C0.0118
; #@! TA.AperFunction,Plated,PTH,ComponentDrill
T2C0.0157
; #@! TA.AperFunction,Plated,PTH,ComponentDrill
T3C0.0295
; #@! TA.AperFunction,Plated,PTH,ComponentDrill
T4C0.0390
; #@! TA.AperFunction,Plated,PTH,ComponentDrill
T5C0.0394
; #@! TA.AperFunction,Plated,PTH,ComponentDrill
T6C0.0630
%
G90
G05
T1
X1.5748Y-1.8927
X1.5748Y-1.9242
X1.5748Y-2.5817
X1.5748Y-2.6132
X1.5748Y-3.2707
X1.5748Y-3.3022
X1.7569Y-3.9596
X1.7569Y-3.9911
X2.3031Y-1.8927
X2.3031Y-1.9242
X2.3031Y-2.5817
X2.3031Y-2.6132
X2.3031Y-3.2707
X2.3031Y-3.3022
X2.4852Y-3.9596
X2.4852Y-3.9911
X3.0315Y-1.8927
X3.0315Y-1.9242
X3.0315Y-2.5817
X3.0315Y-2.6132
X3.0315Y-3.2707
X3.0315Y-3.3022
X3.7598Y-1.7205
X3.7598Y-1.752
X3.7598Y-2.4094
X3.7598Y-2.4409
X3.7598Y-3.0984
X3.7598Y-3.1299
X3.7598Y-4.3041
X3.7598Y-4.3356
X4.4882Y-2.065
X4.4882Y-2.0965
X4.4882Y-2.7539
X4.4882Y-2.7854
X4.4882Y-3.4429
X4.4882Y-3.4744
X4.4882Y-4.3041
X4.4882Y-4.3356
X5.2165Y-2.065
X5.2165Y-2.0965
X5.2165Y-2.7539
X5.2165Y-2.7854
X5.2165Y-3.4429
X5.2165Y-3.4744
X5.2165Y-4.3041
X5.2165Y-4.3356
X5.5217Y-2.874
X5.6102Y-2.5098
X5.8366Y-2.9232
X5.9154Y-3.4843
X5.9449Y-4.3041
X5.9449Y-4.3356
X5.9941Y-3.1004
X6.0276Y-2.9301
X6.122Y-3.5728
X6.1492Y-3.2874
X6.1516Y-2.2146
X6.1516Y-2.313
X6.2323Y-3.8386
X6.2992Y-3.8386
T2
X5.8307Y-1.7628
X5.8307Y-1.8628
X5.8307Y-1.9628
X5.8307Y-2.0628
X5.8307Y-2.1628
X5.8307Y-2.2628
X5.8307Y-2.3628
X5.8307Y-2.4628
X5.8307Y-2.5628
X5.8307Y-2.6628
X5.8307Y-2.7628
X5.8307Y-2.8628
X6.0984Y-1.7628
X6.0984Y-1.8628
X6.0984Y-1.9628
X6.0984Y-2.0628
X6.0984Y-2.1628
X6.0984Y-2.2628
X6.0984Y-2.3628
X6.0984Y-2.4628
X6.0984Y-2.5628
X6.0984Y-2.6628
X6.0984Y-2.7628
X6.0984Y-2.8628
T3
X6.063Y-3.4449
X6.063Y-3.5236
T4
X1.4248Y-2.126
X1.4248Y-2.815
X1.4248Y-3.5039
X1.7248Y-2.126
X1.7248Y-2.815
X1.7248Y-3.5039
X2.1531Y-2.126
X2.1531Y-2.815
X2.1531Y-3.5039
X2.4531Y-2.126
X2.4531Y-2.815
X2.4531Y-3.5039
X2.8815Y-2.126
X2.8815Y-2.815
X2.8815Y-3.5039
X2.9577Y-3.7673
X2.9577Y-4.0673
X3.0758Y-3.7673
X3.0758Y-4.0673
X3.1815Y-2.126
X3.1815Y-2.815
X3.1815Y-3.5039
X3.6098Y-1.9537
X3.6098Y-2.6427
X3.6098Y-3.3317
X3.6098Y-3.8681
X3.9098Y-1.9537
X3.9098Y-2.6427
X3.9098Y-3.3317
X3.9098Y-3.8681
X4.3382Y-2.2982
X4.3382Y-2.9872
X4.3382Y-3.6762
X4.3382Y-3.8681
X4.6382Y-2.2982
X4.6382Y-2.9872
X4.6382Y-3.6762
X4.6382Y-3.8681
X5.0665Y-2.2982
X5.0665Y-2.9872
X5.0665Y-3.6762
X5.0665Y-3.8681
X5.3665Y-2.2982
X5.3665Y-2.9872
X5.3665Y-3.6762
X5.3665Y-3.8681
X5.7949Y-3.8681
X6.0949Y-3.8681
T5
X5.6646Y-1.7628
X5.6646Y-1.8628
X5.6646Y-1.9628
X5.6646Y-2.0628
X5.6646Y-2.1628
X5.6646Y-2.2628
X5.6646Y-2.3628
X5.6646Y-2.4628
X5.6646Y-2.5628
X5.6646Y-2.6628
X5.6646Y-2.7628
X5.6646Y-2.8628
X5.7843Y-3.0344
X5.8843Y-3.0344
X5.9843Y-3.0344
X6.0843Y-3.0344
X6.1843Y-3.0344
X6.2646Y-1.7628
X6.2646Y-1.8628
X6.2646Y-1.9628
X6.2646Y-2.0628
X6.2646Y-2.1628
X6.2646Y-2.2628
X6.2646Y-2.3628
X6.2646Y-2.4628
X6.2646Y-2.5628
X6.2646Y-2.6628
X6.2646Y-2.7628
X6.2646Y-2.8628
T6
X1.378Y-1.5689
X1.378Y-2.2579
X1.378Y-2.9469
X1.56Y-3.6358
X1.7717Y-1.5689
X1.7717Y-2.2579
X1.7717Y-2.9469
X1.9537Y-3.6358
X2.1063Y-1.5689
X2.1063Y-2.2579
X2.1063Y-2.9469
X2.2884Y-3.6358
X2.5Y-1.5689
X2.5Y-2.2579
X2.5Y-2.9469
X2.6821Y-3.6358
X2.8346Y-1.5689
X2.8346Y-2.2579
X2.8346Y-2.9469
X3.2283Y-1.5689
X3.2283Y-2.2579
X3.2283Y-2.9469
X3.563Y-1.3967
X3.563Y-2.0856
X3.563Y-2.7746
X3.563Y-3.9803
X3.9567Y-1.3967
X3.9567Y-2.0856
X3.9567Y-2.7746
X3.9567Y-3.9803
X4.2913Y-1.7411
X4.2913Y-2.4301
X4.2913Y-3.1191
X4.2913Y-3.9803
X4.685Y-1.7411
X4.685Y-2.4301
X4.685Y-3.1191
X4.685Y-3.9803
X5.0197Y-1.7411
X5.0197Y-2.4301
X5.0197Y-3.1191
X5.0197Y-3.9803
X5.4134Y-1.7411
X5.4134Y-2.4301
X5.4134Y-3.1191
X5.4134Y-3.9803
X5.748Y-3.9803
X6.1417Y-3.9803
M30
