M48
; DRILL file {KiCad 8.0.7} date 2025-01-05T11:09:32-0600
; FORMAT={-:-/ absolute / inch / decimal}
; #@! TF.CreationDate,2025-01-05T11:09:32-06:00
; #@! TF.GenerationSoftware,Kicad,Pcbnew,8.0.7
; #@! TF.FileFunction,Plated,1,2,PTH
FMAT,2
INCH
; #@! TA.AperFunction,Plated,PTH,ViaDrill
T1C0.0118
; #@! TA.AperFunction,Plated,PTH,ComponentDrill
T2C0.0157
; #@! TA.AperFunction,Plated,PTH,ComponentDrill
T3C0.0295
; #@! TA.AperFunction,Plated,PTH,ComponentDrill
T4C0.0390
; #@! TA.AperFunction,Plated,PTH,ComponentDrill
T5C0.0394
; #@! TA.AperFunction,Plated,PTH,ComponentDrill
T6C0.0630
%
G90
G05
T1
X1.5748Y-1.9321
X1.5748Y-1.9636
X1.5748Y-2.6014
X1.5748Y-2.6329
X1.5748Y-3.2707
X1.5748Y-3.3022
X1.752Y-3.94
X1.752Y-3.9715
X2.2835Y-1.9321
X2.2835Y-1.9636
X2.2835Y-2.6014
X2.2835Y-2.6329
X2.2835Y-3.2707
X2.2835Y-3.3022
X2.4606Y-3.94
X2.4606Y-3.9715
X2.9921Y-1.9321
X2.9921Y-1.9636
X2.9921Y-2.6014
X2.9921Y-2.6329
X2.9921Y-3.2707
X2.9921Y-3.3022
X3.7008Y-1.7648
X3.7008Y-1.7963
X3.7008Y-2.4341
X3.7008Y-2.4656
X3.7008Y-3.1033
X3.7008Y-3.1348
X3.7008Y-4.2746
X3.7008Y-4.3061
X4.4094Y-2.0994
X4.4094Y-2.1309
X4.4094Y-2.7687
X4.4094Y-2.8002
X4.4094Y-3.438
X4.4094Y-3.4695
X4.4094Y-4.2746
X4.4094Y-4.3061
X5.1181Y-2.0994
X5.1181Y-2.1309
X5.1181Y-2.7687
X5.1181Y-2.8002
X5.1181Y-3.438
X5.1181Y-3.4695
X5.1181Y-4.2746
X5.1181Y-4.3061
X5.4134Y-2.2146
X5.4134Y-2.6969
X5.4134Y-2.9623
X5.4429Y-2.2638
X5.4429Y-2.6476
X5.4618Y-2.9035
X5.4618Y-2.9626
X5.4724Y-2.6969
X5.5512Y-3.0512
X5.6102Y-2.9724
X5.7185Y-3.1693
X5.8268Y-2.9409
X5.8268Y-4.2746
X5.8268Y-4.3061
X5.8406Y-2.998
X5.8661Y-2.9724
X5.9843Y-2.3425
X6.0138Y-3.1398
X6.0138Y-3.5039
X6.0581Y-3.2923
X6.1142Y-3.8189
X6.1811Y-3.8189
T2
X5.7126Y-1.7972
X5.7126Y-1.8972
X5.7126Y-1.9972
X5.7126Y-2.0972
X5.7126Y-2.1972
X5.7126Y-2.2972
X5.7126Y-2.3972
X5.7126Y-2.4972
X5.7126Y-2.5972
X5.7126Y-2.6972
X5.7126Y-2.7972
X5.7126Y-2.8972
X5.9803Y-1.7972
X5.9803Y-1.8972
X5.9803Y-1.9972
X5.9803Y-2.0972
X5.9803Y-2.1972
X5.9803Y-2.2972
X5.9803Y-2.3972
X5.9803Y-2.4972
X5.9803Y-2.5972
X5.9803Y-2.6972
X5.9803Y-2.7972
X5.9803Y-2.8972
T3
X5.9449Y-3.4252
X5.9449Y-3.5039
T4
X1.4248Y-2.1654
X1.4248Y-2.8346
X1.4248Y-3.5039
X1.7248Y-2.1654
X1.7248Y-2.8346
X1.7248Y-3.5039
X2.1335Y-2.1654
X2.1335Y-2.8346
X2.1335Y-3.5039
X2.4335Y-2.1654
X2.4335Y-2.8346
X2.4335Y-3.5039
X2.8421Y-2.1654
X2.8421Y-2.8346
X2.8421Y-3.5039
X2.9331Y-3.7476
X2.9331Y-4.0476
X3.0512Y-3.7476
X3.0512Y-4.0476
X3.1421Y-2.1654
X3.1421Y-2.8346
X3.1421Y-3.5039
X3.5508Y-1.998
X3.5508Y-2.6673
X3.5508Y-3.3366
X3.5508Y-3.8386
X3.8508Y-1.998
X3.8508Y-2.6673
X3.8508Y-3.3366
X3.8508Y-3.8386
X4.2594Y-2.3327
X4.2594Y-3.002
X4.2594Y-3.6713
X4.2594Y-3.8386
X4.5594Y-2.3327
X4.5594Y-3.002
X4.5594Y-3.6713
X4.5594Y-3.8386
X4.9681Y-2.3327
X4.9681Y-3.002
X4.9681Y-3.6713
X4.9681Y-3.8386
X5.2681Y-2.3327
X5.2681Y-3.002
X5.2681Y-3.6713
X5.2681Y-3.8386
X5.6768Y-3.8386
X5.9768Y-3.8386
T5
X5.5465Y-1.7972
X5.5465Y-1.8972
X5.5465Y-1.9972
X5.5465Y-2.0972
X5.5465Y-2.1972
X5.5465Y-2.2972
X5.5465Y-2.3972
X5.5465Y-2.4972
X5.5465Y-2.5972
X5.5465Y-2.6972
X5.5465Y-2.7972
X5.5465Y-2.8972
X5.6661Y-3.0689
X5.7661Y-3.0689
X5.8661Y-3.0689
X5.9661Y-3.0689
X6.0661Y-3.0689
X6.1465Y-1.7972
X6.1465Y-1.8972
X6.1465Y-1.9972
X6.1465Y-2.0972
X6.1465Y-2.1972
X6.1465Y-2.2972
X6.1465Y-2.3972
X6.1465Y-2.4972
X6.1465Y-2.5972
X6.1465Y-2.6972
X6.1465Y-2.7972
X6.1465Y-2.8972
T6
X1.378Y-1.6083
X1.378Y-2.2776
X1.378Y-2.9469
X1.5551Y-3.6161
X1.7717Y-1.6083
X1.7717Y-2.2776
X1.7717Y-2.9469
X1.9488Y-3.6161
X2.0866Y-1.6083
X2.0866Y-2.2776
X2.0866Y-2.9469
X2.2638Y-3.6161
X2.4803Y-1.6083
X2.4803Y-2.2776
X2.4803Y-2.9469
X2.6575Y-3.6161
X2.7953Y-1.6083
X2.7953Y-2.2776
X2.7953Y-2.9469
X3.189Y-1.6083
X3.189Y-2.2776
X3.189Y-2.9469
X3.5039Y-1.4409
X3.5039Y-2.1102
X3.5039Y-2.7795
X3.5039Y-3.9508
X3.8976Y-1.4409
X3.8976Y-2.1102
X3.8976Y-2.7795
X3.8976Y-3.9508
X4.2126Y-1.7756
X4.2126Y-2.4449
X4.2126Y-3.1142
X4.2126Y-3.9508
X4.6063Y-1.7756
X4.6063Y-2.4449
X4.6063Y-3.1142
X4.6063Y-3.9508
X4.9213Y-1.7756
X4.9213Y-2.4449
X4.9213Y-3.1142
X4.9213Y-3.9508
X5.315Y-1.7756
X5.315Y-2.4449
X5.315Y-3.1142
X5.315Y-3.9508
X5.6299Y-3.9508
X6.0236Y-3.9508
M30
