M48
; DRILL file {KiCad 8.0.7} date 2025-01-05T11:09:32-0600
; FORMAT={-:-/ absolute / inch / decimal}
; #@! TF.CreationDate,2025-01-05T11:09:32-06:00
; #@! TF.GenerationSoftware,Kicad,Pcbnew,8.0.7
; #@! TF.FileFunction,NonPlated,1,2,NPTH
FMAT,2
INCH
; #@! TA.AperFunction,NonPlated,NPTH,ComponentDrill
T1C0.0354
; #@! TA.AperFunction,NonPlated,NPTH,ComponentDrill
T2C0.0748
; #@! TA.AperFunction,NonPlated,NPTH,ComponentDrill
T3C0.0866
; #@! TA.AperFunction,NonPlated,NPTH,ComponentDrill
T4C0.1181
; #@! TA.AperFunction,NonPlated,NPTH,ComponentDrill
T5C0.1969
%
G90
G05
T1
X6.1427Y-3.4055
X6.1427Y-3.5236
T2
X1.3583Y-1.811
X1.3583Y-2.4803
X1.3583Y-3.1496
X1.5354Y-3.8189
X1.7913Y-1.811
X1.7913Y-2.4803
X1.7913Y-3.1496
X1.9685Y-3.8189
X2.0669Y-1.811
X2.0669Y-2.4803
X2.0669Y-3.1496
X2.2441Y-3.8189
X2.5Y-1.811
X2.5Y-2.4803
X2.5Y-3.1496
X2.6772Y-3.8189
X2.7756Y-1.811
X2.7756Y-2.4803
X2.7756Y-3.1496
X3.2087Y-1.811
X3.2087Y-2.4803
X3.2087Y-3.1496
X3.4843Y-1.6437
X3.4843Y-2.313
X3.4843Y-2.9823
X3.4843Y-4.1535
X3.9173Y-1.6437
X3.9173Y-2.313
X3.9173Y-2.9823
X3.9173Y-4.1535
X4.1929Y-1.9783
X4.1929Y-2.6476
X4.1929Y-3.3169
X4.1929Y-4.1535
X4.626Y-1.9783
X4.626Y-2.6476
X4.626Y-3.3169
X4.626Y-4.1535
X4.9016Y-1.9783
X4.9016Y-2.6476
X4.9016Y-3.3169
X4.9016Y-4.1535
X5.3346Y-1.9783
X5.3346Y-2.6476
X5.3346Y-3.3169
X5.3346Y-4.1535
X5.6102Y-4.1535
X6.0433Y-4.1535
T3
X1.9291Y-2.1457
X5.4724Y-3.8189
T4
X1.378Y-1.9587
X1.378Y-2.628
X1.378Y-3.2972
X1.5551Y-3.9665
X1.5748Y-2.0453
X1.5748Y-2.7146
X1.5748Y-3.3839
X1.752Y-4.0531
X1.7717Y-1.9587
X1.7717Y-2.628
X1.7717Y-3.2972
X1.9488Y-3.9665
X2.0866Y-1.9587
X2.0866Y-2.628
X2.0866Y-3.2972
X2.2638Y-3.9665
X2.2835Y-2.0453
X2.2835Y-2.7146
X2.2835Y-3.3839
X2.4606Y-4.0531
X2.4803Y-1.9587
X2.4803Y-2.628
X2.4803Y-3.2972
X2.6575Y-3.9665
X2.7953Y-1.9587
X2.7953Y-2.628
X2.7953Y-3.2972
X2.9921Y-2.0453
X2.9921Y-2.7146
X2.9921Y-3.3839
X3.189Y-1.9587
X3.189Y-2.628
X3.189Y-3.2972
X3.5039Y-1.7913
X3.5039Y-2.4606
X3.5039Y-3.1299
X3.5039Y-4.3012
X3.7008Y-1.878
X3.7008Y-2.5472
X3.7008Y-3.2165
X3.7008Y-4.3878
X3.8976Y-1.7913
X3.8976Y-2.4606
X3.8976Y-3.1299
X3.8976Y-4.3012
X4.2126Y-2.126
X4.2126Y-2.7953
X4.2126Y-3.4646
X4.2126Y-4.3012
X4.4094Y-2.2126
X4.4094Y-2.8819
X4.4094Y-3.5512
X4.4094Y-4.3878
X4.6063Y-2.126
X4.6063Y-2.7953
X4.6063Y-3.4646
X4.6063Y-4.3012
X4.9213Y-2.126
X4.9213Y-2.7953
X4.9213Y-3.4646
X4.9213Y-4.3012
X5.1181Y-2.2126
X5.1181Y-2.8819
X5.1181Y-3.5512
X5.1181Y-4.3878
X5.315Y-2.126
X5.315Y-2.7953
X5.315Y-3.4646
X5.315Y-4.3012
X5.6299Y-4.3012
X5.8268Y-4.3878
X6.0236Y-4.3012
T5
X1.5748Y-1.811
X1.5748Y-2.4803
X1.5748Y-3.1496
X1.752Y-3.8189
X2.2835Y-1.811
X2.2835Y-2.4803
X2.2835Y-3.1496
X2.4606Y-3.8189
X2.9921Y-1.811
X2.9921Y-2.4803
X2.9921Y-3.1496
X3.7008Y-1.6437
X3.7008Y-2.313
X3.7008Y-2.9823
X3.7008Y-4.1535
X4.4094Y-1.9783
X4.4094Y-2.6476
X4.4094Y-3.3169
X4.4094Y-4.1535
X5.1181Y-1.9783
X5.1181Y-2.6476
X5.1181Y-3.3169
X5.1181Y-4.1535
X5.8268Y-4.1535
M30
