%TF.GenerationSoftware,KiCad,Pcbnew,8.0.7*%
%TF.CreationDate,2025-01-05T11:09:37-06:00*%
%TF.ProjectId,omega_pcb_mbx_b0.2,6f6d6567-615f-4706-9362-5f6d62785f62,v1.0.0*%
%TF.SameCoordinates,Original*%
%TF.FileFunction,Copper,L2,Bot*%
%TF.FilePolarity,Positive*%
%FSLAX46Y46*%
G04 Gerber Fmt 4.6, Leading zero omitted, Abs format (unit mm)*
G04 Created by KiCad (PCBNEW 8.0.7) date 2025-01-05 11:09:37*
%MOMM*%
%LPD*%
G01*
G04 APERTURE LIST*
G04 Aperture macros list*
%AMOutline5P*
0 Free polygon, 5 corners , with rotation*
0 The origin of the aperture is its center*
0 number of corners: always 5*
0 $1 to $10 corner X, Y*
0 $11 Rotation angle, in degrees counterclockwise*
0 create outline with 5 corners*
4,1,5,$1,$2,$3,$4,$5,$6,$7,$8,$9,$10,$1,$2,$11*%
%AMOutline6P*
0 Free polygon, 6 corners , with rotation*
0 The origin of the aperture is its center*
0 number of corners: always 6*
0 $1 to $12 corner X, Y*
0 $13 Rotation angle, in degrees counterclockwise*
0 create outline with 6 corners*
4,1,6,$1,$2,$3,$4,$5,$6,$7,$8,$9,$10,$11,$12,$1,$2,$13*%
%AMOutline7P*
0 Free polygon, 7 corners , with rotation*
0 The origin of the aperture is its center*
0 number of corners: always 7*
0 $1 to $14 corner X, Y*
0 $15 Rotation angle, in degrees counterclockwise*
0 create outline with 7 corners*
4,1,7,$1,$2,$3,$4,$5,$6,$7,$8,$9,$10,$11,$12,$13,$14,$1,$2,$15*%
%AMOutline8P*
0 Free polygon, 8 corners , with rotation*
0 The origin of the aperture is its center*
0 number of corners: always 8*
0 $1 to $16 corner X, Y*
0 $17 Rotation angle, in degrees counterclockwise*
0 create outline with 8 corners*
4,1,8,$1,$2,$3,$4,$5,$6,$7,$8,$9,$10,$11,$12,$13,$14,$15,$16,$1,$2,$17*%
%AMFreePoly0*
4,1,6,0.600000,-1.000000,0.000000,-0.400000,-0.600000,-1.000000,-0.600000,0.250000,0.600000,0.250000,0.600000,-1.000000,0.600000,-1.000000,$1*%
%AMFreePoly1*
4,1,6,0.600000,-0.200000,0.600000,-0.400000,-0.600000,-0.400000,-0.600000,-0.200000,0.000000,0.400000,0.600000,-0.200000,0.600000,-0.200000,$1*%
%AMFreePoly2*
4,1,6,0.250000,0.000000,-0.250000,-0.625000,-0.500000,-0.625000,-0.500000,0.625000,-0.250000,0.625000,0.250000,0.000000,0.250000,0.000000,$1*%
%AMFreePoly3*
4,1,6,0.500000,-0.625000,-0.650000,-0.625000,-0.150000,0.000000,-0.650000,0.625000,0.500000,0.625000,0.500000,-0.625000,0.500000,-0.625000,$1*%
G04 Aperture macros list end*
%TA.AperFunction,ComponentPad*%
%ADD10R,1.778000X1.778000*%
%TD*%
%TA.AperFunction,SMDPad,CuDef*%
%ADD11R,0.900000X1.200000*%
%TD*%
%TA.AperFunction,ComponentPad*%
%ADD12C,1.905000*%
%TD*%
%TA.AperFunction,ComponentPad*%
%ADD13O,1.700000X1.700000*%
%TD*%
%TA.AperFunction,ComponentPad*%
%ADD14C,1.700000*%
%TD*%
%TA.AperFunction,SMDPad,CuDef*%
%ADD15R,1.200000X0.600000*%
%TD*%
%TA.AperFunction,SMDPad,CuDef*%
%ADD16R,1.200000X0.900000*%
%TD*%
%TA.AperFunction,ComponentPad*%
%ADD17C,1.900000*%
%TD*%
%TA.AperFunction,SMDPad,CuDef*%
%ADD18Outline5P,-1.300000X1.300000X1.300000X1.300000X1.300000X-1.300000X-0.117000X-1.300000X-1.300000X-0.117000X180.000000*%
%TD*%
%TA.AperFunction,SMDPad,CuDef*%
%ADD19R,2.600000X2.600000*%
%TD*%
%TA.AperFunction,SMDPad,CuDef*%
%ADD20R,1.000000X1.550000*%
%TD*%
%TA.AperFunction,SMDPad,CuDef*%
%ADD21FreePoly0,90.000000*%
%TD*%
%TA.AperFunction,ComponentPad*%
%ADD22O,1.750000X1.200000*%
%TD*%
%TA.AperFunction,SMDPad,CuDef*%
%ADD23FreePoly1,90.000000*%
%TD*%
%TA.AperFunction,SMDPad,CuDef*%
%ADD24FreePoly2,180.000000*%
%TD*%
%TA.AperFunction,SMDPad,CuDef*%
%ADD25FreePoly2,0.000000*%
%TD*%
%TA.AperFunction,SMDPad,CuDef*%
%ADD26FreePoly3,0.000000*%
%TD*%
%TA.AperFunction,ComponentPad*%
%ADD27C,0.800000*%
%TD*%
%TA.AperFunction,SMDPad,CuDef*%
%ADD28FreePoly3,180.000000*%
%TD*%
%TA.AperFunction,SMDPad,CuDef*%
%ADD29R,0.800000X1.000000*%
%TD*%
%TA.AperFunction,SMDPad,CuDef*%
%ADD30R,1.500000X0.700000*%
%TD*%
%TA.AperFunction,ViaPad*%
%ADD31C,0.600000*%
%TD*%
%TA.AperFunction,Conductor*%
%ADD32C,0.250000*%
%TD*%
%TA.AperFunction,Conductor*%
%ADD33C,0.200000*%
%TD*%
G04 APERTURE END LIST*
D10*
%TO.P,D21,1*%
%TO.N,P10*%
X133810000Y-97500000D03*
D11*
X131650000Y-97500000D03*
%TO.P,D21,2*%
%TO.N,fifth_only*%
X128350000Y-97500000D03*
D12*
X126190000Y-97500000D03*
%TD*%
D10*
%TO.P,D6,1*%
%TO.N,P15*%
X61810000Y-55000000D03*
D11*
X59650000Y-55000000D03*
%TO.P,D6,2*%
%TO.N,pinky_top*%
X56350000Y-55000000D03*
D12*
X54190000Y-55000000D03*
%TD*%
D10*
%TO.P,D18,1*%
%TO.N,P15*%
X133810000Y-59250000D03*
D11*
X131650000Y-59250000D03*
%TO.P,D18,2*%
%TO.N,inner_top*%
X128350000Y-59250000D03*
D12*
X126190000Y-59250000D03*
%TD*%
D10*
%TO.P,D10,1*%
%TO.N,P16*%
X97810000Y-84750000D03*
D11*
X95650000Y-84750000D03*
%TO.P,D10,2*%
%TO.N,middle_bottom*%
X92350000Y-84750000D03*
D12*
X90190000Y-84750000D03*
%TD*%
D10*
%TO.P,D16,1*%
%TO.N,P16*%
X133810000Y-93250000D03*
D11*
X131650000Y-93250000D03*
%TO.P,D16,2*%
%TO.N,inner_bottom*%
X128350000Y-93250000D03*
D12*
X126190000Y-93250000D03*
%TD*%
D10*
%TO.P,D7,1*%
%TO.N,P16*%
X79810000Y-89000000D03*
D11*
X77650000Y-89000000D03*
%TO.P,D7,2*%
%TO.N,ring_bottom*%
X74350000Y-89000000D03*
D12*
X72190000Y-89000000D03*
%TD*%
D10*
%TO.P,D2,1*%
%TO.N,P14*%
X43810000Y-72000000D03*
D11*
X41650000Y-72000000D03*
%TO.P,D2,2*%
%TO.N,outer_home*%
X38350000Y-72000000D03*
D12*
X36190000Y-72000000D03*
%TD*%
D10*
%TO.P,D3,1*%
%TO.N,P15*%
X43810000Y-55000000D03*
D11*
X41650000Y-55000000D03*
%TO.P,D3,2*%
%TO.N,outer_top*%
X38350000Y-55000000D03*
D12*
X36190000Y-55000000D03*
%TD*%
D10*
%TO.P,D17,1*%
%TO.N,P14*%
X133810000Y-76250000D03*
D11*
X131650000Y-76250000D03*
%TO.P,D17,2*%
%TO.N,inner_home*%
X128350000Y-76250000D03*
D12*
X126190000Y-76250000D03*
%TD*%
D13*
%TO.P,DISP1,1*%
%TO.N,DISP1_1*%
X143920000Y-77950000D03*
%TO.P,DISP1,2*%
%TO.N,DISP1_2*%
X146460000Y-77950000D03*
%TO.P,DISP1,3*%
%TO.N,VCC*%
X149000000Y-77950000D03*
%TO.P,DISP1,4*%
%TO.N,DISP1_4*%
X151540000Y-77950000D03*
D14*
%TO.P,DISP1,5*%
%TO.N,DISP1_5*%
X154080000Y-77950000D03*
D15*
%TO.P,DISP1,20*%
X154080000Y-76200000D03*
%TO.P,DISP1,21*%
%TO.N,DISP1_4*%
X151540000Y-76200000D03*
%TO.P,DISP1,22*%
%TO.N,DISP1_2*%
X146460000Y-76200000D03*
%TO.P,DISP1,23*%
%TO.N,DISP1_1*%
X143920000Y-76200000D03*
%TO.P,DISP1,24*%
%TO.N,P1*%
X154080000Y-75300000D03*
%TO.P,DISP1,25*%
%TO.N,GND*%
X151540000Y-75300000D03*
%TO.P,DISP1,26*%
%TO.N,P3*%
X146460000Y-75300000D03*
%TO.P,DISP1,27*%
%TO.N,P2*%
X143920000Y-75300000D03*
%TD*%
D10*
%TO.P,D1,1*%
%TO.N,P16*%
X43810000Y-89000000D03*
D11*
X41650000Y-89000000D03*
%TO.P,D1,2*%
%TO.N,outer_bottom*%
X38350000Y-89000000D03*
D12*
X36190000Y-89000000D03*
%TD*%
D10*
%TO.P,D8,1*%
%TO.N,P14*%
X79810000Y-72000000D03*
D11*
X77650000Y-72000000D03*
%TO.P,D8,2*%
%TO.N,ring_home*%
X74350000Y-72000000D03*
D12*
X72190000Y-72000000D03*
%TD*%
D10*
%TO.P,D22,1*%
%TO.N,P10*%
X151810000Y-97500000D03*
D11*
X149650000Y-97500000D03*
%TO.P,D22,2*%
%TO.N,sixth_only*%
X146350000Y-97500000D03*
D12*
X144190000Y-97500000D03*
%TD*%
D10*
%TO.P,D23,1*%
%TO.N,P10*%
X77500000Y-95190000D03*
D16*
X77500000Y-97350000D03*
%TO.P,D23,2*%
%TO.N,first_only*%
X77500000Y-100650000D03*
D12*
X77500000Y-102810000D03*
%TD*%
D10*
%TO.P,D4,1*%
%TO.N,P16*%
X61810000Y-89000000D03*
D11*
X59650000Y-89000000D03*
%TO.P,D4,2*%
%TO.N,pinky_bottom*%
X56350000Y-89000000D03*
D12*
X54190000Y-89000000D03*
%TD*%
D10*
%TO.P,D13,1*%
%TO.N,P16*%
X115810000Y-93250000D03*
D11*
X113650000Y-93250000D03*
%TO.P,D13,2*%
%TO.N,index_bottom*%
X110350000Y-93250000D03*
D12*
X108190000Y-93250000D03*
%TD*%
D10*
%TO.P,D12,1*%
%TO.N,P15*%
X97810000Y-50750000D03*
D11*
X95650000Y-50750000D03*
%TO.P,D12,2*%
%TO.N,middle_top*%
X92350000Y-50750000D03*
D12*
X90190000Y-50750000D03*
%TD*%
D10*
%TO.P,D19,1*%
%TO.N,P10*%
X97810000Y-97500000D03*
D11*
X95650000Y-97500000D03*
%TO.P,D19,2*%
%TO.N,third_only*%
X92350000Y-97500000D03*
D12*
X90190000Y-97500000D03*
%TD*%
D10*
%TO.P,D11,1*%
%TO.N,P14*%
X97810000Y-67750000D03*
D11*
X95650000Y-67750000D03*
%TO.P,D11,2*%
%TO.N,middle_home*%
X92350000Y-67750000D03*
D12*
X90190000Y-67750000D03*
%TD*%
D10*
%TO.P,D24,1*%
%TO.N,P10*%
X74500000Y-95190000D03*
D16*
X74500000Y-97350000D03*
%TO.P,D24,2*%
%TO.N,second_only*%
X74500000Y-100650000D03*
D12*
X74500000Y-102810000D03*
%TD*%
D10*
%TO.P,D9,1*%
%TO.N,P15*%
X79810000Y-55000000D03*
D11*
X77650000Y-55000000D03*
%TO.P,D9,2*%
%TO.N,ring_top*%
X74350000Y-55000000D03*
D12*
X72190000Y-55000000D03*
%TD*%
D10*
%TO.P,D20,1*%
%TO.N,P10*%
X115810000Y-97500000D03*
D11*
X113650000Y-97500000D03*
%TO.P,D20,2*%
%TO.N,fourth_only*%
X110350000Y-97500000D03*
D12*
X108190000Y-97500000D03*
%TD*%
D10*
%TO.P,D15,1*%
%TO.N,P15*%
X115810000Y-59250000D03*
D11*
X113650000Y-59250000D03*
%TO.P,D15,2*%
%TO.N,index_top*%
X110350000Y-59250000D03*
D12*
X108190000Y-59250000D03*
%TD*%
D10*
%TO.P,D14,1*%
%TO.N,P14*%
X115810000Y-76250000D03*
D11*
X113650000Y-76250000D03*
%TO.P,D14,2*%
%TO.N,index_home*%
X110350000Y-76250000D03*
D12*
X108190000Y-76250000D03*
%TD*%
D10*
%TO.P,D5,1*%
%TO.N,P14*%
X61810000Y-72000000D03*
D11*
X59650000Y-72000000D03*
%TO.P,D5,2*%
%TO.N,pinky_home*%
X56350000Y-72000000D03*
D12*
X54190000Y-72000000D03*
%TD*%
D17*
%TO.P,S21,*%
%TO.N,*%
X99000000Y-100350000D03*
X89000000Y-100350000D03*
D18*
%TO.P,S21,1*%
%TO.N,P7*%
X97275000Y-111450000D03*
D19*
%TO.P,S21,2*%
%TO.N,third_only*%
X85725000Y-109250000D03*
%TD*%
D20*
%TO.P,RST1,1*%
%TO.N,GND*%
X157000000Y-94375000D03*
%TO.P,RST1,2*%
%TO.N,RST*%
X155300000Y-94375000D03*
%TO.P,RST1,3*%
%TO.N,GND*%
X157000000Y-99625000D03*
%TO.P,RST1,4*%
%TO.N,RST*%
X155300000Y-99625000D03*
%TD*%
D17*
%TO.P,S20,*%
%TO.N,*%
X67500000Y-91850000D03*
X57500000Y-91850000D03*
D18*
%TO.P,S20,1*%
%TO.N,P8*%
X65775000Y-102950000D03*
D19*
%TO.P,S20,2*%
%TO.N,second_only*%
X54225000Y-100750000D03*
%TD*%
D17*
%TO.P,S5,*%
%TO.N,*%
X63000000Y-57850000D03*
X53000000Y-57850000D03*
D18*
%TO.P,S5,1*%
%TO.N,P8*%
X61275000Y-68950000D03*
D19*
%TO.P,S5,2*%
%TO.N,pinky_home*%
X49725000Y-66750000D03*
%TD*%
D17*
%TO.P,S13,*%
%TO.N,*%
X117000000Y-79100000D03*
X107000000Y-79100000D03*
D18*
%TO.P,S13,1*%
%TO.N,P5*%
X115275000Y-90200000D03*
D19*
%TO.P,S13,2*%
%TO.N,index_bottom*%
X103725000Y-88000000D03*
%TD*%
D17*
%TO.P,S4,*%
%TO.N,*%
X63000000Y-74850000D03*
X53000000Y-74850000D03*
D18*
%TO.P,S4,1*%
%TO.N,P8*%
X61275000Y-85950000D03*
D19*
%TO.P,S4,2*%
%TO.N,pinky_bottom*%
X49725000Y-83750000D03*
%TD*%
D17*
%TO.P,S6,*%
%TO.N,*%
X63000000Y-40850000D03*
X53000000Y-40850000D03*
D18*
%TO.P,S6,1*%
%TO.N,P8*%
X61275000Y-51950000D03*
D19*
%TO.P,S6,2*%
%TO.N,pinky_top*%
X49725000Y-49750000D03*
%TD*%
D17*
%TO.P,S11,*%
%TO.N,*%
X99000000Y-53600000D03*
X89000000Y-53600000D03*
D18*
%TO.P,S11,1*%
%TO.N,P6*%
X97275000Y-64700000D03*
D19*
%TO.P,S11,2*%
%TO.N,middle_home*%
X85725000Y-62500000D03*
%TD*%
D17*
%TO.P,S12,*%
%TO.N,*%
X99000000Y-36600000D03*
X89000000Y-36600000D03*
D18*
%TO.P,S12,1*%
%TO.N,P6*%
X97275000Y-47700000D03*
D19*
%TO.P,S12,2*%
%TO.N,middle_top*%
X85725000Y-45500000D03*
%TD*%
D17*
%TO.P,S2,*%
%TO.N,*%
X45000000Y-57850000D03*
X35000000Y-57850000D03*
D18*
%TO.P,S2,1*%
%TO.N,P9*%
X43275000Y-68950000D03*
D19*
%TO.P,S2,2*%
%TO.N,outer_home*%
X31725000Y-66750000D03*
%TD*%
D17*
%TO.P,S3,*%
%TO.N,*%
X45000000Y-40850000D03*
X35000000Y-40850000D03*
D18*
%TO.P,S3,1*%
%TO.N,P9*%
X43275000Y-51950000D03*
D19*
%TO.P,S3,2*%
%TO.N,outer_top*%
X31725000Y-49750000D03*
%TD*%
D21*
%TO.P,JST1,1*%
%TO.N,BAT_P*%
X148184000Y-89000000D03*
%TO.P,JST1,2*%
%TO.N,GND*%
X148184000Y-87000000D03*
D22*
%TO.P,JST1,11*%
%TO.N,JST1_1*%
X151000000Y-87000000D03*
%TO.P,JST1,12*%
%TO.N,JST1_2*%
X151000000Y-89000000D03*
D23*
%TO.P,JST1,31*%
%TO.N,JST1_1*%
X149200000Y-87000000D03*
%TO.P,JST1,32*%
%TO.N,JST1_2*%
X149200000Y-89000000D03*
%TD*%
D24*
%TO.P,MCU1,1*%
%TO.N,MCU1_1*%
X154000000Y-45650000D03*
D14*
X156120000Y-45650000D03*
D24*
%TO.P,MCU1,2*%
%TO.N,MCU1_2*%
X154000000Y-48190000D03*
D14*
X156120000Y-48190000D03*
D24*
%TO.P,MCU1,3*%
%TO.N,MCU1_3*%
X154000000Y-50730000D03*
D14*
X156120000Y-50730000D03*
D24*
%TO.P,MCU1,4*%
%TO.N,MCU1_4*%
X154000000Y-53270000D03*
D14*
X156120000Y-53270000D03*
D24*
%TO.P,MCU1,5*%
%TO.N,MCU1_5*%
X154000000Y-55810000D03*
D14*
X156120000Y-55810000D03*
D24*
%TO.P,MCU1,6*%
%TO.N,MCU1_6*%
X154000000Y-58350000D03*
D14*
X156120000Y-58350000D03*
D24*
%TO.P,MCU1,7*%
%TO.N,MCU1_7*%
X154000000Y-60890000D03*
D14*
X156120000Y-60890000D03*
D24*
%TO.P,MCU1,8*%
%TO.N,MCU1_8*%
X154000000Y-63430000D03*
D14*
X156120000Y-63430000D03*
D24*
%TO.P,MCU1,9*%
%TO.N,MCU1_9*%
X154000000Y-65970000D03*
D14*
X156120000Y-65970000D03*
D24*
%TO.P,MCU1,10*%
%TO.N,MCU1_10*%
X154000000Y-68510000D03*
D14*
X156120000Y-68510000D03*
D24*
%TO.P,MCU1,11*%
%TO.N,MCU1_11*%
X154000000Y-71050000D03*
D14*
X156120000Y-71050000D03*
D24*
%TO.P,MCU1,12*%
%TO.N,MCU1_12*%
X154000000Y-73590000D03*
D14*
X156120000Y-73590000D03*
%TO.P,MCU1,13*%
%TO.N,MCU1_13*%
X140880000Y-73590000D03*
D25*
X143000000Y-73590000D03*
D14*
%TO.P,MCU1,14*%
%TO.N,MCU1_14*%
X140880000Y-71050000D03*
D25*
X143000000Y-71050000D03*
D14*
%TO.P,MCU1,15*%
%TO.N,MCU1_15*%
X140880000Y-68510000D03*
D25*
X143000000Y-68510000D03*
D14*
%TO.P,MCU1,16*%
%TO.N,MCU1_16*%
X140880000Y-65970000D03*
D25*
X143000000Y-65970000D03*
D14*
%TO.P,MCU1,17*%
%TO.N,MCU1_17*%
X140880000Y-63430000D03*
D25*
X143000000Y-63430000D03*
D14*
%TO.P,MCU1,18*%
%TO.N,MCU1_18*%
X140880000Y-60890000D03*
D25*
X143000000Y-60890000D03*
D14*
%TO.P,MCU1,19*%
%TO.N,MCU1_19*%
X140880000Y-58350000D03*
D25*
X143000000Y-58350000D03*
D14*
%TO.P,MCU1,20*%
%TO.N,MCU1_20*%
X140880000Y-55810000D03*
D25*
X143000000Y-55810000D03*
D14*
%TO.P,MCU1,21*%
%TO.N,MCU1_21*%
X140880000Y-53270000D03*
D25*
X143000000Y-53270000D03*
D14*
%TO.P,MCU1,22*%
%TO.N,MCU1_22*%
X140880000Y-50730000D03*
D25*
X143000000Y-50730000D03*
D14*
%TO.P,MCU1,23*%
%TO.N,MCU1_23*%
X140880000Y-48190000D03*
D25*
X143000000Y-48190000D03*
D14*
%TO.P,MCU1,24*%
%TO.N,MCU1_24*%
X140880000Y-45650000D03*
D25*
X143000000Y-45650000D03*
D26*
%TO.P,MCU1,101*%
%TO.N,RAW*%
X143725000Y-45650000D03*
D27*
X151900000Y-45650000D03*
D26*
%TO.P,MCU1,102*%
%TO.N,GND*%
X143725000Y-48190000D03*
D27*
X151900000Y-48190000D03*
D26*
%TO.P,MCU1,103*%
%TO.N,RST*%
X143725000Y-50730000D03*
D27*
X151900000Y-50730000D03*
D26*
%TO.P,MCU1,104*%
%TO.N,VCC*%
X143725000Y-53270000D03*
D27*
X151900000Y-53270000D03*
D26*
%TO.P,MCU1,105*%
%TO.N,P21*%
X143725000Y-55810000D03*
D27*
X151900000Y-55810000D03*
D26*
%TO.P,MCU1,106*%
%TO.N,P20*%
X143725000Y-58350000D03*
D27*
X151900000Y-58350000D03*
D26*
%TO.P,MCU1,107*%
%TO.N,P19*%
X143725000Y-60890000D03*
D27*
X151900000Y-60890000D03*
D26*
%TO.P,MCU1,108*%
%TO.N,P18*%
X143725000Y-63430000D03*
D27*
X151900000Y-63430000D03*
D26*
%TO.P,MCU1,109*%
%TO.N,P15*%
X143725000Y-65970000D03*
D27*
X151900000Y-65970000D03*
D26*
%TO.P,MCU1,110*%
%TO.N,P14*%
X143725000Y-68510000D03*
D27*
X151900000Y-68510000D03*
D26*
%TO.P,MCU1,111*%
%TO.N,P16*%
X143725000Y-71050000D03*
D27*
X151900000Y-71050000D03*
D26*
%TO.P,MCU1,112*%
%TO.N,P10*%
X143725000Y-73590000D03*
D27*
X151900000Y-73590000D03*
%TO.P,MCU1,113*%
%TO.N,P9*%
X145100000Y-73590000D03*
D28*
X153275000Y-73590000D03*
D27*
%TO.P,MCU1,114*%
%TO.N,P8*%
X145100000Y-71050000D03*
D28*
X153275000Y-71050000D03*
D27*
%TO.P,MCU1,115*%
%TO.N,P7*%
X145100000Y-68510000D03*
D28*
X153275000Y-68510000D03*
D27*
%TO.P,MCU1,116*%
%TO.N,P6*%
X145100000Y-65970000D03*
D28*
X153275000Y-65970000D03*
D27*
%TO.P,MCU1,117*%
%TO.N,P5*%
X145100000Y-63430000D03*
D28*
X153275000Y-63430000D03*
D27*
%TO.P,MCU1,118*%
%TO.N,P4*%
X145100000Y-60890000D03*
D28*
X153275000Y-60890000D03*
D27*
%TO.P,MCU1,119*%
%TO.N,P3*%
X145100000Y-58350000D03*
D28*
X153275000Y-58350000D03*
D27*
%TO.P,MCU1,120*%
%TO.N,P2*%
X145100000Y-55810000D03*
D28*
X153275000Y-55810000D03*
D27*
%TO.P,MCU1,121*%
%TO.N,GND*%
X145100000Y-53270000D03*
D28*
X153275000Y-53270000D03*
D27*
%TO.P,MCU1,122*%
X145100000Y-50730000D03*
D28*
X153275000Y-50730000D03*
D27*
%TO.P,MCU1,123*%
%TO.N,P0*%
X145100000Y-48190000D03*
D28*
X153275000Y-48190000D03*
D27*
%TO.P,MCU1,124*%
%TO.N,P1*%
X145100000Y-45650000D03*
D28*
X153275000Y-45650000D03*
%TD*%
D17*
%TO.P,S18,*%
%TO.N,*%
X135000000Y-45100000D03*
X125000000Y-45100000D03*
D18*
%TO.P,S18,1*%
%TO.N,P4*%
X133275000Y-56200000D03*
D19*
%TO.P,S18,2*%
%TO.N,inner_top*%
X121725000Y-54000000D03*
%TD*%
D17*
%TO.P,S22,*%
%TO.N,*%
X117000000Y-100350000D03*
X107000000Y-100350000D03*
D18*
%TO.P,S22,1*%
%TO.N,P6*%
X115275000Y-111450000D03*
D19*
%TO.P,S22,2*%
%TO.N,fourth_only*%
X103725000Y-109250000D03*
%TD*%
D17*
%TO.P,S7,*%
%TO.N,*%
X81000000Y-74850000D03*
X71000000Y-74850000D03*
D18*
%TO.P,S7,1*%
%TO.N,P7*%
X79275000Y-85950000D03*
D19*
%TO.P,S7,2*%
%TO.N,ring_bottom*%
X67725000Y-83750000D03*
%TD*%
D17*
%TO.P,S1,*%
%TO.N,*%
X45000000Y-74850000D03*
X35000000Y-74850000D03*
D18*
%TO.P,S1,1*%
%TO.N,P9*%
X43275000Y-85950000D03*
D19*
%TO.P,S1,2*%
%TO.N,outer_bottom*%
X31725000Y-83750000D03*
%TD*%
D17*
%TO.P,S24,*%
%TO.N,*%
X153000000Y-100350000D03*
X143000000Y-100350000D03*
D18*
%TO.P,S24,1*%
%TO.N,P4*%
X151275000Y-111450000D03*
D19*
%TO.P,S24,2*%
%TO.N,sixth_only*%
X139725000Y-109250000D03*
%TD*%
D17*
%TO.P,S15,*%
%TO.N,*%
X117000000Y-45100000D03*
X107000000Y-45100000D03*
D18*
%TO.P,S15,1*%
%TO.N,P5*%
X115275000Y-56200000D03*
D19*
%TO.P,S15,2*%
%TO.N,index_top*%
X103725000Y-54000000D03*
%TD*%
D17*
%TO.P,S19,*%
%TO.N,*%
X49500000Y-91850000D03*
X39500000Y-91850000D03*
D18*
%TO.P,S19,1*%
%TO.N,P9*%
X47775000Y-102950000D03*
D19*
%TO.P,S19,2*%
%TO.N,first_only*%
X36225000Y-100750000D03*
%TD*%
D17*
%TO.P,S23,*%
%TO.N,*%
X135000000Y-100350000D03*
X125000000Y-100350000D03*
D18*
%TO.P,S23,1*%
%TO.N,P5*%
X133275000Y-111450000D03*
D19*
%TO.P,S23,2*%
%TO.N,fifth_only*%
X121725000Y-109250000D03*
%TD*%
D17*
%TO.P,S17,*%
%TO.N,*%
X135000000Y-62100000D03*
X125000000Y-62100000D03*
D18*
%TO.P,S17,1*%
%TO.N,P4*%
X133275000Y-73200000D03*
D19*
%TO.P,S17,2*%
%TO.N,inner_home*%
X121725000Y-71000000D03*
%TD*%
D29*
%TO.P,PWR1,*%
%TO.N,*%
X154915000Y-84350000D03*
X154915000Y-91650000D03*
X157125000Y-84350000D03*
X157125000Y-91650000D03*
D30*
%TO.P,PWR1,1*%
%TO.N,N/C*%
X154265000Y-85750000D03*
%TO.P,PWR1,2*%
%TO.N,RAW*%
X154265000Y-88750000D03*
%TO.P,PWR1,3*%
%TO.N,BAT_P*%
X154265000Y-90250000D03*
%TD*%
D17*
%TO.P,S9,*%
%TO.N,*%
X81000000Y-40850000D03*
X71000000Y-40850000D03*
D18*
%TO.P,S9,1*%
%TO.N,P7*%
X79275000Y-51950000D03*
D19*
%TO.P,S9,2*%
%TO.N,ring_top*%
X67725000Y-49750000D03*
%TD*%
D17*
%TO.P,S16,*%
%TO.N,*%
X135000000Y-79100000D03*
X125000000Y-79100000D03*
D18*
%TO.P,S16,1*%
%TO.N,P4*%
X133275000Y-90200000D03*
D19*
%TO.P,S16,2*%
%TO.N,inner_bottom*%
X121725000Y-88000000D03*
%TD*%
D17*
%TO.P,S10,*%
%TO.N,*%
X99000000Y-70600000D03*
X89000000Y-70600000D03*
D18*
%TO.P,S10,1*%
%TO.N,P6*%
X97275000Y-81700000D03*
D19*
%TO.P,S10,2*%
%TO.N,middle_bottom*%
X85725000Y-79500000D03*
%TD*%
D17*
%TO.P,S14,*%
%TO.N,*%
X117000000Y-62100000D03*
X107000000Y-62100000D03*
D18*
%TO.P,S14,1*%
%TO.N,P5*%
X115275000Y-73200000D03*
D19*
%TO.P,S14,2*%
%TO.N,index_home*%
X103725000Y-71000000D03*
%TD*%
D17*
%TO.P,S8,*%
%TO.N,*%
X81000000Y-57850000D03*
X71000000Y-57850000D03*
D18*
%TO.P,S8,1*%
%TO.N,P7*%
X79275000Y-68950000D03*
D19*
%TO.P,S8,2*%
%TO.N,ring_home*%
X67725000Y-66750000D03*
%TD*%
D31*
%TO.N,P9*%
X40000000Y-49875000D03*
X40000000Y-83875000D03*
X44500000Y-100875000D03*
X40000000Y-66875000D03*
%TO.N,outer_bottom*%
X40000000Y-83075000D03*
%TO.N,GND*%
X157000000Y-97000000D03*
X152750000Y-79750000D03*
X137500000Y-68500000D03*
X137500000Y-75241420D03*
X137500000Y-56250000D03*
%TO.N,outer_home*%
X40000000Y-66075000D03*
%TO.N,outer_top*%
X40000000Y-49075000D03*
%TO.N,P8*%
X58000000Y-49875000D03*
X62500000Y-100875000D03*
X58000000Y-83875000D03*
X58000000Y-66875000D03*
%TO.N,pinky_bottom*%
X58000000Y-83075000D03*
%TO.N,pinky_home*%
X58000000Y-66075000D03*
%TO.N,pinky_top*%
X58000000Y-49075000D03*
%TO.N,P7*%
X94000000Y-109375000D03*
X76000000Y-49875000D03*
X76000000Y-66875000D03*
X76000000Y-83875000D03*
%TO.N,ring_bottom*%
X76000000Y-83075000D03*
%TO.N,ring_home*%
X76000000Y-66075000D03*
%TO.N,ring_top*%
X76000000Y-49075000D03*
%TO.N,P6*%
X94000000Y-79625000D03*
X112000000Y-109375000D03*
X94000000Y-45625000D03*
X94000000Y-62625000D03*
%TO.N,middle_bottom*%
X94000000Y-78825000D03*
%TO.N,middle_home*%
X94000000Y-61825000D03*
%TO.N,middle_top*%
X94000000Y-44825000D03*
%TO.N,P5*%
X112000000Y-54125000D03*
X112000000Y-88125000D03*
X112000000Y-71125000D03*
X130000000Y-109375000D03*
%TO.N,index_bottom*%
X112000000Y-87325000D03*
%TO.N,index_home*%
X112000000Y-70325000D03*
%TO.N,index_top*%
X112000000Y-53325000D03*
%TO.N,P4*%
X148000000Y-109375000D03*
X130000000Y-54125000D03*
X130000000Y-88125000D03*
X130000000Y-71125000D03*
%TO.N,inner_bottom*%
X130000000Y-87325000D03*
%TO.N,inner_home*%
X130000000Y-70325000D03*
%TO.N,inner_top*%
X130000000Y-53325000D03*
%TO.N,first_only*%
X44500000Y-100075000D03*
%TO.N,second_only*%
X62500000Y-100075000D03*
%TO.N,third_only*%
X94000000Y-108575000D03*
%TO.N,fourth_only*%
X112000000Y-108575000D03*
%TO.N,fifth_only*%
X130000000Y-108575000D03*
%TO.N,sixth_only*%
X148000000Y-108575000D03*
%TO.N,RAW*%
X153875000Y-83625000D03*
%TO.N,RST*%
X138730000Y-75250000D03*
X141000000Y-77500000D03*
X138250000Y-57500000D03*
X138250000Y-67250000D03*
X155300000Y-97000000D03*
%TO.N,VCC*%
X149000000Y-75500000D03*
%TO.N,P1*%
X148000000Y-74700000D03*
%TO.N,P2*%
X145250000Y-80500000D03*
X139000000Y-68500000D03*
X142500000Y-75500000D03*
X138730000Y-73750000D03*
%TO.N,P3*%
X148350000Y-76150000D03*
X152000000Y-59500000D03*
%TO.N,BAT_P*%
X152750000Y-89000000D03*
%TD*%
D32*
%TO.N,P9*%
X152925000Y-73590000D02*
X152200000Y-72865000D01*
X153275000Y-73590000D02*
X152925000Y-73590000D01*
D33*
X41200000Y-66875000D02*
X40000000Y-66875000D01*
X43275000Y-85950000D02*
X41200000Y-83875000D01*
X47775000Y-102950000D02*
X45700000Y-100875000D01*
X41200000Y-49875000D02*
X40000000Y-49875000D01*
D32*
X151600000Y-72865000D02*
X151095000Y-73370000D01*
X151095000Y-73370000D02*
X145320000Y-73370000D01*
D33*
X41200000Y-83875000D02*
X40000000Y-83875000D01*
X43275000Y-68950000D02*
X41200000Y-66875000D01*
D32*
X152200000Y-72865000D02*
X151600000Y-72865000D01*
D33*
X43275000Y-51950000D02*
X41200000Y-49875000D01*
X145100000Y-73590000D02*
X145320000Y-73370000D01*
X45700000Y-100875000D02*
X44500000Y-100875000D01*
%TO.N,outer_bottom*%
X31725000Y-83750000D02*
X33579000Y-81896000D01*
X33579000Y-81896000D02*
X37859800Y-81896000D01*
X31725000Y-83750000D02*
X31725000Y-84535000D01*
X39038800Y-83075000D02*
X40000000Y-83075000D01*
X37859800Y-81896000D02*
X39038800Y-83075000D01*
X36190000Y-89000000D02*
X38350000Y-89000000D01*
X31725000Y-84535000D02*
X36190000Y-89000000D01*
%TO.N,GND*%
X143725000Y-48820000D02*
X143725000Y-48190000D01*
D32*
X143725000Y-48190000D02*
X144075000Y-48190000D01*
D33*
X137500000Y-56250000D02*
X137500000Y-51750000D01*
X145320000Y-50510000D02*
X145100000Y-50730000D01*
X137500000Y-75241420D02*
X137500000Y-68500000D01*
X157000000Y-94375000D02*
X157000000Y-97000000D01*
X152662000Y-53007500D02*
X152925000Y-52745000D01*
X152750000Y-75710000D02*
X152340000Y-75300000D01*
D32*
X153275000Y-53270000D02*
X152925000Y-53270000D01*
D33*
X152750000Y-79750000D02*
X148184000Y-84316000D01*
D32*
X151600000Y-50005000D02*
X151095000Y-50510000D01*
D33*
X143045000Y-49500000D02*
X143725000Y-48820000D01*
D32*
X145895000Y-48420000D02*
X151670000Y-48420000D01*
D33*
X152925000Y-52745000D02*
X152925000Y-50730000D01*
D32*
X152200000Y-52545000D02*
X151600000Y-52545000D01*
D33*
X148184000Y-84316000D02*
X148184000Y-87000000D01*
D32*
X152662000Y-53007500D02*
X152200000Y-52545000D01*
D33*
X137500000Y-51750000D02*
X139750000Y-49500000D01*
D32*
X145400000Y-48915000D02*
X145895000Y-48420000D01*
X144075000Y-48190000D02*
X144800000Y-48915000D01*
X148904000Y-50510000D02*
X147309000Y-48915000D01*
X148904000Y-50510000D02*
X145320000Y-50510000D01*
D33*
X151670000Y-48420000D02*
X151900000Y-48190000D01*
D32*
X151095000Y-50510000D02*
X148904000Y-50510000D01*
X152925000Y-53270000D02*
X152662000Y-53007500D01*
X147309000Y-48915000D02*
X145400000Y-48915000D01*
D33*
X157000000Y-97000000D02*
X157000000Y-99625000D01*
D32*
X153275000Y-50730000D02*
X152925000Y-50730000D01*
X144800000Y-48915000D02*
X145400000Y-48915000D01*
X152200000Y-50005000D02*
X151600000Y-50005000D01*
D33*
X139750000Y-49500000D02*
X143045000Y-49500000D01*
X152340000Y-75300000D02*
X151540000Y-75300000D01*
X145320000Y-53050000D02*
X145100000Y-53270000D01*
D32*
X151095000Y-53050000D02*
X145320000Y-53050000D01*
X151600000Y-52545000D02*
X151095000Y-53050000D01*
X152925000Y-50730000D02*
X152200000Y-50005000D01*
D33*
X152750000Y-79750000D02*
X152750000Y-75710000D01*
%TO.N,outer_home*%
X31725000Y-66750000D02*
X31725000Y-67535000D01*
X37859800Y-64896000D02*
X39038800Y-66075000D01*
X39038800Y-66075000D02*
X40000000Y-66075000D01*
X31725000Y-66750000D02*
X33579000Y-64896000D01*
X33579000Y-64896000D02*
X37859800Y-64896000D01*
X36190000Y-72000000D02*
X38350000Y-72000000D01*
X31725000Y-67535000D02*
X36190000Y-72000000D01*
%TO.N,outer_top*%
X33579000Y-47896000D02*
X37859800Y-47896000D01*
X31725000Y-49750000D02*
X33579000Y-47896000D01*
X31725000Y-50535000D02*
X36190000Y-55000000D01*
X39038800Y-49075000D02*
X40000000Y-49075000D01*
X31725000Y-49750000D02*
X31725000Y-50535000D01*
X37859800Y-47896000D02*
X39038800Y-49075000D01*
X36190000Y-55000000D02*
X38350000Y-55000000D01*
D32*
%TO.N,P8*%
X153275000Y-71050000D02*
X152925000Y-71050000D01*
D33*
X65775000Y-102950000D02*
X63700000Y-100875000D01*
D32*
X151600000Y-70325000D02*
X151095000Y-70830000D01*
D33*
X61275000Y-51950000D02*
X59200000Y-49875000D01*
D32*
X151095000Y-70830000D02*
X145320000Y-70830000D01*
X152200000Y-70325000D02*
X151600000Y-70325000D01*
D33*
X63700000Y-100875000D02*
X62500000Y-100875000D01*
X59200000Y-49875000D02*
X58000000Y-49875000D01*
X59200000Y-66875000D02*
X58000000Y-66875000D01*
D32*
X152925000Y-71050000D02*
X152200000Y-70325000D01*
D33*
X145100000Y-71050000D02*
X145320000Y-70830000D01*
X59200000Y-83875000D02*
X58000000Y-83875000D01*
X61275000Y-85950000D02*
X59200000Y-83875000D01*
X61275000Y-68950000D02*
X59200000Y-66875000D01*
%TO.N,pinky_bottom*%
X49725000Y-84535000D02*
X54190000Y-89000000D01*
X49725000Y-83750000D02*
X51579000Y-81896000D01*
X49725000Y-83750000D02*
X49725000Y-84535000D01*
X57038800Y-83075000D02*
X58000000Y-83075000D01*
X55859800Y-81896000D02*
X57038800Y-83075000D01*
X54190000Y-89000000D02*
X56350000Y-89000000D01*
X51579000Y-81896000D02*
X55859800Y-81896000D01*
%TO.N,pinky_home*%
X49725000Y-67535000D02*
X54190000Y-72000000D01*
X54190000Y-72000000D02*
X56350000Y-72000000D01*
X57038800Y-66075000D02*
X58000000Y-66075000D01*
X49725000Y-66750000D02*
X51579000Y-64896000D01*
X55859800Y-64896000D02*
X57038800Y-66075000D01*
X51579000Y-64896000D02*
X55859800Y-64896000D01*
X49725000Y-66750000D02*
X49725000Y-67535000D01*
%TO.N,pinky_top*%
X49725000Y-49750000D02*
X51579000Y-47896000D01*
X54190000Y-55000000D02*
X56350000Y-55000000D01*
X51579000Y-47896000D02*
X55859800Y-47896000D01*
X49725000Y-49750000D02*
X49725000Y-50535000D01*
X49725000Y-50535000D02*
X54190000Y-55000000D01*
X57038800Y-49075000D02*
X58000000Y-49075000D01*
X55859800Y-47896000D02*
X57038800Y-49075000D01*
D32*
%TO.N,P7*%
X151600000Y-67785000D02*
X151095000Y-68290000D01*
X152925000Y-68510000D02*
X152200000Y-67785000D01*
X153275000Y-68510000D02*
X152925000Y-68510000D01*
D33*
X79275000Y-68950000D02*
X77200000Y-66875000D01*
D32*
X151095000Y-68290000D02*
X145320000Y-68290000D01*
D33*
X145100000Y-68510000D02*
X145320000Y-68290000D01*
X77200000Y-66875000D02*
X76000000Y-66875000D01*
X79275000Y-85950000D02*
X77200000Y-83875000D01*
X77200000Y-49875000D02*
X76000000Y-49875000D01*
X97275000Y-111450000D02*
X95200000Y-109375000D01*
D32*
X152200000Y-67785000D02*
X151600000Y-67785000D01*
D33*
X95200000Y-109375000D02*
X94000000Y-109375000D01*
X77200000Y-83875000D02*
X76000000Y-83875000D01*
X79275000Y-51950000D02*
X77200000Y-49875000D01*
%TO.N,ring_bottom*%
X67725000Y-83750000D02*
X69579000Y-81896000D01*
X75038800Y-83075000D02*
X76000000Y-83075000D01*
X69579000Y-81896000D02*
X73859800Y-81896000D01*
X67725000Y-83750000D02*
X67725000Y-84535000D01*
X73859800Y-81896000D02*
X75038800Y-83075000D01*
X72190000Y-89000000D02*
X74350000Y-89000000D01*
X67725000Y-84535000D02*
X72190000Y-89000000D01*
%TO.N,ring_home*%
X67725000Y-67535000D02*
X72190000Y-72000000D01*
X75038800Y-66075000D02*
X76000000Y-66075000D01*
X69579000Y-64896000D02*
X73859800Y-64896000D01*
X67725000Y-66750000D02*
X67725000Y-67535000D01*
X73859800Y-64896000D02*
X75038800Y-66075000D01*
X72190000Y-72000000D02*
X74350000Y-72000000D01*
X67725000Y-66750000D02*
X69579000Y-64896000D01*
%TO.N,ring_top*%
X67725000Y-50535000D02*
X72190000Y-55000000D01*
X67725000Y-49750000D02*
X69579000Y-47896000D01*
X72190000Y-55000000D02*
X74350000Y-55000000D01*
X75038800Y-49075000D02*
X76000000Y-49075000D01*
X69579000Y-47896000D02*
X73859800Y-47896000D01*
X67725000Y-49750000D02*
X67725000Y-50535000D01*
X73859800Y-47896000D02*
X75038800Y-49075000D01*
%TO.N,P6*%
X95200000Y-62625000D02*
X94000000Y-62625000D01*
X95200000Y-45625000D02*
X94000000Y-45625000D01*
D32*
X152200000Y-65245000D02*
X151600000Y-65245000D01*
D33*
X145100000Y-65970000D02*
X145320000Y-65750000D01*
D32*
X153275000Y-65970000D02*
X152925000Y-65970000D01*
D33*
X97275000Y-81700000D02*
X95200000Y-79625000D01*
D32*
X151095000Y-65750000D02*
X145320000Y-65750000D01*
D33*
X115275000Y-111450000D02*
X113200000Y-109375000D01*
D32*
X152925000Y-65970000D02*
X152200000Y-65245000D01*
D33*
X97275000Y-47700000D02*
X95200000Y-45625000D01*
X95200000Y-79625000D02*
X94000000Y-79625000D01*
X97275000Y-64700000D02*
X95200000Y-62625000D01*
D32*
X151600000Y-65245000D02*
X151095000Y-65750000D01*
D33*
X113200000Y-109375000D02*
X112000000Y-109375000D01*
%TO.N,middle_bottom*%
X91859800Y-77646000D02*
X93038800Y-78825000D01*
X93038800Y-78825000D02*
X94000000Y-78825000D01*
X85725000Y-80285000D02*
X90190000Y-84750000D01*
X90190000Y-84750000D02*
X92350000Y-84750000D01*
X85725000Y-79500000D02*
X87579000Y-77646000D01*
X87579000Y-77646000D02*
X91859800Y-77646000D01*
X85725000Y-79500000D02*
X85725000Y-80285000D01*
%TO.N,middle_home*%
X87579000Y-60646000D02*
X91859800Y-60646000D01*
X93038800Y-61825000D02*
X94000000Y-61825000D01*
X85725000Y-62500000D02*
X87579000Y-60646000D01*
X85725000Y-62500000D02*
X85725000Y-63285000D01*
X85725000Y-63285000D02*
X90190000Y-67750000D01*
X90190000Y-67750000D02*
X92350000Y-67750000D01*
X91859800Y-60646000D02*
X93038800Y-61825000D01*
%TO.N,middle_top*%
X85725000Y-45500000D02*
X85725000Y-46285000D01*
X85725000Y-46285000D02*
X90190000Y-50750000D01*
X90190000Y-50750000D02*
X92350000Y-50750000D01*
X87579000Y-43646000D02*
X91859800Y-43646000D01*
X93038800Y-44825000D02*
X94000000Y-44825000D01*
X91859800Y-43646000D02*
X93038800Y-44825000D01*
X85725000Y-45500000D02*
X87579000Y-43646000D01*
%TO.N,P5*%
X115275000Y-73200000D02*
X113200000Y-71125000D01*
D32*
X152200000Y-62705000D02*
X151600000Y-62705000D01*
D33*
X113200000Y-88125000D02*
X112000000Y-88125000D01*
X115275000Y-56200000D02*
X113200000Y-54125000D01*
X133275000Y-111450000D02*
X131200000Y-109375000D01*
X145100000Y-63430000D02*
X145320000Y-63210000D01*
X115275000Y-90200000D02*
X113200000Y-88125000D01*
D32*
X151600000Y-62705000D02*
X151095000Y-63210000D01*
X153275000Y-63430000D02*
X152925000Y-63430000D01*
D33*
X131200000Y-109375000D02*
X130000000Y-109375000D01*
X113200000Y-54125000D02*
X112000000Y-54125000D01*
X113200000Y-71125000D02*
X112000000Y-71125000D01*
D32*
X151095000Y-63210000D02*
X145320000Y-63210000D01*
X152925000Y-63430000D02*
X152200000Y-62705000D01*
D33*
%TO.N,index_bottom*%
X105579000Y-86146000D02*
X109860000Y-86146000D01*
X111039000Y-87325000D02*
X112000000Y-87325000D01*
X103725000Y-88000000D02*
X105579000Y-86146000D01*
X109860000Y-86146000D02*
X111039000Y-87325000D01*
X103725000Y-88785000D02*
X108190000Y-93250000D01*
X103725000Y-88000000D02*
X103725000Y-88785000D01*
X108190000Y-93250000D02*
X110350000Y-93250000D01*
%TO.N,index_home*%
X103725000Y-71000000D02*
X103725000Y-71785000D01*
X108190000Y-76250000D02*
X110350000Y-76250000D01*
X103725000Y-71785000D02*
X108190000Y-76250000D01*
X103725000Y-71000000D02*
X105579000Y-69146000D01*
X111039000Y-70325000D02*
X112000000Y-70325000D01*
X109860000Y-69146000D02*
X111039000Y-70325000D01*
X105579000Y-69146000D02*
X109860000Y-69146000D01*
%TO.N,index_top*%
X108190000Y-59250000D02*
X110350000Y-59250000D01*
X105579000Y-52146000D02*
X109860000Y-52146000D01*
X111039000Y-53325000D02*
X112000000Y-53325000D01*
X103725000Y-54000000D02*
X105579000Y-52146000D01*
X103725000Y-54785000D02*
X108190000Y-59250000D01*
X103725000Y-54000000D02*
X103725000Y-54785000D01*
X109860000Y-52146000D02*
X111039000Y-53325000D01*
%TO.N,P4*%
X131200000Y-54125000D02*
X130000000Y-54125000D01*
X133275000Y-90200000D02*
X131200000Y-88125000D01*
X133275000Y-73200000D02*
X131200000Y-71125000D01*
D32*
X152200000Y-60165000D02*
X151600000Y-60165000D01*
X152925000Y-60890000D02*
X152200000Y-60165000D01*
D33*
X133275000Y-56200000D02*
X131200000Y-54125000D01*
D32*
X153275000Y-60890000D02*
X152925000Y-60890000D01*
X151600000Y-60165000D02*
X151095000Y-60670000D01*
X151095000Y-60670000D02*
X145320000Y-60670000D01*
D33*
X145100000Y-60890000D02*
X145320000Y-60670000D01*
X149200000Y-109375000D02*
X148000000Y-109375000D01*
X131200000Y-71125000D02*
X130000000Y-71125000D01*
X151275000Y-111450000D02*
X149200000Y-109375000D01*
X131200000Y-88125000D02*
X130000000Y-88125000D01*
%TO.N,inner_bottom*%
X121725000Y-88000000D02*
X123579000Y-86146000D01*
X127860000Y-86146000D02*
X129039000Y-87325000D01*
X126190000Y-93250000D02*
X128350000Y-93250000D01*
X129039000Y-87325000D02*
X130000000Y-87325000D01*
X121725000Y-88000000D02*
X121725000Y-88785000D01*
X121725000Y-88785000D02*
X126190000Y-93250000D01*
X123579000Y-86146000D02*
X127860000Y-86146000D01*
%TO.N,inner_home*%
X121725000Y-71000000D02*
X123579000Y-69146000D01*
X123579000Y-69146000D02*
X127860000Y-69146000D01*
X126190000Y-76250000D02*
X128350000Y-76250000D01*
X129039000Y-70325000D02*
X130000000Y-70325000D01*
X121725000Y-71785000D02*
X126190000Y-76250000D01*
X127860000Y-69146000D02*
X129039000Y-70325000D01*
X121725000Y-71000000D02*
X121725000Y-71785000D01*
%TO.N,inner_top*%
X126190000Y-59250000D02*
X128350000Y-59250000D01*
X121725000Y-54785000D02*
X126190000Y-59250000D01*
X129039000Y-53325000D02*
X130000000Y-53325000D01*
X121725000Y-54000000D02*
X121725000Y-54785000D01*
X127860000Y-52146000D02*
X129039000Y-53325000D01*
X123579000Y-52146000D02*
X127860000Y-52146000D01*
X121725000Y-54000000D02*
X123579000Y-52146000D01*
%TO.N,first_only*%
X40675000Y-105200000D02*
X36225000Y-100750000D01*
X77500000Y-102810000D02*
X75110000Y-105200000D01*
X42359800Y-98896000D02*
X43538800Y-100075000D01*
X77500000Y-100650000D02*
X77500000Y-102810000D01*
X36225000Y-100750000D02*
X38079000Y-98896000D01*
X38079000Y-98896000D02*
X42359800Y-98896000D01*
X75110000Y-105200000D02*
X40675000Y-105200000D01*
X43538800Y-100075000D02*
X44500000Y-100075000D01*
%TO.N,second_only*%
X61538800Y-100075000D02*
X62500000Y-100075000D01*
X56079000Y-98896000D02*
X60359800Y-98896000D01*
X54225000Y-100750000D02*
X56079000Y-98896000D01*
X74500000Y-102810000D02*
X72510000Y-104800000D01*
X60359800Y-98896000D02*
X61538800Y-100075000D01*
X72510000Y-104800000D02*
X58275000Y-104800000D01*
X74500000Y-102810000D02*
X74500000Y-100650000D01*
X58275000Y-104800000D02*
X54225000Y-100750000D01*
%TO.N,third_only*%
X87579000Y-107396000D02*
X91859800Y-107396000D01*
X85725000Y-109250000D02*
X87579000Y-107396000D01*
X88843000Y-97500000D02*
X90190000Y-97500000D01*
X85725000Y-100618000D02*
X88843000Y-97500000D01*
X90190000Y-97500000D02*
X92350000Y-97500000D01*
X91859800Y-107396000D02*
X93038800Y-108575000D01*
X93038800Y-108575000D02*
X94000000Y-108575000D01*
X85725000Y-109250000D02*
X85725000Y-100618000D01*
%TO.N,fourth_only*%
X109860000Y-107396000D02*
X111039000Y-108575000D01*
X103725000Y-109250000D02*
X103725000Y-100618000D01*
X103725000Y-109250000D02*
X105579000Y-107396000D01*
X110350000Y-97500000D02*
X108190000Y-97500000D01*
X106843000Y-97500000D02*
X108190000Y-97500000D01*
X111039000Y-108575000D02*
X112000000Y-108575000D01*
X105579000Y-107396000D02*
X109860000Y-107396000D01*
X103725000Y-100618000D02*
X106843000Y-97500000D01*
%TO.N,fifth_only*%
X121725000Y-100618000D02*
X124843000Y-97500000D01*
X127860000Y-107396000D02*
X129039000Y-108575000D01*
X129039000Y-108575000D02*
X130000000Y-108575000D01*
X121725000Y-109250000D02*
X121725000Y-100618000D01*
X121725000Y-109250000D02*
X123579000Y-107396000D01*
X123579000Y-107396000D02*
X127860000Y-107396000D01*
X124843000Y-97500000D02*
X126190000Y-97500000D01*
X128350000Y-97500000D02*
X126190000Y-97500000D01*
%TO.N,sixth_only*%
X142843000Y-97500000D02*
X144190000Y-97500000D01*
X147039000Y-108575000D02*
X148000000Y-108575000D01*
X139725000Y-100618000D02*
X142843000Y-97500000D01*
X139725000Y-109250000D02*
X141579000Y-107396000D01*
X146350000Y-97500000D02*
X144190000Y-97500000D01*
X141579000Y-107396000D02*
X145860000Y-107396000D01*
X139725000Y-109250000D02*
X139725000Y-100618000D01*
X145860000Y-107396000D02*
X147039000Y-108575000D01*
D32*
%TO.N,P16*%
X145895000Y-71280000D02*
X151670000Y-71280000D01*
D33*
X97810000Y-84750000D02*
X97810000Y-85839000D01*
X63062500Y-90252500D02*
X78557500Y-90252500D01*
X60557500Y-90252500D02*
X61810000Y-89000000D01*
X41650000Y-89000000D02*
X43810000Y-89000000D01*
X140404000Y-72440000D02*
X139730000Y-73113700D01*
X143725000Y-71050000D02*
X143725000Y-71131300D01*
X137250000Y-79055800D02*
X137250000Y-89810000D01*
X78557500Y-90252500D02*
X79810000Y-89000000D01*
X143725000Y-71131300D02*
X142416000Y-72440000D01*
X95650000Y-84750000D02*
X97810000Y-84750000D01*
X139730000Y-73113700D02*
X139730000Y-76575800D01*
X137250000Y-89810000D02*
X133810000Y-93250000D01*
X61810000Y-89000000D02*
X63062500Y-90252500D01*
X79810000Y-89000000D02*
X93560000Y-89000000D01*
X97810000Y-85839000D02*
X106721000Y-94750000D01*
X77650000Y-89000000D02*
X79810000Y-89000000D01*
X114310000Y-94750000D02*
X115810000Y-93250000D01*
D32*
X143725000Y-71050000D02*
X144075000Y-71050000D01*
D33*
X131650000Y-93250000D02*
X133810000Y-93250000D01*
X117062000Y-94502500D02*
X132558000Y-94502500D01*
X59650000Y-89000000D02*
X61810000Y-89000000D01*
X45062500Y-90252500D02*
X60557500Y-90252500D01*
D32*
X144800000Y-71775000D02*
X145400000Y-71775000D01*
D33*
X151670000Y-71280000D02*
X151900000Y-71050000D01*
X139730000Y-76575800D02*
X137250000Y-79055800D01*
X132558000Y-94502500D02*
X133810000Y-93250000D01*
X93560000Y-89000000D02*
X97810000Y-84750000D01*
X106721000Y-94750000D02*
X114310000Y-94750000D01*
X115810000Y-93250000D02*
X113650000Y-93250000D01*
X142416000Y-72440000D02*
X140404000Y-72440000D01*
D32*
X145400000Y-71775000D02*
X145895000Y-71280000D01*
D33*
X115810000Y-93250000D02*
X117062000Y-94502500D01*
X43810000Y-89000000D02*
X45062500Y-90252500D01*
D32*
X144075000Y-71050000D02*
X144800000Y-71775000D01*
%TO.N,P14*%
X143725000Y-68510000D02*
X144075000Y-68510000D01*
X145895000Y-68740000D02*
X151670000Y-68740000D01*
D33*
X132558000Y-77502500D02*
X133810000Y-76250000D01*
X131650000Y-76250000D02*
X133810000Y-76250000D01*
X140404000Y-69900000D02*
X142965000Y-69900000D01*
X113650000Y-76250000D02*
X115810000Y-76250000D01*
X98899000Y-67750000D02*
X102125000Y-70976000D01*
X102125000Y-70976000D02*
X102125000Y-72457200D01*
X114310000Y-77750000D02*
X115810000Y-76250000D01*
D32*
X144075000Y-68510000D02*
X144800000Y-69235000D01*
D33*
X61810000Y-72000000D02*
X63062500Y-73252500D01*
X79810000Y-72000000D02*
X82810000Y-69000000D01*
X63062500Y-73252500D02*
X78557500Y-73252500D01*
X78557500Y-73252500D02*
X79810000Y-72000000D01*
X90708800Y-69002500D02*
X90711300Y-69000000D01*
X77650000Y-72000000D02*
X79810000Y-72000000D01*
X59650000Y-72000000D02*
X61810000Y-72000000D01*
X139330000Y-72920000D02*
X139730000Y-72520000D01*
X97810000Y-67750000D02*
X98899000Y-67750000D01*
X139730000Y-72520000D02*
X139730000Y-70573700D01*
X43810000Y-72000000D02*
X45062500Y-73252500D01*
X117062000Y-77502500D02*
X132558000Y-77502500D01*
D32*
X144800000Y-69235000D02*
X145400000Y-69235000D01*
D33*
X41650000Y-72000000D02*
X43810000Y-72000000D01*
X143725000Y-69140000D02*
X143725000Y-68510000D01*
X115810000Y-76250000D02*
X117062000Y-77502500D01*
X82810000Y-69000000D02*
X89668700Y-69000000D01*
X96560000Y-69000000D02*
X97810000Y-67750000D01*
X142965000Y-69900000D02*
X143725000Y-69140000D01*
X95650000Y-67750000D02*
X97810000Y-67750000D01*
X107418000Y-77750000D02*
X114310000Y-77750000D01*
X45062500Y-73252500D02*
X60557500Y-73252500D01*
X90711300Y-69000000D02*
X96560000Y-69000000D01*
D32*
X145400000Y-69235000D02*
X145895000Y-68740000D01*
D33*
X102125000Y-72457200D02*
X107418000Y-77750000D01*
X89671200Y-69002500D02*
X90708800Y-69002500D01*
X138750000Y-76250000D02*
X139330000Y-75670000D01*
X89668700Y-69000000D02*
X89671200Y-69002500D01*
X133810000Y-76250000D02*
X138750000Y-76250000D01*
X139730000Y-70573700D02*
X140404000Y-69900000D01*
X139330000Y-75670000D02*
X139330000Y-72920000D01*
X151670000Y-68740000D02*
X151900000Y-68510000D01*
X60557500Y-73252500D02*
X61810000Y-72000000D01*
%TO.N,P15*%
X143070000Y-64820000D02*
X143725000Y-65475000D01*
X45062500Y-56252500D02*
X60557500Y-56252500D01*
D32*
X143725000Y-65970000D02*
X144075000Y-65970000D01*
D33*
X102125000Y-53976000D02*
X102125000Y-55600000D01*
X132558000Y-60502500D02*
X133810000Y-59250000D01*
X59650000Y-55000000D02*
X61810000Y-55000000D01*
X143725000Y-65475000D02*
X143725000Y-65970000D01*
X77650000Y-55000000D02*
X79810000Y-55000000D01*
X90708800Y-52002500D02*
X90711300Y-52000000D01*
X60557500Y-56252500D02*
X61810000Y-55000000D01*
X115810000Y-59250000D02*
X117062000Y-60502500D01*
X95650000Y-50750000D02*
X97810000Y-50750000D01*
X114558000Y-60502500D02*
X115810000Y-59250000D01*
X113650000Y-59250000D02*
X115810000Y-59250000D01*
X131650000Y-59250000D02*
X133810000Y-59250000D01*
D32*
X145400000Y-66695000D02*
X145895000Y-66200000D01*
D33*
X140469000Y-64820000D02*
X143070000Y-64820000D01*
X61810000Y-55000000D02*
X63062500Y-56252500D01*
D32*
X144075000Y-65970000D02*
X144800000Y-66695000D01*
X144800000Y-66695000D02*
X145400000Y-66695000D01*
D33*
X63062500Y-56252500D02*
X78557500Y-56252500D01*
X90711300Y-52000000D02*
X96560000Y-52000000D01*
D32*
X145895000Y-66200000D02*
X151670000Y-66200000D01*
D33*
X133810000Y-59250000D02*
X134899000Y-59250000D01*
X97810000Y-50750000D02*
X98899000Y-50750000D01*
X107028000Y-60502500D02*
X114558000Y-60502500D01*
X117062000Y-60502500D02*
X132558000Y-60502500D01*
X82807500Y-52002500D02*
X90708800Y-52002500D01*
X79810000Y-55000000D02*
X82807500Y-52002500D01*
X151670000Y-66200000D02*
X151900000Y-65970000D01*
X98899000Y-50750000D02*
X102125000Y-53976000D01*
X43810000Y-55000000D02*
X45062500Y-56252500D01*
X102125000Y-55600000D02*
X107028000Y-60502500D01*
X43810000Y-55000000D02*
X41650000Y-55000000D01*
X78557500Y-56252500D02*
X79810000Y-55000000D01*
X134899000Y-59250000D02*
X140469000Y-64820000D01*
X96560000Y-52000000D02*
X97810000Y-50750000D01*
%TO.N,P10*%
X147810000Y-93500000D02*
X151810000Y-97500000D01*
X151670000Y-73820000D02*
X151900000Y-73590000D01*
X137810000Y-92034300D02*
X137810000Y-93500000D01*
X143725000Y-74220000D02*
X143425000Y-74520000D01*
X77500000Y-95190000D02*
X95500000Y-95190000D01*
D32*
X144800000Y-74315000D02*
X145400000Y-74315000D01*
D33*
X95500000Y-95190000D02*
X97810000Y-97500000D01*
D32*
X144075000Y-73590000D02*
X144800000Y-74315000D01*
D33*
X77500000Y-95190000D02*
X77500000Y-97350000D01*
X143725000Y-73590000D02*
X143725000Y-74220000D01*
X99062500Y-96247500D02*
X114558000Y-96247500D01*
X97810000Y-97500000D02*
X95650000Y-97500000D01*
D32*
X143725000Y-73590000D02*
X144075000Y-73590000D01*
D33*
X114558000Y-96247500D02*
X115810000Y-97500000D01*
X115810000Y-97500000D02*
X113650000Y-97500000D01*
X137750000Y-91974300D02*
X137810000Y-92034300D01*
X137750000Y-91974300D02*
X137750000Y-93560000D01*
X143425000Y-74520000D02*
X142351000Y-74520000D01*
X137810000Y-93500000D02*
X147810000Y-93500000D01*
X97810000Y-97500000D02*
X99062500Y-96247500D01*
X74500000Y-95190000D02*
X77500000Y-95190000D01*
X74500000Y-95190000D02*
X74500000Y-97350000D01*
X137750000Y-79121500D02*
X137750000Y-91974300D01*
X133810000Y-97500000D02*
X131650000Y-97500000D01*
X151810000Y-97500000D02*
X149650000Y-97500000D01*
D32*
X145895000Y-73820000D02*
X151670000Y-73820000D01*
D33*
X133810000Y-97500000D02*
X137750000Y-93560000D01*
X117062000Y-96247500D02*
X132558000Y-96247500D01*
D32*
X145400000Y-74315000D02*
X145895000Y-73820000D01*
D33*
X132558000Y-96247500D02*
X133810000Y-97500000D01*
X142351000Y-74520000D02*
X137750000Y-79121500D01*
X115810000Y-97500000D02*
X117062000Y-96247500D01*
%TO.N,RAW*%
X153875000Y-83625000D02*
X153000000Y-84500000D01*
X153000000Y-84500000D02*
X153000000Y-87485000D01*
D32*
X144800000Y-46375000D02*
X145400000Y-46375000D01*
X145400000Y-46375000D02*
X145895000Y-45880000D01*
X144075000Y-45650000D02*
X144800000Y-46375000D01*
X145895000Y-45880000D02*
X151670000Y-45880000D01*
X143725000Y-45650000D02*
X144075000Y-45650000D01*
D33*
X153000000Y-87485000D02*
X154265000Y-88750000D01*
X151900000Y-45650000D02*
X151670000Y-45880000D01*
%TO.N,RST*%
X151670000Y-50960000D02*
X151900000Y-50730000D01*
X155300000Y-94375000D02*
X155300000Y-97000000D01*
X138065736Y-72934264D02*
X138065736Y-74585736D01*
D32*
X145895000Y-50960000D02*
X151670000Y-50960000D01*
X144800000Y-51455000D02*
X145400000Y-51455000D01*
X143725000Y-50730000D02*
X144075000Y-50730000D01*
D33*
X155300000Y-97000000D02*
X155300000Y-99625000D01*
D32*
X144075000Y-50730000D02*
X144800000Y-51455000D01*
D33*
X138250000Y-72750000D02*
X138065736Y-72934264D01*
X138250000Y-57500000D02*
X138250000Y-54273654D01*
X138250000Y-67250000D02*
X138250000Y-72750000D01*
X141000000Y-77500000D02*
X141000000Y-84000000D01*
X143205000Y-51880000D02*
X143725000Y-51360000D01*
X143725000Y-51360000D02*
X143725000Y-50730000D01*
D32*
X145400000Y-51455000D02*
X145895000Y-50960000D01*
D33*
X141000000Y-84000000D02*
X151375000Y-94375000D01*
X140643654Y-51880000D02*
X143205000Y-51880000D01*
X138065736Y-74585736D02*
X138730000Y-75250000D01*
X138250000Y-54273654D02*
X140643654Y-51880000D01*
X151375000Y-94375000D02*
X155300000Y-94375000D01*
%TO.N,VCC*%
X151670000Y-53500000D02*
X151900000Y-53270000D01*
D32*
X144800000Y-53995000D02*
X145400000Y-53995000D01*
X149000000Y-75500000D02*
X149000000Y-77950000D01*
X145400000Y-53995000D02*
X145895000Y-53500000D01*
X145895000Y-53500000D02*
X151670000Y-53500000D01*
X143725000Y-53270000D02*
X144075000Y-53270000D01*
X144075000Y-53270000D02*
X144800000Y-53995000D01*
%TO.N,P21*%
X143725000Y-55810000D02*
X144075000Y-55810000D01*
X144075000Y-55810000D02*
X144800000Y-56535000D01*
X145895000Y-56040000D02*
X151670000Y-56040000D01*
X145400000Y-56535000D02*
X145895000Y-56040000D01*
D33*
X151670000Y-56040000D02*
X151900000Y-55810000D01*
D32*
X144800000Y-56535000D02*
X145400000Y-56535000D01*
%TO.N,P20*%
X145400000Y-59075000D02*
X145895000Y-58580000D01*
X145895000Y-58580000D02*
X151670000Y-58580000D01*
X144075000Y-58350000D02*
X144800000Y-59075000D01*
D33*
X151670000Y-58580000D02*
X151900000Y-58350000D01*
D32*
X143725000Y-58350000D02*
X144075000Y-58350000D01*
X144800000Y-59075000D02*
X145400000Y-59075000D01*
D33*
%TO.N,P19*%
X151670000Y-61120000D02*
X151900000Y-60890000D01*
D32*
X143725000Y-60890000D02*
X144075000Y-60890000D01*
X145400000Y-61615000D02*
X145895000Y-61120000D01*
X144800000Y-61615000D02*
X145400000Y-61615000D01*
X145895000Y-61120000D02*
X151670000Y-61120000D01*
X144075000Y-60890000D02*
X144800000Y-61615000D01*
%TO.N,P18*%
X143725000Y-63430000D02*
X144075000Y-63430000D01*
X144075000Y-63430000D02*
X144800000Y-64155000D01*
X144800000Y-64155000D02*
X145400000Y-64155000D01*
X145895000Y-63660000D02*
X151670000Y-63660000D01*
X145400000Y-64155000D02*
X145895000Y-63660000D01*
D33*
X151670000Y-63660000D02*
X151900000Y-63430000D01*
%TO.N,P1*%
X153995000Y-47000000D02*
X153275000Y-46280000D01*
X154080000Y-75300000D02*
X156036000Y-75300000D01*
D32*
X152925000Y-45650000D02*
X152200000Y-44925000D01*
X151095000Y-45430000D02*
X145320000Y-45430000D01*
X151600000Y-44925000D02*
X151095000Y-45430000D01*
X152200000Y-44925000D02*
X151600000Y-44925000D01*
D33*
X153480000Y-74700000D02*
X154080000Y-75300000D01*
X153275000Y-46280000D02*
X153275000Y-45650000D01*
X156778000Y-47000000D02*
X153995000Y-47000000D01*
X156036000Y-75300000D02*
X157500000Y-73836300D01*
X157500000Y-47721900D02*
X156778000Y-47000000D01*
X148000000Y-74700000D02*
X153480000Y-74700000D01*
D32*
X153275000Y-45650000D02*
X152925000Y-45650000D01*
D33*
X157500000Y-73836300D02*
X157500000Y-47721900D01*
X145320000Y-45430000D02*
X145100000Y-45650000D01*
D32*
%TO.N,P0*%
X151095000Y-47970000D02*
X145320000Y-47970000D01*
X152925000Y-48190000D02*
X152200000Y-47465000D01*
D33*
X145320000Y-47970000D02*
X145100000Y-48190000D01*
D32*
X153275000Y-48190000D02*
X152925000Y-48190000D01*
X152200000Y-47465000D02*
X151600000Y-47465000D01*
X151600000Y-47465000D02*
X151095000Y-47970000D01*
D33*
%TO.N,P2*%
X142500000Y-75500000D02*
X143720000Y-75500000D01*
D32*
X151600000Y-55085000D02*
X151095000Y-55590000D01*
D33*
X142500000Y-78750000D02*
X144250000Y-80500000D01*
X145320000Y-55590000D02*
X145100000Y-55810000D01*
X143720000Y-75500000D02*
X143920000Y-75300000D01*
D32*
X153275000Y-55810000D02*
X152925000Y-55810000D01*
D33*
X142500000Y-75500000D02*
X142500000Y-78750000D01*
D32*
X151095000Y-55590000D02*
X145320000Y-55590000D01*
D33*
X139000000Y-72500000D02*
X138730000Y-72770000D01*
D32*
X152925000Y-55810000D02*
X152200000Y-55085000D01*
D33*
X139000000Y-68500000D02*
X139000000Y-72500000D01*
X138730000Y-72770000D02*
X138730000Y-73750000D01*
X144250000Y-80500000D02*
X145250000Y-80500000D01*
D32*
X152200000Y-55085000D02*
X151600000Y-55085000D01*
%TO.N,P3*%
X152925000Y-58350000D02*
X152200000Y-57625000D01*
X153275000Y-58350000D02*
X152125000Y-59500000D01*
X151600000Y-57625000D02*
X151095000Y-58130000D01*
X151095000Y-58130000D02*
X145320000Y-58130000D01*
X152125000Y-59500000D02*
X152000000Y-59500000D01*
X152200000Y-57625000D02*
X151600000Y-57625000D01*
X153275000Y-58350000D02*
X152925000Y-58350000D01*
D33*
X147050000Y-75300000D02*
X146460000Y-75300000D01*
X145320000Y-58130000D02*
X145100000Y-58350000D01*
X147900000Y-76150000D02*
X147050000Y-75300000D01*
X148350000Y-76150000D02*
X147900000Y-76150000D01*
D32*
%TO.N,MCU1_24*%
X140880000Y-45650000D02*
X143000000Y-45650000D01*
%TO.N,MCU1_1*%
X156120000Y-45650000D02*
X154000000Y-45650000D01*
%TO.N,MCU1_23*%
X140880000Y-48190000D02*
X143000000Y-48190000D01*
%TO.N,MCU1_2*%
X156120000Y-48190000D02*
X154000000Y-48190000D01*
%TO.N,MCU1_22*%
X140880000Y-50730000D02*
X143000000Y-50730000D01*
%TO.N,MCU1_3*%
X156120000Y-50730000D02*
X154000000Y-50730000D01*
%TO.N,MCU1_21*%
X140880000Y-53270000D02*
X143000000Y-53270000D01*
%TO.N,MCU1_4*%
X156120000Y-53270000D02*
X154000000Y-53270000D01*
%TO.N,MCU1_20*%
X140880000Y-55810000D02*
X143000000Y-55810000D01*
%TO.N,MCU1_5*%
X156120000Y-55810000D02*
X154000000Y-55810000D01*
%TO.N,MCU1_19*%
X140880000Y-58350000D02*
X143000000Y-58350000D01*
%TO.N,MCU1_6*%
X156120000Y-58350000D02*
X154000000Y-58350000D01*
%TO.N,MCU1_18*%
X140880000Y-60890000D02*
X143000000Y-60890000D01*
%TO.N,MCU1_7*%
X156120000Y-60890000D02*
X154000000Y-60890000D01*
%TO.N,MCU1_17*%
X140880000Y-63430000D02*
X143000000Y-63430000D01*
%TO.N,MCU1_8*%
X156120000Y-63430000D02*
X154000000Y-63430000D01*
%TO.N,MCU1_16*%
X140880000Y-65970000D02*
X143000000Y-65970000D01*
%TO.N,MCU1_9*%
X156120000Y-65970000D02*
X154000000Y-65970000D01*
%TO.N,MCU1_15*%
X140880000Y-68510000D02*
X143000000Y-68510000D01*
%TO.N,MCU1_10*%
X156120000Y-68510000D02*
X154000000Y-68510000D01*
%TO.N,MCU1_14*%
X140880000Y-71050000D02*
X143000000Y-71050000D01*
%TO.N,MCU1_11*%
X156120000Y-71050000D02*
X154000000Y-71050000D01*
%TO.N,MCU1_13*%
X140880000Y-73590000D02*
X143000000Y-73590000D01*
%TO.N,MCU1_12*%
X156120000Y-73590000D02*
X154000000Y-73590000D01*
%TO.N,DISP1_1*%
X143920000Y-77950000D02*
X143920000Y-76200000D01*
%TO.N,DISP1_2*%
X146460000Y-77950000D02*
X146460000Y-76200000D01*
%TO.N,DISP1_4*%
X151540000Y-77950000D02*
X151540000Y-76200000D01*
%TO.N,DISP1_5*%
X154080000Y-77950000D02*
X154080000Y-76200000D01*
D33*
%TO.N,BAT_P*%
X152750000Y-89000000D02*
X151561300Y-90188700D01*
X154000000Y-90250000D02*
X154265000Y-90250000D01*
X148184000Y-89901700D02*
X148184000Y-89000000D01*
X148471000Y-90188700D02*
X148184000Y-89901700D01*
X152750000Y-89000000D02*
X154000000Y-90250000D01*
X151561300Y-90188700D02*
X148471000Y-90188700D01*
D32*
%TO.N,JST1_1*%
X149200000Y-87000000D02*
X151000000Y-87000000D01*
%TO.N,JST1_2*%
X149200000Y-89000000D02*
X151000000Y-89000000D01*
%TD*%
M02*
