%TF.GenerationSoftware,KiCad,Pcbnew,8.0.7*%
%TF.CreationDate,2025-01-05T11:09:37-06:00*%
%TF.ProjectId,omega_pcb_mbx_b0.2,6f6d6567-615f-4706-9362-5f6d62785f62,v1.0.0*%
%TF.SameCoordinates,Original*%
%TF.FileFunction,Copper,L1,Top*%
%TF.FilePolarity,Positive*%
%FSLAX46Y46*%
G04 Gerber Fmt 4.6, Leading zero omitted, Abs format (unit mm)*
G04 Created by KiCad (PCBNEW 8.0.7) date 2025-01-05 11:09:37*
%MOMM*%
%LPD*%
G01*
G04 APERTURE LIST*
G04 Aperture macros list*
%AMOutline5P*
0 Free polygon, 5 corners , with rotation*
0 The origin of the aperture is its center*
0 number of corners: always 5*
0 $1 to $10 corner X, Y*
0 $11 Rotation angle, in degrees counterclockwise*
0 create outline with 5 corners*
4,1,5,$1,$2,$3,$4,$5,$6,$7,$8,$9,$10,$1,$2,$11*%
%AMOutline6P*
0 Free polygon, 6 corners , with rotation*
0 The origin of the aperture is its center*
0 number of corners: always 6*
0 $1 to $12 corner X, Y*
0 $13 Rotation angle, in degrees counterclockwise*
0 create outline with 6 corners*
4,1,6,$1,$2,$3,$4,$5,$6,$7,$8,$9,$10,$11,$12,$1,$2,$13*%
%AMOutline7P*
0 Free polygon, 7 corners , with rotation*
0 The origin of the aperture is its center*
0 number of corners: always 7*
0 $1 to $14 corner X, Y*
0 $15 Rotation angle, in degrees counterclockwise*
0 create outline with 7 corners*
4,1,7,$1,$2,$3,$4,$5,$6,$7,$8,$9,$10,$11,$12,$13,$14,$1,$2,$15*%
%AMOutline8P*
0 Free polygon, 8 corners , with rotation*
0 The origin of the aperture is its center*
0 number of corners: always 8*
0 $1 to $16 corner X, Y*
0 $17 Rotation angle, in degrees counterclockwise*
0 create outline with 8 corners*
4,1,8,$1,$2,$3,$4,$5,$6,$7,$8,$9,$10,$11,$12,$13,$14,$15,$16,$1,$2,$17*%
%AMFreePoly0*
4,1,6,0.600000,-1.000000,0.000000,-0.400000,-0.600000,-1.000000,-0.600000,0.250000,0.600000,0.250000,0.600000,-1.000000,0.600000,-1.000000,$1*%
%AMFreePoly1*
4,1,6,0.600000,-0.200000,0.600000,-0.400000,-0.600000,-0.400000,-0.600000,-0.200000,0.000000,0.400000,0.600000,-0.200000,0.600000,-0.200000,$1*%
%AMFreePoly2*
4,1,6,0.250000,0.000000,-0.250000,-0.625000,-0.500000,-0.625000,-0.500000,0.625000,-0.250000,0.625000,0.250000,0.000000,0.250000,0.000000,$1*%
%AMFreePoly3*
4,1,6,0.500000,-0.625000,-0.650000,-0.625000,-0.150000,0.000000,-0.650000,0.625000,0.500000,0.625000,0.500000,-0.625000,0.500000,-0.625000,$1*%
G04 Aperture macros list end*
%TA.AperFunction,ComponentPad*%
%ADD10R,1.778000X1.778000*%
%TD*%
%TA.AperFunction,SMDPad,CuDef*%
%ADD11R,0.900000X1.200000*%
%TD*%
%TA.AperFunction,ComponentPad*%
%ADD12C,1.905000*%
%TD*%
%TA.AperFunction,ComponentPad*%
%ADD13O,1.700000X1.700000*%
%TD*%
%TA.AperFunction,ComponentPad*%
%ADD14C,1.700000*%
%TD*%
%TA.AperFunction,SMDPad,CuDef*%
%ADD15R,1.200000X0.600000*%
%TD*%
%TA.AperFunction,SMDPad,CuDef*%
%ADD16R,1.200000X0.900000*%
%TD*%
%TA.AperFunction,ComponentPad*%
%ADD17C,1.900000*%
%TD*%
%TA.AperFunction,SMDPad,CuDef*%
%ADD18Outline5P,-1.300000X1.300000X1.300000X1.300000X1.300000X-0.117000X0.117000X-1.300000X-1.300000X-1.300000X180.000000*%
%TD*%
%TA.AperFunction,SMDPad,CuDef*%
%ADD19R,2.600000X2.600000*%
%TD*%
%TA.AperFunction,SMDPad,CuDef*%
%ADD20R,1.000000X1.550000*%
%TD*%
%TA.AperFunction,SMDPad,CuDef*%
%ADD21FreePoly0,90.000000*%
%TD*%
%TA.AperFunction,ComponentPad*%
%ADD22O,1.750000X1.200000*%
%TD*%
%TA.AperFunction,SMDPad,CuDef*%
%ADD23FreePoly1,90.000000*%
%TD*%
%TA.AperFunction,SMDPad,CuDef*%
%ADD24FreePoly2,180.000000*%
%TD*%
%TA.AperFunction,SMDPad,CuDef*%
%ADD25FreePoly2,0.000000*%
%TD*%
%TA.AperFunction,ComponentPad*%
%ADD26C,0.800000*%
%TD*%
%TA.AperFunction,SMDPad,CuDef*%
%ADD27FreePoly3,180.000000*%
%TD*%
%TA.AperFunction,SMDPad,CuDef*%
%ADD28FreePoly3,0.000000*%
%TD*%
%TA.AperFunction,SMDPad,CuDef*%
%ADD29R,0.800000X1.000000*%
%TD*%
%TA.AperFunction,SMDPad,CuDef*%
%ADD30R,1.500000X0.700000*%
%TD*%
%TA.AperFunction,ViaPad*%
%ADD31C,0.600000*%
%TD*%
%TA.AperFunction,Conductor*%
%ADD32C,0.200000*%
%TD*%
%TA.AperFunction,Conductor*%
%ADD33C,0.250000*%
%TD*%
G04 APERTURE END LIST*
D10*
%TO.P,D21,1*%
%TO.N,P10*%
X133810000Y-97500000D03*
D11*
X131650000Y-97500000D03*
%TO.P,D21,2*%
%TO.N,fifth_only*%
X128350000Y-97500000D03*
D12*
X126190000Y-97500000D03*
%TD*%
D10*
%TO.P,D6,1*%
%TO.N,P15*%
X61810000Y-55000000D03*
D11*
X59650000Y-55000000D03*
%TO.P,D6,2*%
%TO.N,pinky_top*%
X56350000Y-55000000D03*
D12*
X54190000Y-55000000D03*
%TD*%
D10*
%TO.P,D18,1*%
%TO.N,P15*%
X133810000Y-59250000D03*
D11*
X131650000Y-59250000D03*
%TO.P,D18,2*%
%TO.N,inner_top*%
X128350000Y-59250000D03*
D12*
X126190000Y-59250000D03*
%TD*%
D10*
%TO.P,D10,1*%
%TO.N,P16*%
X97810000Y-84750000D03*
D11*
X95650000Y-84750000D03*
%TO.P,D10,2*%
%TO.N,middle_bottom*%
X92350000Y-84750000D03*
D12*
X90190000Y-84750000D03*
%TD*%
D10*
%TO.P,D16,1*%
%TO.N,P16*%
X133810000Y-93250000D03*
D11*
X131650000Y-93250000D03*
%TO.P,D16,2*%
%TO.N,inner_bottom*%
X128350000Y-93250000D03*
D12*
X126190000Y-93250000D03*
%TD*%
D10*
%TO.P,D7,1*%
%TO.N,P16*%
X79810000Y-89000000D03*
D11*
X77650000Y-89000000D03*
%TO.P,D7,2*%
%TO.N,ring_bottom*%
X74350000Y-89000000D03*
D12*
X72190000Y-89000000D03*
%TD*%
D10*
%TO.P,D2,1*%
%TO.N,P14*%
X43810000Y-72000000D03*
D11*
X41650000Y-72000000D03*
%TO.P,D2,2*%
%TO.N,outer_home*%
X38350000Y-72000000D03*
D12*
X36190000Y-72000000D03*
%TD*%
D10*
%TO.P,D3,1*%
%TO.N,P15*%
X43810000Y-55000000D03*
D11*
X41650000Y-55000000D03*
%TO.P,D3,2*%
%TO.N,outer_top*%
X38350000Y-55000000D03*
D12*
X36190000Y-55000000D03*
%TD*%
D10*
%TO.P,D17,1*%
%TO.N,P14*%
X133810000Y-76250000D03*
D11*
X131650000Y-76250000D03*
%TO.P,D17,2*%
%TO.N,inner_home*%
X128350000Y-76250000D03*
D12*
X126190000Y-76250000D03*
%TD*%
D13*
%TO.P,DISP1,1*%
%TO.N,DISP1_1*%
X143920000Y-77950000D03*
%TO.P,DISP1,2*%
%TO.N,DISP1_2*%
X146460000Y-77950000D03*
%TO.P,DISP1,3*%
%TO.N,VCC*%
X149000000Y-77950000D03*
%TO.P,DISP1,4*%
%TO.N,DISP1_4*%
X151540000Y-77950000D03*
D14*
%TO.P,DISP1,5*%
%TO.N,DISP1_5*%
X154080000Y-77950000D03*
D15*
%TO.P,DISP1,10*%
%TO.N,DISP1_1*%
X143920000Y-76200000D03*
%TO.P,DISP1,11*%
%TO.N,DISP1_2*%
X146460000Y-76200000D03*
%TO.P,DISP1,12*%
%TO.N,DISP1_4*%
X151540000Y-76200000D03*
%TO.P,DISP1,13*%
%TO.N,DISP1_5*%
X154080000Y-76200000D03*
%TO.P,DISP1,14*%
%TO.N,P1*%
X143920000Y-75300000D03*
%TO.P,DISP1,15*%
%TO.N,GND*%
X146460000Y-75300000D03*
%TO.P,DISP1,16*%
%TO.N,P3*%
X151540000Y-75300000D03*
%TO.P,DISP1,17*%
%TO.N,P2*%
X154080000Y-75300000D03*
%TD*%
D10*
%TO.P,D1,1*%
%TO.N,P16*%
X43810000Y-89000000D03*
D11*
X41650000Y-89000000D03*
%TO.P,D1,2*%
%TO.N,outer_bottom*%
X38350000Y-89000000D03*
D12*
X36190000Y-89000000D03*
%TD*%
D10*
%TO.P,D8,1*%
%TO.N,P14*%
X79810000Y-72000000D03*
D11*
X77650000Y-72000000D03*
%TO.P,D8,2*%
%TO.N,ring_home*%
X74350000Y-72000000D03*
D12*
X72190000Y-72000000D03*
%TD*%
D10*
%TO.P,D22,1*%
%TO.N,P10*%
X151810000Y-97500000D03*
D11*
X149650000Y-97500000D03*
%TO.P,D22,2*%
%TO.N,sixth_only*%
X146350000Y-97500000D03*
D12*
X144190000Y-97500000D03*
%TD*%
D10*
%TO.P,D23,1*%
%TO.N,P10*%
X77500000Y-95190000D03*
D16*
X77500000Y-97350000D03*
%TO.P,D23,2*%
%TO.N,first_only*%
X77500000Y-100650000D03*
D12*
X77500000Y-102810000D03*
%TD*%
D10*
%TO.P,D4,1*%
%TO.N,P16*%
X61810000Y-89000000D03*
D11*
X59650000Y-89000000D03*
%TO.P,D4,2*%
%TO.N,pinky_bottom*%
X56350000Y-89000000D03*
D12*
X54190000Y-89000000D03*
%TD*%
D10*
%TO.P,D13,1*%
%TO.N,P16*%
X115810000Y-93250000D03*
D11*
X113650000Y-93250000D03*
%TO.P,D13,2*%
%TO.N,index_bottom*%
X110350000Y-93250000D03*
D12*
X108190000Y-93250000D03*
%TD*%
D10*
%TO.P,D12,1*%
%TO.N,P15*%
X97810000Y-50750000D03*
D11*
X95650000Y-50750000D03*
%TO.P,D12,2*%
%TO.N,middle_top*%
X92350000Y-50750000D03*
D12*
X90190000Y-50750000D03*
%TD*%
D10*
%TO.P,D19,1*%
%TO.N,P10*%
X97810000Y-97500000D03*
D11*
X95650000Y-97500000D03*
%TO.P,D19,2*%
%TO.N,third_only*%
X92350000Y-97500000D03*
D12*
X90190000Y-97500000D03*
%TD*%
D10*
%TO.P,D11,1*%
%TO.N,P14*%
X97810000Y-67750000D03*
D11*
X95650000Y-67750000D03*
%TO.P,D11,2*%
%TO.N,middle_home*%
X92350000Y-67750000D03*
D12*
X90190000Y-67750000D03*
%TD*%
D10*
%TO.P,D24,1*%
%TO.N,P10*%
X74500000Y-95190000D03*
D16*
X74500000Y-97350000D03*
%TO.P,D24,2*%
%TO.N,second_only*%
X74500000Y-100650000D03*
D12*
X74500000Y-102810000D03*
%TD*%
D10*
%TO.P,D9,1*%
%TO.N,P15*%
X79810000Y-55000000D03*
D11*
X77650000Y-55000000D03*
%TO.P,D9,2*%
%TO.N,ring_top*%
X74350000Y-55000000D03*
D12*
X72190000Y-55000000D03*
%TD*%
D10*
%TO.P,D20,1*%
%TO.N,P10*%
X115810000Y-97500000D03*
D11*
X113650000Y-97500000D03*
%TO.P,D20,2*%
%TO.N,fourth_only*%
X110350000Y-97500000D03*
D12*
X108190000Y-97500000D03*
%TD*%
D10*
%TO.P,D15,1*%
%TO.N,P15*%
X115810000Y-59250000D03*
D11*
X113650000Y-59250000D03*
%TO.P,D15,2*%
%TO.N,index_top*%
X110350000Y-59250000D03*
D12*
X108190000Y-59250000D03*
%TD*%
D10*
%TO.P,D14,1*%
%TO.N,P14*%
X115810000Y-76250000D03*
D11*
X113650000Y-76250000D03*
%TO.P,D14,2*%
%TO.N,index_home*%
X110350000Y-76250000D03*
D12*
X108190000Y-76250000D03*
%TD*%
D10*
%TO.P,D5,1*%
%TO.N,P14*%
X61810000Y-72000000D03*
D11*
X59650000Y-72000000D03*
%TO.P,D5,2*%
%TO.N,pinky_home*%
X56350000Y-72000000D03*
D12*
X54190000Y-72000000D03*
%TD*%
D17*
%TO.P,S21,*%
%TO.N,*%
X99000000Y-100350000D03*
X89000000Y-100350000D03*
D18*
%TO.P,S21,1*%
%TO.N,P7*%
X90725000Y-111450000D03*
D19*
%TO.P,S21,2*%
%TO.N,third_only*%
X102275000Y-109250000D03*
%TD*%
D20*
%TO.P,RST1,1*%
%TO.N,GND*%
X157000000Y-99625000D03*
%TO.P,RST1,2*%
%TO.N,RST*%
X155300000Y-99625000D03*
%TO.P,RST1,3*%
%TO.N,GND*%
X157000000Y-94375000D03*
%TO.P,RST1,4*%
%TO.N,RST*%
X155300000Y-94375000D03*
%TD*%
D17*
%TO.P,S20,*%
%TO.N,*%
X67500000Y-91850000D03*
X57500000Y-91850000D03*
D18*
%TO.P,S20,1*%
%TO.N,P8*%
X59225000Y-102950000D03*
D19*
%TO.P,S20,2*%
%TO.N,second_only*%
X70775000Y-100750000D03*
%TD*%
D17*
%TO.P,S5,*%
%TO.N,*%
X63000000Y-57850000D03*
X53000000Y-57850000D03*
D18*
%TO.P,S5,1*%
%TO.N,P8*%
X54725000Y-68950000D03*
D19*
%TO.P,S5,2*%
%TO.N,pinky_home*%
X66275000Y-66750000D03*
%TD*%
D17*
%TO.P,S13,*%
%TO.N,*%
X117000000Y-79100000D03*
X107000000Y-79100000D03*
D18*
%TO.P,S13,1*%
%TO.N,P5*%
X108725000Y-90200000D03*
D19*
%TO.P,S13,2*%
%TO.N,index_bottom*%
X120275000Y-88000000D03*
%TD*%
D17*
%TO.P,S4,*%
%TO.N,*%
X63000000Y-74850000D03*
X53000000Y-74850000D03*
D18*
%TO.P,S4,1*%
%TO.N,P8*%
X54725000Y-85950000D03*
D19*
%TO.P,S4,2*%
%TO.N,pinky_bottom*%
X66275000Y-83750000D03*
%TD*%
D17*
%TO.P,S6,*%
%TO.N,*%
X63000000Y-40850000D03*
X53000000Y-40850000D03*
D18*
%TO.P,S6,1*%
%TO.N,P8*%
X54725000Y-51950000D03*
D19*
%TO.P,S6,2*%
%TO.N,pinky_top*%
X66275000Y-49750000D03*
%TD*%
D17*
%TO.P,S11,*%
%TO.N,*%
X99000000Y-53600000D03*
X89000000Y-53600000D03*
D18*
%TO.P,S11,1*%
%TO.N,P6*%
X90725000Y-64700000D03*
D19*
%TO.P,S11,2*%
%TO.N,middle_home*%
X102275000Y-62500000D03*
%TD*%
D17*
%TO.P,S12,*%
%TO.N,*%
X99000000Y-36600000D03*
X89000000Y-36600000D03*
D18*
%TO.P,S12,1*%
%TO.N,P6*%
X90725000Y-47700000D03*
D19*
%TO.P,S12,2*%
%TO.N,middle_top*%
X102275000Y-45500000D03*
%TD*%
D17*
%TO.P,S2,*%
%TO.N,*%
X45000000Y-57850000D03*
X35000000Y-57850000D03*
D18*
%TO.P,S2,1*%
%TO.N,P9*%
X36725000Y-68950000D03*
D19*
%TO.P,S2,2*%
%TO.N,outer_home*%
X48275000Y-66750000D03*
%TD*%
D17*
%TO.P,S3,*%
%TO.N,*%
X45000000Y-40850000D03*
X35000000Y-40850000D03*
D18*
%TO.P,S3,1*%
%TO.N,P9*%
X36725000Y-51950000D03*
D19*
%TO.P,S3,2*%
%TO.N,outer_top*%
X48275000Y-49750000D03*
%TD*%
D21*
%TO.P,JST1,1*%
%TO.N,BAT_P*%
X148184000Y-87000000D03*
%TO.P,JST1,2*%
%TO.N,GND*%
X148184000Y-89000000D03*
D22*
%TO.P,JST1,11*%
%TO.N,JST1_1*%
X151000000Y-87000000D03*
%TO.P,JST1,12*%
%TO.N,JST1_2*%
X151000000Y-89000000D03*
D23*
%TO.P,JST1,21*%
%TO.N,JST1_1*%
X149200000Y-87000000D03*
%TO.P,JST1,22*%
%TO.N,JST1_2*%
X149200000Y-89000000D03*
%TD*%
D24*
%TO.P,MCU1,1*%
%TO.N,MCU1_1*%
X154000000Y-45650000D03*
D14*
X156120000Y-45650000D03*
D24*
%TO.P,MCU1,2*%
%TO.N,MCU1_2*%
X154000000Y-48190000D03*
D14*
X156120000Y-48190000D03*
D24*
%TO.P,MCU1,3*%
%TO.N,MCU1_3*%
X154000000Y-50730000D03*
D14*
X156120000Y-50730000D03*
D24*
%TO.P,MCU1,4*%
%TO.N,MCU1_4*%
X154000000Y-53270000D03*
D14*
X156120000Y-53270000D03*
D24*
%TO.P,MCU1,5*%
%TO.N,MCU1_5*%
X154000000Y-55810000D03*
D14*
X156120000Y-55810000D03*
D24*
%TO.P,MCU1,6*%
%TO.N,MCU1_6*%
X154000000Y-58350000D03*
D14*
X156120000Y-58350000D03*
D24*
%TO.P,MCU1,7*%
%TO.N,MCU1_7*%
X154000000Y-60890000D03*
D14*
X156120000Y-60890000D03*
D24*
%TO.P,MCU1,8*%
%TO.N,MCU1_8*%
X154000000Y-63430000D03*
D14*
X156120000Y-63430000D03*
D24*
%TO.P,MCU1,9*%
%TO.N,MCU1_9*%
X154000000Y-65970000D03*
D14*
X156120000Y-65970000D03*
D24*
%TO.P,MCU1,10*%
%TO.N,MCU1_10*%
X154000000Y-68510000D03*
D14*
X156120000Y-68510000D03*
D24*
%TO.P,MCU1,11*%
%TO.N,MCU1_11*%
X154000000Y-71050000D03*
D14*
X156120000Y-71050000D03*
D24*
%TO.P,MCU1,12*%
%TO.N,MCU1_12*%
X154000000Y-73590000D03*
D14*
X156120000Y-73590000D03*
%TO.P,MCU1,13*%
%TO.N,MCU1_13*%
X140880000Y-73590000D03*
D25*
X143000000Y-73590000D03*
D14*
%TO.P,MCU1,14*%
%TO.N,MCU1_14*%
X140880000Y-71050000D03*
D25*
X143000000Y-71050000D03*
D14*
%TO.P,MCU1,15*%
%TO.N,MCU1_15*%
X140880000Y-68510000D03*
D25*
X143000000Y-68510000D03*
D14*
%TO.P,MCU1,16*%
%TO.N,MCU1_16*%
X140880000Y-65970000D03*
D25*
X143000000Y-65970000D03*
D14*
%TO.P,MCU1,17*%
%TO.N,MCU1_17*%
X140880000Y-63430000D03*
D25*
X143000000Y-63430000D03*
D14*
%TO.P,MCU1,18*%
%TO.N,MCU1_18*%
X140880000Y-60890000D03*
D25*
X143000000Y-60890000D03*
D14*
%TO.P,MCU1,19*%
%TO.N,MCU1_19*%
X140880000Y-58350000D03*
D25*
X143000000Y-58350000D03*
D14*
%TO.P,MCU1,20*%
%TO.N,MCU1_20*%
X140880000Y-55810000D03*
D25*
X143000000Y-55810000D03*
D14*
%TO.P,MCU1,21*%
%TO.N,MCU1_21*%
X140880000Y-53270000D03*
D25*
X143000000Y-53270000D03*
D14*
%TO.P,MCU1,22*%
%TO.N,MCU1_22*%
X140880000Y-50730000D03*
D25*
X143000000Y-50730000D03*
D14*
%TO.P,MCU1,23*%
%TO.N,MCU1_23*%
X140880000Y-48190000D03*
D25*
X143000000Y-48190000D03*
D14*
%TO.P,MCU1,24*%
%TO.N,MCU1_24*%
X140880000Y-45650000D03*
D25*
X143000000Y-45650000D03*
D26*
%TO.P,MCU1,101*%
%TO.N,RAW*%
X151900000Y-45650000D03*
D27*
X153275000Y-45650000D03*
D26*
%TO.P,MCU1,102*%
%TO.N,GND*%
X151900000Y-48190000D03*
D27*
X153275000Y-48190000D03*
D26*
%TO.P,MCU1,103*%
%TO.N,RST*%
X151900000Y-50730000D03*
D27*
X153275000Y-50730000D03*
D26*
%TO.P,MCU1,104*%
%TO.N,VCC*%
X151900000Y-53270000D03*
D27*
X153275000Y-53270000D03*
D26*
%TO.P,MCU1,105*%
%TO.N,P21*%
X151900000Y-55810000D03*
D27*
X153275000Y-55810000D03*
D26*
%TO.P,MCU1,106*%
%TO.N,P20*%
X151900000Y-58350000D03*
D27*
X153275000Y-58350000D03*
D26*
%TO.P,MCU1,107*%
%TO.N,P19*%
X151900000Y-60890000D03*
D27*
X153275000Y-60890000D03*
D26*
%TO.P,MCU1,108*%
%TO.N,P18*%
X151900000Y-63430000D03*
D27*
X153275000Y-63430000D03*
D26*
%TO.P,MCU1,109*%
%TO.N,P15*%
X151900000Y-65970000D03*
D27*
X153275000Y-65970000D03*
D26*
%TO.P,MCU1,110*%
%TO.N,P14*%
X151900000Y-68510000D03*
D27*
X153275000Y-68510000D03*
D26*
%TO.P,MCU1,111*%
%TO.N,P16*%
X151900000Y-71050000D03*
D27*
X153275000Y-71050000D03*
D26*
%TO.P,MCU1,112*%
%TO.N,P10*%
X151900000Y-73590000D03*
D27*
X153275000Y-73590000D03*
D28*
%TO.P,MCU1,113*%
%TO.N,P9*%
X143725000Y-73590000D03*
D26*
X145100000Y-73590000D03*
D28*
%TO.P,MCU1,114*%
%TO.N,P8*%
X143725000Y-71050000D03*
D26*
X145100000Y-71050000D03*
D28*
%TO.P,MCU1,115*%
%TO.N,P7*%
X143725000Y-68510000D03*
D26*
X145100000Y-68510000D03*
D28*
%TO.P,MCU1,116*%
%TO.N,P6*%
X143725000Y-65970000D03*
D26*
X145100000Y-65970000D03*
D28*
%TO.P,MCU1,117*%
%TO.N,P5*%
X143725000Y-63430000D03*
D26*
X145100000Y-63430000D03*
D28*
%TO.P,MCU1,118*%
%TO.N,P4*%
X143725000Y-60890000D03*
D26*
X145100000Y-60890000D03*
D28*
%TO.P,MCU1,119*%
%TO.N,P3*%
X143725000Y-58350000D03*
D26*
X145100000Y-58350000D03*
D28*
%TO.P,MCU1,120*%
%TO.N,P2*%
X143725000Y-55810000D03*
D26*
X145100000Y-55810000D03*
D28*
%TO.P,MCU1,121*%
%TO.N,GND*%
X143725000Y-53270000D03*
D26*
X145100000Y-53270000D03*
D28*
%TO.P,MCU1,122*%
X143725000Y-50730000D03*
D26*
X145100000Y-50730000D03*
D28*
%TO.P,MCU1,123*%
%TO.N,P0*%
X143725000Y-48190000D03*
D26*
X145100000Y-48190000D03*
D28*
%TO.P,MCU1,124*%
%TO.N,P1*%
X143725000Y-45650000D03*
D26*
X145100000Y-45650000D03*
%TD*%
D17*
%TO.P,S18,*%
%TO.N,*%
X135000000Y-45100000D03*
X125000000Y-45100000D03*
D18*
%TO.P,S18,1*%
%TO.N,P4*%
X126725000Y-56200000D03*
D19*
%TO.P,S18,2*%
%TO.N,inner_top*%
X138275000Y-54000000D03*
%TD*%
D17*
%TO.P,S22,*%
%TO.N,*%
X117000000Y-100350000D03*
X107000000Y-100350000D03*
D18*
%TO.P,S22,1*%
%TO.N,P6*%
X108725000Y-111450000D03*
D19*
%TO.P,S22,2*%
%TO.N,fourth_only*%
X120275000Y-109250000D03*
%TD*%
D17*
%TO.P,S7,*%
%TO.N,*%
X81000000Y-74850000D03*
X71000000Y-74850000D03*
D18*
%TO.P,S7,1*%
%TO.N,P7*%
X72725000Y-85950000D03*
D19*
%TO.P,S7,2*%
%TO.N,ring_bottom*%
X84275000Y-83750000D03*
%TD*%
D17*
%TO.P,S1,*%
%TO.N,*%
X45000000Y-74850000D03*
X35000000Y-74850000D03*
D18*
%TO.P,S1,1*%
%TO.N,P9*%
X36725000Y-85950000D03*
D19*
%TO.P,S1,2*%
%TO.N,outer_bottom*%
X48275000Y-83750000D03*
%TD*%
D17*
%TO.P,S24,*%
%TO.N,*%
X153000000Y-100350000D03*
X143000000Y-100350000D03*
D18*
%TO.P,S24,1*%
%TO.N,P4*%
X144725000Y-111450000D03*
D19*
%TO.P,S24,2*%
%TO.N,sixth_only*%
X156275000Y-109250000D03*
%TD*%
D17*
%TO.P,S15,*%
%TO.N,*%
X117000000Y-45100000D03*
X107000000Y-45100000D03*
D18*
%TO.P,S15,1*%
%TO.N,P5*%
X108725000Y-56200000D03*
D19*
%TO.P,S15,2*%
%TO.N,index_top*%
X120275000Y-54000000D03*
%TD*%
D17*
%TO.P,S19,*%
%TO.N,*%
X49500000Y-91850000D03*
X39500000Y-91850000D03*
D18*
%TO.P,S19,1*%
%TO.N,P9*%
X41225000Y-102950000D03*
D19*
%TO.P,S19,2*%
%TO.N,first_only*%
X52775000Y-100750000D03*
%TD*%
D17*
%TO.P,S23,*%
%TO.N,*%
X135000000Y-100350000D03*
X125000000Y-100350000D03*
D18*
%TO.P,S23,1*%
%TO.N,P5*%
X126725000Y-111450000D03*
D19*
%TO.P,S23,2*%
%TO.N,fifth_only*%
X138275000Y-109250000D03*
%TD*%
D17*
%TO.P,S17,*%
%TO.N,*%
X135000000Y-62100000D03*
X125000000Y-62100000D03*
D18*
%TO.P,S17,1*%
%TO.N,P4*%
X126725000Y-73200000D03*
D19*
%TO.P,S17,2*%
%TO.N,inner_home*%
X138275000Y-71000000D03*
%TD*%
D29*
%TO.P,PWR1,*%
%TO.N,*%
X154915000Y-84350000D03*
X154915000Y-91650000D03*
X157125000Y-84350000D03*
X157125000Y-91650000D03*
D30*
%TO.P,PWR1,1*%
%TO.N,BAT_P*%
X154265000Y-90250000D03*
%TO.P,PWR1,2*%
%TO.N,RAW*%
X154265000Y-87250000D03*
%TO.P,PWR1,3*%
%TO.N,N/C*%
X154265000Y-85750000D03*
%TD*%
D17*
%TO.P,S9,*%
%TO.N,*%
X81000000Y-40850000D03*
X71000000Y-40850000D03*
D18*
%TO.P,S9,1*%
%TO.N,P7*%
X72725000Y-51950000D03*
D19*
%TO.P,S9,2*%
%TO.N,ring_top*%
X84275000Y-49750000D03*
%TD*%
D17*
%TO.P,S16,*%
%TO.N,*%
X135000000Y-79100000D03*
X125000000Y-79100000D03*
D18*
%TO.P,S16,1*%
%TO.N,P4*%
X126725000Y-90200000D03*
D19*
%TO.P,S16,2*%
%TO.N,inner_bottom*%
X138275000Y-88000000D03*
%TD*%
D17*
%TO.P,S10,*%
%TO.N,*%
X99000000Y-70600000D03*
X89000000Y-70600000D03*
D18*
%TO.P,S10,1*%
%TO.N,P6*%
X90725000Y-81700000D03*
D19*
%TO.P,S10,2*%
%TO.N,middle_bottom*%
X102275000Y-79500000D03*
%TD*%
D17*
%TO.P,S14,*%
%TO.N,*%
X117000000Y-62100000D03*
X107000000Y-62100000D03*
D18*
%TO.P,S14,1*%
%TO.N,P5*%
X108725000Y-73200000D03*
D19*
%TO.P,S14,2*%
%TO.N,index_home*%
X120275000Y-71000000D03*
%TD*%
D17*
%TO.P,S8,*%
%TO.N,*%
X81000000Y-57850000D03*
X71000000Y-57850000D03*
D18*
%TO.P,S8,1*%
%TO.N,P7*%
X72725000Y-68950000D03*
D19*
%TO.P,S8,2*%
%TO.N,ring_home*%
X84275000Y-66750000D03*
%TD*%
D31*
%TO.N,P9*%
X40000000Y-49875000D03*
X40000000Y-83875000D03*
X44500000Y-100875000D03*
X40000000Y-66875000D03*
%TO.N,outer_bottom*%
X40000000Y-83075000D03*
%TO.N,GND*%
X157000000Y-97000000D03*
X152750000Y-79750000D03*
X137500000Y-68500000D03*
X137500000Y-75241420D03*
X137500000Y-56250000D03*
%TO.N,outer_home*%
X40000000Y-66075000D03*
%TO.N,outer_top*%
X40000000Y-49075000D03*
%TO.N,P8*%
X58000000Y-49875000D03*
X62500000Y-100875000D03*
X58000000Y-83875000D03*
X58000000Y-66875000D03*
%TO.N,pinky_bottom*%
X58000000Y-83075000D03*
%TO.N,pinky_home*%
X58000000Y-66075000D03*
%TO.N,pinky_top*%
X58000000Y-49075000D03*
%TO.N,P7*%
X94000000Y-109375000D03*
X76000000Y-49875000D03*
X76000000Y-66875000D03*
X76000000Y-83875000D03*
%TO.N,ring_bottom*%
X76000000Y-83075000D03*
%TO.N,ring_home*%
X76000000Y-66075000D03*
%TO.N,ring_top*%
X76000000Y-49075000D03*
%TO.N,P6*%
X94000000Y-79625000D03*
X112000000Y-109375000D03*
X94000000Y-45625000D03*
X94000000Y-62625000D03*
%TO.N,middle_bottom*%
X94000000Y-78825000D03*
%TO.N,middle_home*%
X94000000Y-61825000D03*
%TO.N,middle_top*%
X94000000Y-44825000D03*
%TO.N,P5*%
X112000000Y-54125000D03*
X112000000Y-88125000D03*
X112000000Y-71125000D03*
X130000000Y-109375000D03*
%TO.N,index_bottom*%
X112000000Y-87325000D03*
%TO.N,index_home*%
X112000000Y-70325000D03*
%TO.N,index_top*%
X112000000Y-53325000D03*
%TO.N,P4*%
X148000000Y-109375000D03*
X130000000Y-54125000D03*
X130000000Y-88125000D03*
X130000000Y-71125000D03*
%TO.N,inner_bottom*%
X130000000Y-87325000D03*
%TO.N,inner_home*%
X130000000Y-70325000D03*
%TO.N,inner_top*%
X130000000Y-53325000D03*
%TO.N,first_only*%
X44500000Y-100075000D03*
%TO.N,second_only*%
X62500000Y-100075000D03*
%TO.N,third_only*%
X94000000Y-108575000D03*
%TO.N,fourth_only*%
X112000000Y-108575000D03*
%TO.N,fifth_only*%
X130000000Y-108575000D03*
%TO.N,sixth_only*%
X148000000Y-108575000D03*
%TO.N,RAW*%
X153875000Y-83625000D03*
%TO.N,RST*%
X138730000Y-75250000D03*
X141000000Y-77500000D03*
X138250000Y-57500000D03*
X138250000Y-67250000D03*
X155300000Y-97000000D03*
%TO.N,VCC*%
X149000000Y-75500000D03*
%TO.N,P1*%
X148000000Y-74700000D03*
%TO.N,P2*%
X145250000Y-80500000D03*
X139000000Y-68500000D03*
X142500000Y-75500000D03*
X138730000Y-73750000D03*
%TO.N,P3*%
X148350000Y-76150000D03*
X152000000Y-59500000D03*
%TO.N,BAT_P*%
X152750000Y-89000000D03*
%TD*%
D32*
%TO.N,P9*%
X43300000Y-100875000D02*
X44500000Y-100875000D01*
X148500000Y-68639900D02*
X143725000Y-73414900D01*
X103500000Y-39739800D02*
X105010000Y-41250000D01*
X82989800Y-37000000D02*
X84500000Y-35489800D01*
X144750000Y-41250000D02*
X148500000Y-45000000D01*
X34901500Y-90882100D02*
X41350000Y-97330600D01*
X143725000Y-73414900D02*
X143725000Y-73590000D01*
X84500000Y-34500000D02*
X86250000Y-32750000D01*
X36725000Y-85950000D02*
X38800000Y-83875000D01*
X41225000Y-102950000D02*
X43300000Y-100875000D01*
X103500000Y-34411800D02*
X103500000Y-39739800D01*
X36725000Y-51950000D02*
X36850000Y-51825000D01*
X33750000Y-77411500D02*
X36850000Y-80511500D01*
X34901500Y-87773500D02*
X34901500Y-90882100D01*
X105010000Y-41250000D02*
X144750000Y-41250000D01*
X36725000Y-68950000D02*
X36850000Y-68825000D01*
X86250000Y-32750000D02*
X101838000Y-32750000D01*
X36850000Y-85825000D02*
X36725000Y-85950000D01*
X36850000Y-51825000D02*
X36850000Y-39400000D01*
X36850000Y-51825000D02*
X38800000Y-49875000D01*
X36725000Y-51950000D02*
X33200000Y-55475000D01*
X38800000Y-83875000D02*
X40000000Y-83875000D01*
X36850000Y-80511500D02*
X36850000Y-85825000D01*
X33200000Y-55475000D02*
X33200000Y-59861500D01*
X33750000Y-71925000D02*
X33750000Y-77411500D01*
X36850000Y-39400000D02*
X39250000Y-37000000D01*
X41350000Y-97330600D02*
X41350000Y-102825000D01*
X41350000Y-102825000D02*
X41225000Y-102950000D01*
X38800000Y-49875000D02*
X40000000Y-49875000D01*
X38800000Y-66875000D02*
X40000000Y-66875000D01*
X39250000Y-37000000D02*
X82989800Y-37000000D01*
D33*
X143725000Y-73590000D02*
X145100000Y-73590000D01*
D32*
X101838000Y-32750000D02*
X103500000Y-34411800D01*
X36850000Y-63511500D02*
X36850000Y-68825000D01*
X148500000Y-45000000D02*
X148500000Y-68639900D01*
X36725000Y-85950000D02*
X34901500Y-87773500D01*
X36725000Y-68950000D02*
X33750000Y-71925000D01*
X33200000Y-59861500D02*
X36850000Y-63511500D01*
X36850000Y-68825000D02*
X38800000Y-66875000D01*
X84500000Y-35489800D02*
X84500000Y-34500000D01*
%TO.N,outer_bottom*%
X48275000Y-83750000D02*
X46421000Y-81896000D01*
X46421000Y-81896000D02*
X42154000Y-81896000D01*
X42154000Y-81896000D02*
X40975000Y-83075000D01*
X36190000Y-89000000D02*
X38350000Y-89000000D01*
X40975000Y-83075000D02*
X40000000Y-83075000D01*
%TO.N,GND*%
X151282000Y-93000000D02*
X155625000Y-93000000D01*
X141250000Y-79750000D02*
X137500000Y-76000000D01*
X157000000Y-97000000D02*
X157000000Y-99625000D01*
X147060000Y-75300000D02*
X146460000Y-75300000D01*
X152750000Y-79750000D02*
X147750000Y-79750000D01*
X157000000Y-94375000D02*
X157000000Y-97000000D01*
X147750000Y-75990000D02*
X147060000Y-75300000D01*
D33*
X153275000Y-48190000D02*
X151900000Y-48190000D01*
D32*
X142250000Y-83066000D02*
X142250000Y-79750000D01*
D33*
X143725000Y-50730000D02*
X145100000Y-50730000D01*
D32*
X148184000Y-89901700D02*
X148184000Y-89000000D01*
X151282000Y-93000000D02*
X148184000Y-89901700D01*
X137500000Y-56250000D02*
X137500000Y-68500000D01*
X147750000Y-79750000D02*
X147750000Y-75990000D01*
X148184000Y-89000000D02*
X142250000Y-83066000D01*
X137500000Y-76000000D02*
X137500000Y-75241420D01*
X142250000Y-79750000D02*
X141250000Y-79750000D01*
X152750000Y-79750000D02*
X142250000Y-79750000D01*
X155625000Y-93000000D02*
X157000000Y-94375000D01*
D33*
X143725000Y-53270000D02*
X145100000Y-53270000D01*
D32*
%TO.N,outer_home*%
X48275000Y-66750000D02*
X46421000Y-64896000D01*
X46421000Y-64896000D02*
X42154000Y-64896000D01*
X40975000Y-66075000D02*
X40000000Y-66075000D01*
X42154000Y-64896000D02*
X40975000Y-66075000D01*
X36190000Y-72000000D02*
X38350000Y-72000000D01*
%TO.N,outer_top*%
X36190000Y-55000000D02*
X38350000Y-55000000D01*
X40975000Y-49075000D02*
X40000000Y-49075000D01*
X48275000Y-49750000D02*
X46421000Y-47896000D01*
X42154000Y-47896000D02*
X40975000Y-49075000D01*
X46421000Y-47896000D02*
X42154000Y-47896000D01*
%TO.N,P8*%
X54850000Y-51825000D02*
X54850000Y-39400000D01*
X56850000Y-37400000D02*
X83155500Y-37400000D01*
X103100000Y-34577500D02*
X103100000Y-39905500D01*
X101673000Y-33150000D02*
X103100000Y-34577500D01*
X51750000Y-71925000D02*
X51750000Y-77411500D01*
X148000000Y-45066000D02*
X148000000Y-66775000D01*
X148000000Y-66775000D02*
X143725000Y-71050000D01*
X54725000Y-51950000D02*
X54725000Y-52693700D01*
X61300000Y-100875000D02*
X62500000Y-100875000D01*
X84900000Y-35655500D02*
X84900000Y-34665700D01*
X54725000Y-68950000D02*
X54850000Y-68825000D01*
X51750000Y-60411500D02*
X54850000Y-63511500D01*
X51750000Y-55668700D02*
X51750000Y-60411500D01*
X54850000Y-68825000D02*
X56800000Y-66875000D01*
X54725000Y-51950000D02*
X54850000Y-51825000D01*
X54850000Y-63511500D02*
X54850000Y-68825000D01*
X59350000Y-102825000D02*
X59225000Y-102950000D01*
X54725000Y-85950000D02*
X52937500Y-87737500D01*
X59350000Y-102825000D02*
X61300000Y-100875000D01*
X54850000Y-80511500D02*
X54850000Y-85825000D01*
X144584000Y-41650000D02*
X148000000Y-45066000D01*
X52937500Y-87737500D02*
X52937500Y-90937500D01*
X103100000Y-39905500D02*
X104844000Y-41650000D01*
X54850000Y-51825000D02*
X56800000Y-49875000D01*
X54850000Y-39400000D02*
X56850000Y-37400000D01*
X56800000Y-49875000D02*
X58000000Y-49875000D01*
D33*
X143725000Y-71050000D02*
X145100000Y-71050000D01*
D32*
X83155500Y-37400000D02*
X84900000Y-35655500D01*
X86415700Y-33150000D02*
X101673000Y-33150000D01*
X51750000Y-77411500D02*
X54850000Y-80511500D01*
X54850000Y-85825000D02*
X54725000Y-85950000D01*
X52937500Y-90937500D02*
X59350000Y-97350000D01*
X84900000Y-34665700D02*
X86415700Y-33150000D01*
X54725000Y-52693700D02*
X51750000Y-55668700D01*
X56800000Y-83875000D02*
X58000000Y-83875000D01*
X54725000Y-68950000D02*
X51750000Y-71925000D01*
X56800000Y-66875000D02*
X58000000Y-66875000D01*
X104844000Y-41650000D02*
X144584000Y-41650000D01*
X59350000Y-97350000D02*
X59350000Y-102825000D01*
X54850000Y-85825000D02*
X56800000Y-83875000D01*
%TO.N,pinky_bottom*%
X66275000Y-83750000D02*
X64421000Y-81896000D01*
X54190000Y-89000000D02*
X56350000Y-89000000D01*
X64421000Y-81896000D02*
X60154000Y-81896000D01*
X58975000Y-83075000D02*
X58000000Y-83075000D01*
X60154000Y-81896000D02*
X58975000Y-83075000D01*
%TO.N,pinky_home*%
X58975000Y-66075000D02*
X58000000Y-66075000D01*
X66275000Y-66750000D02*
X64421000Y-64896000D01*
X64421000Y-64896000D02*
X60154000Y-64896000D01*
X60154000Y-64896000D02*
X58975000Y-66075000D01*
X54190000Y-72000000D02*
X56350000Y-72000000D01*
%TO.N,pinky_top*%
X66275000Y-49750000D02*
X64421000Y-47896000D01*
X58975000Y-49075000D02*
X58000000Y-49075000D01*
X54190000Y-55000000D02*
X56350000Y-55000000D01*
X64421000Y-47896000D02*
X60154000Y-47896000D01*
X60154000Y-47896000D02*
X58975000Y-49075000D01*
%TO.N,P7*%
X90850000Y-111325000D02*
X92800000Y-109375000D01*
X72850000Y-63511500D02*
X72850000Y-68825000D01*
D33*
X143725000Y-68510000D02*
X145100000Y-68510000D01*
D32*
X102700000Y-34743100D02*
X102700000Y-40071200D01*
X90850000Y-105100000D02*
X90850000Y-110670600D01*
X69750000Y-54925000D02*
X69750000Y-60411500D01*
X85300000Y-35821200D02*
X85300000Y-34831400D01*
X74800000Y-83875000D02*
X76000000Y-83875000D01*
X74450000Y-37800000D02*
X83321200Y-37800000D01*
X72850000Y-85825000D02*
X72725000Y-85950000D01*
X144419000Y-42050000D02*
X147500000Y-45131000D01*
X72725000Y-68950000D02*
X69000000Y-72675000D01*
X92800000Y-109375000D02*
X94000000Y-109375000D01*
X102700000Y-40071200D02*
X104679000Y-42050000D01*
X72725000Y-68950000D02*
X74800000Y-66875000D01*
X70937500Y-89687500D02*
X72000000Y-90750000D01*
X76500000Y-90750000D02*
X90850000Y-105100000D01*
X83321200Y-37800000D02*
X85300000Y-35821200D01*
X69000000Y-72675000D02*
X69000000Y-76500000D01*
X101507000Y-33550000D02*
X102700000Y-34743100D01*
X69750000Y-60411500D02*
X72850000Y-63511500D01*
X70937500Y-87737500D02*
X70937500Y-89687500D01*
X72725000Y-51950000D02*
X74800000Y-49875000D01*
X72850000Y-68825000D02*
X72725000Y-68950000D01*
X72725000Y-51950000D02*
X69750000Y-54925000D01*
X86581400Y-33550000D02*
X101507000Y-33550000D01*
X72850000Y-39400000D02*
X74450000Y-37800000D01*
X90850000Y-110670600D02*
X90725000Y-110795600D01*
X72850000Y-80350000D02*
X72850000Y-85825000D01*
X72850000Y-51825000D02*
X72850000Y-39400000D01*
X90850000Y-110670600D02*
X90850000Y-111325000D01*
X72000000Y-90750000D02*
X76500000Y-90750000D01*
X72725000Y-51950000D02*
X72850000Y-51825000D01*
X147500000Y-45131000D02*
X147500000Y-64735000D01*
X85300000Y-34831400D02*
X86581400Y-33550000D01*
X69000000Y-76500000D02*
X72850000Y-80350000D01*
X74800000Y-66875000D02*
X76000000Y-66875000D01*
X90725000Y-110795600D02*
X90725000Y-111450000D01*
X147500000Y-64735000D02*
X143725000Y-68510000D01*
X74800000Y-49875000D02*
X76000000Y-49875000D01*
X72725000Y-85950000D02*
X70937500Y-87737500D01*
X104679000Y-42050000D02*
X144419000Y-42050000D01*
X72850000Y-85825000D02*
X74800000Y-83875000D01*
%TO.N,ring_bottom*%
X84275000Y-83750000D02*
X82421000Y-81896000D01*
X74350000Y-89000000D02*
X72190000Y-89000000D01*
X78154000Y-81896000D02*
X76975000Y-83075000D01*
X82421000Y-81896000D02*
X78154000Y-81896000D01*
X76975000Y-83075000D02*
X76000000Y-83075000D01*
%TO.N,ring_home*%
X78154000Y-64896000D02*
X76975000Y-66075000D01*
X84275000Y-66750000D02*
X82421000Y-64896000D01*
X82421000Y-64896000D02*
X78154000Y-64896000D01*
X76975000Y-66075000D02*
X76000000Y-66075000D01*
X74350000Y-72000000D02*
X72190000Y-72000000D01*
%TO.N,ring_top*%
X82421000Y-47896000D02*
X78154000Y-47896000D01*
X78154000Y-47896000D02*
X76975000Y-49075000D01*
X74350000Y-55000000D02*
X72190000Y-55000000D01*
X84275000Y-49750000D02*
X82421000Y-47896000D01*
X76975000Y-49075000D02*
X76000000Y-49075000D01*
%TO.N,P6*%
X90850000Y-35150000D02*
X92050000Y-33950000D01*
X92050000Y-33950000D02*
X101341000Y-33950000D01*
X88937500Y-83487500D02*
X88937500Y-85312500D01*
X90725000Y-64700000D02*
X91000000Y-64425000D01*
X102300000Y-40236900D02*
X104513000Y-42450000D01*
X87750000Y-73161500D02*
X90850000Y-76261500D01*
X92800000Y-79625000D02*
X94000000Y-79625000D01*
X102300000Y-34908800D02*
X102300000Y-40236900D01*
X90850000Y-76261500D02*
X90850000Y-81575000D01*
X104513000Y-42450000D02*
X144253000Y-42450000D01*
D33*
X143725000Y-65970000D02*
X145100000Y-65970000D01*
D32*
X88937500Y-85312500D02*
X108850000Y-105225000D01*
X101341000Y-33950000D02*
X102300000Y-34908800D01*
X90850000Y-81575000D02*
X90725000Y-81700000D01*
X90850000Y-81575000D02*
X92800000Y-79625000D01*
X108850000Y-105225000D02*
X108850000Y-111325000D01*
X144253000Y-42450000D02*
X147000000Y-45197000D01*
X87750000Y-67675000D02*
X87750000Y-73161500D01*
X108850000Y-111325000D02*
X108725000Y-111450000D01*
X90850000Y-47575000D02*
X90850000Y-35150000D01*
X147000000Y-62695000D02*
X143725000Y-65970000D01*
X147000000Y-45197000D02*
X147000000Y-62695000D01*
X92800000Y-62625000D02*
X94000000Y-62625000D01*
X90725000Y-47700000D02*
X90850000Y-47575000D01*
X90725000Y-64700000D02*
X87750000Y-67675000D01*
X90725000Y-81700000D02*
X88937500Y-83487500D01*
X87750000Y-50675000D02*
X87750000Y-56161500D01*
X90725000Y-47700000D02*
X87750000Y-50675000D01*
X91000000Y-64425000D02*
X92800000Y-62625000D01*
X90725000Y-47700000D02*
X92800000Y-45625000D01*
X87750000Y-56161500D02*
X91000000Y-59411500D01*
X92800000Y-45625000D02*
X94000000Y-45625000D01*
X91000000Y-59411500D02*
X91000000Y-64425000D01*
X110800000Y-109375000D02*
X112000000Y-109375000D01*
X108725000Y-111450000D02*
X110800000Y-109375000D01*
%TO.N,middle_bottom*%
X102275000Y-79500000D02*
X100421000Y-77646000D01*
X90190000Y-84750000D02*
X92350000Y-84750000D01*
X100421000Y-77646000D02*
X96154000Y-77646000D01*
X96154000Y-77646000D02*
X94975000Y-78825000D01*
X94975000Y-78825000D02*
X94000000Y-78825000D01*
%TO.N,middle_home*%
X100421000Y-60646000D02*
X96154000Y-60646000D01*
X90190000Y-67750000D02*
X92350000Y-67750000D01*
X102275000Y-62500000D02*
X100421000Y-60646000D01*
X94975000Y-61825000D02*
X94000000Y-61825000D01*
X96154000Y-60646000D02*
X94975000Y-61825000D01*
%TO.N,middle_top*%
X100421000Y-43646000D02*
X96154000Y-43646000D01*
X90190000Y-50750000D02*
X92350000Y-50750000D01*
X102275000Y-45500000D02*
X100421000Y-43646000D01*
X96154000Y-43646000D02*
X94975000Y-44825000D01*
X94975000Y-44825000D02*
X94000000Y-44825000D01*
%TO.N,P5*%
X146500000Y-60479900D02*
X143725000Y-63254900D01*
X126725000Y-111450000D02*
X126850000Y-111325000D01*
X105750000Y-81500000D02*
X108850000Y-84600000D01*
X108725000Y-56200000D02*
X110800000Y-54125000D01*
X108725000Y-90200000D02*
X106938000Y-91987500D01*
X108850000Y-67761500D02*
X108850000Y-73075000D01*
X108725000Y-56200000D02*
X105750000Y-59175000D01*
X108850000Y-56075000D02*
X108850000Y-43650000D01*
X105750000Y-59175000D02*
X105750000Y-64661500D01*
X108725000Y-90200000D02*
X110800000Y-88125000D01*
X108850000Y-84600000D02*
X108850000Y-90075000D01*
X108000000Y-95000000D02*
X116000000Y-95000000D01*
X108850000Y-73075000D02*
X108725000Y-73200000D01*
X105750000Y-64661500D02*
X108850000Y-67761500D01*
X105750000Y-76175000D02*
X105750000Y-81500000D01*
X106938000Y-91987500D02*
X106938000Y-93937500D01*
X146500000Y-45263000D02*
X146500000Y-60479900D01*
X128800000Y-109375000D02*
X130000000Y-109375000D01*
X126850000Y-105850000D02*
X126850000Y-111325000D01*
X108725000Y-73200000D02*
X110800000Y-71125000D01*
X110800000Y-88125000D02*
X112000000Y-88125000D01*
X110800000Y-71125000D02*
X112000000Y-71125000D01*
X109650000Y-42850000D02*
X144087000Y-42850000D01*
X108850000Y-90075000D02*
X108725000Y-90200000D01*
X144087000Y-42850000D02*
X146500000Y-45263000D01*
X106938000Y-93937500D02*
X108000000Y-95000000D01*
X108850000Y-43650000D02*
X109650000Y-42850000D01*
X126850000Y-111325000D02*
X128800000Y-109375000D01*
X110800000Y-54125000D02*
X112000000Y-54125000D01*
X116000000Y-95000000D02*
X126850000Y-105850000D01*
D33*
X143725000Y-63430000D02*
X145100000Y-63430000D01*
D32*
X143725000Y-63254900D02*
X143725000Y-63430000D01*
X108725000Y-73200000D02*
X105750000Y-76175000D01*
X108725000Y-56200000D02*
X108850000Y-56075000D01*
%TO.N,index_bottom*%
X120275000Y-88000000D02*
X118421000Y-86146000D01*
X112975000Y-87325000D02*
X112000000Y-87325000D01*
X114154000Y-86146000D02*
X112975000Y-87325000D01*
X108190000Y-93250000D02*
X110350000Y-93250000D01*
X118421000Y-86146000D02*
X114154000Y-86146000D01*
%TO.N,index_home*%
X114154000Y-69146000D02*
X112975000Y-70325000D01*
X120275000Y-71000000D02*
X118421000Y-69146000D01*
X108190000Y-76250000D02*
X110350000Y-76250000D01*
X112975000Y-70325000D02*
X112000000Y-70325000D01*
X118421000Y-69146000D02*
X114154000Y-69146000D01*
%TO.N,index_top*%
X108190000Y-59250000D02*
X110350000Y-59250000D01*
X118421000Y-52146000D02*
X114154000Y-52146000D01*
X120275000Y-54000000D02*
X118421000Y-52146000D01*
X114154000Y-52146000D02*
X112975000Y-53325000D01*
X112975000Y-53325000D02*
X112000000Y-53325000D01*
%TO.N,P4*%
X128800000Y-88125000D02*
X130000000Y-88125000D01*
X126850000Y-56075000D02*
X126850000Y-43650000D01*
X126850000Y-67761500D02*
X126850000Y-73075000D01*
X144850000Y-105850000D02*
X144850000Y-111325000D01*
X126725000Y-90200000D02*
X124938000Y-91987500D01*
X126725000Y-56200000D02*
X123750000Y-59175000D01*
X143725000Y-60714900D02*
X143725000Y-60890000D01*
X144725000Y-111450000D02*
X146800000Y-109375000D01*
X128800000Y-71125000D02*
X130000000Y-71125000D01*
X123750000Y-59175000D02*
X123750000Y-64661500D01*
X144850000Y-111325000D02*
X144725000Y-111450000D01*
X146000000Y-45328000D02*
X146000000Y-58439900D01*
X126850000Y-43650000D02*
X127250000Y-43250000D01*
X126725000Y-56200000D02*
X126850000Y-56075000D01*
X123750000Y-64661500D02*
X126850000Y-67761500D01*
X124938000Y-91987500D02*
X124938000Y-93937500D01*
X134000000Y-95000000D02*
X144850000Y-105850000D01*
X127250000Y-43250000D02*
X143922000Y-43250000D01*
X124938000Y-93937500D02*
X126000000Y-95000000D01*
X126725000Y-73200000D02*
X123750000Y-76175000D01*
X126850000Y-73075000D02*
X126725000Y-73200000D01*
X143922000Y-43250000D02*
X146000000Y-45328000D01*
X128800000Y-54125000D02*
X130000000Y-54125000D01*
X126000000Y-95000000D02*
X134000000Y-95000000D01*
X126725000Y-56200000D02*
X128800000Y-54125000D01*
X123750000Y-76175000D02*
X123750000Y-81661500D01*
X126850000Y-90075000D02*
X126725000Y-90200000D01*
X123750000Y-81661500D02*
X126850000Y-84761500D01*
X126850000Y-84761500D02*
X126850000Y-90075000D01*
X126850000Y-90075000D02*
X128800000Y-88125000D01*
X146000000Y-58439900D02*
X143725000Y-60714900D01*
X146800000Y-109375000D02*
X148000000Y-109375000D01*
X126850000Y-73075000D02*
X128800000Y-71125000D01*
D33*
X143725000Y-60890000D02*
X145100000Y-60890000D01*
D32*
%TO.N,inner_bottom*%
X136421000Y-86146000D02*
X132154000Y-86146000D01*
X138275000Y-88000000D02*
X136421000Y-86146000D01*
X126190000Y-93250000D02*
X128350000Y-93250000D01*
X132154000Y-86146000D02*
X130975000Y-87325000D01*
X130975000Y-87325000D02*
X130000000Y-87325000D01*
%TO.N,inner_home*%
X126190000Y-76250000D02*
X128350000Y-76250000D01*
X132154000Y-69146000D02*
X130975000Y-70325000D01*
X130975000Y-70325000D02*
X130000000Y-70325000D01*
X138275000Y-71000000D02*
X136421000Y-69146000D01*
X136421000Y-69146000D02*
X132154000Y-69146000D01*
%TO.N,inner_top*%
X126190000Y-59250000D02*
X128350000Y-59250000D01*
X138275000Y-54000000D02*
X136421000Y-52146000D01*
X136421000Y-52146000D02*
X132154000Y-52146000D01*
X132154000Y-52146000D02*
X130975000Y-53325000D01*
X130975000Y-53325000D02*
X130000000Y-53325000D01*
%TO.N,first_only*%
X46654000Y-98896000D02*
X45475000Y-100075000D01*
X45475000Y-100075000D02*
X44500000Y-100075000D01*
X50921000Y-98896000D02*
X46654000Y-98896000D01*
X52775000Y-100750000D02*
X50921000Y-98896000D01*
X77500000Y-100650000D02*
X77500000Y-102810000D01*
%TO.N,second_only*%
X70775000Y-100750000D02*
X68921000Y-98896000D01*
X64654000Y-98896000D02*
X63475000Y-100075000D01*
X68921000Y-98896000D02*
X64654000Y-98896000D01*
X63475000Y-100075000D02*
X62500000Y-100075000D01*
X74500000Y-100650000D02*
X74500000Y-102810000D01*
%TO.N,third_only*%
X94975000Y-108575000D02*
X94000000Y-108575000D01*
X100421000Y-107396000D02*
X96154000Y-107396000D01*
X90190000Y-97500000D02*
X92350000Y-97500000D01*
X102275000Y-109250000D02*
X100421000Y-107396000D01*
X96154000Y-107396000D02*
X94975000Y-108575000D01*
%TO.N,fourth_only*%
X114154000Y-107396000D02*
X112975000Y-108575000D01*
X120275000Y-109250000D02*
X118421000Y-107396000D01*
X118421000Y-107396000D02*
X114154000Y-107396000D01*
X108190000Y-97500000D02*
X110350000Y-97500000D01*
X112975000Y-108575000D02*
X112000000Y-108575000D01*
%TO.N,fifth_only*%
X138275000Y-109250000D02*
X136421000Y-107396000D01*
X130975000Y-108575000D02*
X130000000Y-108575000D01*
X126190000Y-97500000D02*
X128350000Y-97500000D01*
X132154000Y-107396000D02*
X130975000Y-108575000D01*
X136421000Y-107396000D02*
X132154000Y-107396000D01*
%TO.N,sixth_only*%
X146350000Y-97500000D02*
X144190000Y-97500000D01*
X150154000Y-107396000D02*
X148975000Y-108575000D01*
X154421000Y-107396000D02*
X150154000Y-107396000D01*
X148975000Y-108575000D02*
X148000000Y-108575000D01*
X156275000Y-109250000D02*
X154421000Y-107396000D01*
%TO.N,P16*%
X79810000Y-89000000D02*
X77650000Y-89000000D01*
X61810000Y-89000000D02*
X59650000Y-89000000D01*
X133810000Y-93250000D02*
X131650000Y-93250000D01*
X97810000Y-84750000D02*
X95650000Y-84750000D01*
X115810000Y-93250000D02*
X113650000Y-93250000D01*
D33*
X153275000Y-71050000D02*
X151900000Y-71050000D01*
D32*
X43810000Y-89000000D02*
X41650000Y-89000000D01*
%TO.N,P14*%
X115810000Y-76250000D02*
X113650000Y-76250000D01*
X79810000Y-72000000D02*
X77650000Y-72000000D01*
D33*
X153275000Y-68510000D02*
X151900000Y-68510000D01*
D32*
X43810000Y-72000000D02*
X41650000Y-72000000D01*
X133810000Y-76250000D02*
X131650000Y-76250000D01*
X97810000Y-67750000D02*
X95650000Y-67750000D01*
X61810000Y-72000000D02*
X59650000Y-72000000D01*
%TO.N,P15*%
X97810000Y-50750000D02*
X95650000Y-50750000D01*
X133810000Y-59250000D02*
X131650000Y-59250000D01*
X79810000Y-55000000D02*
X77650000Y-55000000D01*
X59650000Y-55000000D02*
X61810000Y-55000000D01*
X115810000Y-59250000D02*
X113650000Y-59250000D01*
X43810000Y-55000000D02*
X41650000Y-55000000D01*
D33*
X153275000Y-65970000D02*
X151900000Y-65970000D01*
%TO.N,P10*%
X153275000Y-73590000D02*
X151900000Y-73590000D01*
D32*
X115810000Y-97500000D02*
X113650000Y-97500000D01*
X151810000Y-97500000D02*
X149650000Y-97500000D01*
X74500000Y-97350000D02*
X74500000Y-95190000D01*
X133810000Y-97500000D02*
X131650000Y-97500000D01*
X77500000Y-95190000D02*
X77500000Y-97350000D01*
X97810000Y-97500000D02*
X95650000Y-97500000D01*
%TO.N,RAW*%
X153275000Y-46280000D02*
X153275000Y-45650000D01*
X153000000Y-84500000D02*
X153000000Y-86385000D01*
X153995000Y-47000000D02*
X153275000Y-46280000D01*
X153000000Y-86385000D02*
X153865000Y-87250000D01*
X156750000Y-47000000D02*
X153995000Y-47000000D01*
D33*
X153275000Y-45650000D02*
X151900000Y-45650000D01*
D32*
X153875000Y-83625000D02*
X153000000Y-84500000D01*
X157500000Y-80000000D02*
X157500000Y-47750000D01*
X153865000Y-87250000D02*
X154265000Y-87250000D01*
X157500000Y-47750000D02*
X156750000Y-47000000D01*
X153875000Y-83625000D02*
X157500000Y-80000000D01*
%TO.N,RST*%
X138750000Y-75250000D02*
X138730000Y-75250000D01*
X138250000Y-57500000D02*
X138250000Y-67250000D01*
X155300000Y-94375000D02*
X155300000Y-97000000D01*
X141000000Y-77500000D02*
X138750000Y-75250000D01*
X155300000Y-97000000D02*
X155300000Y-99625000D01*
D33*
X153275000Y-50730000D02*
X151900000Y-50730000D01*
%TO.N,VCC*%
X149750000Y-74750000D02*
X149750000Y-56795000D01*
X149750000Y-56795000D02*
X153275000Y-53270000D01*
X149000000Y-75500000D02*
X149750000Y-74750000D01*
X153275000Y-53270000D02*
X151900000Y-53270000D01*
%TO.N,P21*%
X153275000Y-55810000D02*
X151900000Y-55810000D01*
%TO.N,P20*%
X153275000Y-58350000D02*
X151900000Y-58350000D01*
%TO.N,P19*%
X153275000Y-60890000D02*
X151900000Y-60890000D01*
%TO.N,P18*%
X153275000Y-63430000D02*
X151900000Y-63430000D01*
D32*
%TO.N,P1*%
X145550000Y-74700000D02*
X144950000Y-75300000D01*
X148000000Y-74700000D02*
X145550000Y-74700000D01*
D33*
X143725000Y-45650000D02*
X145100000Y-45650000D01*
D32*
X144950000Y-75300000D02*
X143920000Y-75300000D01*
D33*
%TO.N,P0*%
X143725000Y-48190000D02*
X145100000Y-48190000D01*
D32*
%TO.N,P2*%
X139000000Y-68500000D02*
X139000000Y-58000300D01*
X143165000Y-57000000D02*
X143725000Y-56440000D01*
X155500000Y-78875000D02*
X155500000Y-75920000D01*
X140000300Y-57000000D02*
X143165000Y-57000000D01*
X153875000Y-80500000D02*
X155500000Y-78875000D01*
X155500000Y-75920000D02*
X154880000Y-75300000D01*
X140480000Y-75500000D02*
X138730000Y-73750000D01*
X139000000Y-58000300D02*
X140000300Y-57000000D01*
X142500000Y-75500000D02*
X140480000Y-75500000D01*
X154880000Y-75300000D02*
X154080000Y-75300000D01*
D33*
X143725000Y-55810000D02*
X145100000Y-55810000D01*
D32*
X145250000Y-80500000D02*
X153875000Y-80500000D01*
D33*
X143725000Y-56440000D02*
X143725000Y-55810000D01*
D32*
%TO.N,P3*%
X148350000Y-76150000D02*
X150100000Y-76150000D01*
D33*
X152000000Y-59500000D02*
X151175000Y-60325000D01*
X151175000Y-60325000D02*
X151175000Y-74935000D01*
X143725000Y-58350000D02*
X145100000Y-58350000D01*
X151175000Y-74935000D02*
X151540000Y-75300000D01*
D32*
X150100000Y-76150000D02*
X150950000Y-75300000D01*
X150950000Y-75300000D02*
X151540000Y-75300000D01*
D33*
%TO.N,MCU1_24*%
X140880000Y-45650000D02*
X143000000Y-45650000D01*
%TO.N,MCU1_1*%
X154000000Y-45650000D02*
X156120000Y-45650000D01*
%TO.N,MCU1_23*%
X140880000Y-48190000D02*
X143000000Y-48190000D01*
%TO.N,MCU1_2*%
X154000000Y-48190000D02*
X156120000Y-48190000D01*
%TO.N,MCU1_22*%
X140880000Y-50730000D02*
X143000000Y-50730000D01*
%TO.N,MCU1_3*%
X154000000Y-50730000D02*
X156120000Y-50730000D01*
%TO.N,MCU1_21*%
X140880000Y-53270000D02*
X143000000Y-53270000D01*
%TO.N,MCU1_4*%
X154000000Y-53270000D02*
X156120000Y-53270000D01*
%TO.N,MCU1_20*%
X140880000Y-55810000D02*
X143000000Y-55810000D01*
%TO.N,MCU1_5*%
X154000000Y-55810000D02*
X156120000Y-55810000D01*
%TO.N,MCU1_19*%
X140880000Y-58350000D02*
X143000000Y-58350000D01*
%TO.N,MCU1_6*%
X154000000Y-58350000D02*
X156120000Y-58350000D01*
%TO.N,MCU1_18*%
X140880000Y-60890000D02*
X143000000Y-60890000D01*
%TO.N,MCU1_7*%
X154000000Y-60890000D02*
X156120000Y-60890000D01*
%TO.N,MCU1_17*%
X140880000Y-63430000D02*
X143000000Y-63430000D01*
%TO.N,MCU1_8*%
X154000000Y-63430000D02*
X156120000Y-63430000D01*
%TO.N,MCU1_16*%
X140880000Y-65970000D02*
X143000000Y-65970000D01*
%TO.N,MCU1_9*%
X154000000Y-65970000D02*
X156120000Y-65970000D01*
%TO.N,MCU1_15*%
X140880000Y-68510000D02*
X143000000Y-68510000D01*
%TO.N,MCU1_10*%
X154000000Y-68510000D02*
X156120000Y-68510000D01*
%TO.N,MCU1_14*%
X140880000Y-71050000D02*
X143000000Y-71050000D01*
%TO.N,MCU1_11*%
X154000000Y-71050000D02*
X156120000Y-71050000D01*
%TO.N,MCU1_13*%
X140880000Y-73590000D02*
X143000000Y-73590000D01*
%TO.N,MCU1_12*%
X154000000Y-73590000D02*
X156120000Y-73590000D01*
%TO.N,DISP1_1*%
X143920000Y-77950000D02*
X143920000Y-76200000D01*
%TO.N,DISP1_2*%
X146460000Y-77950000D02*
X146460000Y-76200000D01*
%TO.N,DISP1_4*%
X151540000Y-77950000D02*
X151540000Y-76200000D01*
%TO.N,DISP1_5*%
X154080000Y-77950000D02*
X154080000Y-76200000D01*
D32*
%TO.N,BAT_P*%
X151750000Y-88000000D02*
X148184000Y-88000000D01*
X152750000Y-89000000D02*
X154000000Y-90250000D01*
X148184000Y-88000000D02*
X148184000Y-87000000D01*
X154000000Y-90250000D02*
X154265000Y-90250000D01*
X152750000Y-89000000D02*
X151750000Y-88000000D01*
D33*
%TO.N,JST1_1*%
X149200000Y-87000000D02*
X151000000Y-87000000D01*
%TO.N,JST1_2*%
X149200000Y-89000000D02*
X151000000Y-89000000D01*
%TD*%
M02*
