%TF.GenerationSoftware,KiCad,Pcbnew,8.0.7*%
%TF.CreationDate,2025-01-05T11:09:37-06:00*%
%TF.ProjectId,omega_pcb_mbx_b0.2,6f6d6567-615f-4706-9362-5f6d62785f62,v1.0.0*%
%TF.SameCoordinates,Original*%
%TF.FileFunction,Paste,Top*%
%TF.FilePolarity,Positive*%
%FSLAX46Y46*%
G04 Gerber Fmt 4.6, Leading zero omitted, Abs format (unit mm)*
G04 Created by KiCad (PCBNEW 8.0.7) date 2025-01-05 11:09:37*
%MOMM*%
%LPD*%
G01*
G04 APERTURE LIST*
G04 Aperture macros list*
%AMOutline5P*
0 Free polygon, 5 corners , with rotation*
0 The origin of the aperture is its center*
0 number of corners: always 5*
0 $1 to $10 corner X, Y*
0 $11 Rotation angle, in degrees counterclockwise*
0 create outline with 5 corners*
4,1,5,$1,$2,$3,$4,$5,$6,$7,$8,$9,$10,$1,$2,$11*%
%AMOutline6P*
0 Free polygon, 6 corners , with rotation*
0 The origin of the aperture is its center*
0 number of corners: always 6*
0 $1 to $12 corner X, Y*
0 $13 Rotation angle, in degrees counterclockwise*
0 create outline with 6 corners*
4,1,6,$1,$2,$3,$4,$5,$6,$7,$8,$9,$10,$11,$12,$1,$2,$13*%
%AMOutline7P*
0 Free polygon, 7 corners , with rotation*
0 The origin of the aperture is its center*
0 number of corners: always 7*
0 $1 to $14 corner X, Y*
0 $15 Rotation angle, in degrees counterclockwise*
0 create outline with 7 corners*
4,1,7,$1,$2,$3,$4,$5,$6,$7,$8,$9,$10,$11,$12,$13,$14,$1,$2,$15*%
%AMOutline8P*
0 Free polygon, 8 corners , with rotation*
0 The origin of the aperture is its center*
0 number of corners: always 8*
0 $1 to $16 corner X, Y*
0 $17 Rotation angle, in degrees counterclockwise*
0 create outline with 8 corners*
4,1,8,$1,$2,$3,$4,$5,$6,$7,$8,$9,$10,$11,$12,$13,$14,$15,$16,$1,$2,$17*%
%AMFreePoly0*
4,1,6,0.600000,-1.000000,0.000000,-0.400000,-0.600000,-1.000000,-0.600000,0.250000,0.600000,0.250000,0.600000,-1.000000,0.600000,-1.000000,$1*%
%AMFreePoly1*
4,1,6,0.600000,-0.200000,0.600000,-0.400000,-0.600000,-0.400000,-0.600000,-0.200000,0.000000,0.400000,0.600000,-0.200000,0.600000,-0.200000,$1*%
%AMFreePoly2*
4,1,6,0.250000,0.000000,-0.250000,-0.625000,-0.500000,-0.625000,-0.500000,0.625000,-0.250000,0.625000,0.250000,0.000000,0.250000,0.000000,$1*%
%AMFreePoly3*
4,1,6,0.500000,-0.625000,-0.650000,-0.625000,-0.150000,0.000000,-0.650000,0.625000,0.500000,0.625000,0.500000,-0.625000,0.500000,-0.625000,$1*%
G04 Aperture macros list end*
%ADD10R,0.900000X1.200000*%
%ADD11R,1.200000X0.600000*%
%ADD12R,1.200000X0.900000*%
%ADD13Outline5P,-1.300000X1.300000X1.300000X1.300000X1.300000X-0.117000X0.117000X-1.300000X-1.300000X-1.300000X180.000000*%
%ADD14R,2.600000X2.600000*%
%ADD15R,1.000000X1.550000*%
%ADD16FreePoly0,90.000000*%
%ADD17FreePoly1,90.000000*%
%ADD18FreePoly2,180.000000*%
%ADD19FreePoly2,0.000000*%
%ADD20FreePoly3,180.000000*%
%ADD21FreePoly3,0.000000*%
%ADD22R,0.800000X1.000000*%
%ADD23R,1.500000X0.700000*%
G04 APERTURE END LIST*
D10*
%TO.C,D21*%
X131650000Y-97500000D03*
X128350000Y-97500000D03*
%TD*%
%TO.C,D6*%
X59650000Y-55000000D03*
X56350000Y-55000000D03*
%TD*%
%TO.C,D18*%
X131650000Y-59250000D03*
X128350000Y-59250000D03*
%TD*%
%TO.C,D10*%
X95650000Y-84750000D03*
X92350000Y-84750000D03*
%TD*%
%TO.C,D16*%
X131650000Y-93250000D03*
X128350000Y-93250000D03*
%TD*%
%TO.C,D7*%
X77650000Y-89000000D03*
X74350000Y-89000000D03*
%TD*%
%TO.C,D2*%
X41650000Y-72000000D03*
X38350000Y-72000000D03*
%TD*%
%TO.C,D3*%
X41650000Y-55000000D03*
X38350000Y-55000000D03*
%TD*%
%TO.C,D17*%
X131650000Y-76250000D03*
X128350000Y-76250000D03*
%TD*%
D11*
%TO.C,DISP1*%
X143920000Y-76200000D03*
X146460000Y-76200000D03*
X151540000Y-76200000D03*
X154080000Y-76200000D03*
X143920000Y-75300000D03*
X146460000Y-75300000D03*
X151540000Y-75300000D03*
X154080000Y-75300000D03*
%TD*%
D10*
%TO.C,D1*%
X41650000Y-89000000D03*
X38350000Y-89000000D03*
%TD*%
%TO.C,D8*%
X77650000Y-72000000D03*
X74350000Y-72000000D03*
%TD*%
%TO.C,D22*%
X149650000Y-97500000D03*
X146350000Y-97500000D03*
%TD*%
D12*
%TO.C,D23*%
X77500000Y-97350000D03*
X77500000Y-100650000D03*
%TD*%
D10*
%TO.C,D4*%
X59650000Y-89000000D03*
X56350000Y-89000000D03*
%TD*%
%TO.C,D13*%
X113650000Y-93250000D03*
X110350000Y-93250000D03*
%TD*%
%TO.C,D12*%
X95650000Y-50750000D03*
X92350000Y-50750000D03*
%TD*%
%TO.C,D19*%
X95650000Y-97500000D03*
X92350000Y-97500000D03*
%TD*%
%TO.C,D11*%
X95650000Y-67750000D03*
X92350000Y-67750000D03*
%TD*%
D12*
%TO.C,D24*%
X74500000Y-97350000D03*
X74500000Y-100650000D03*
%TD*%
D10*
%TO.C,D9*%
X77650000Y-55000000D03*
X74350000Y-55000000D03*
%TD*%
%TO.C,D20*%
X113650000Y-97500000D03*
X110350000Y-97500000D03*
%TD*%
%TO.C,D15*%
X113650000Y-59250000D03*
X110350000Y-59250000D03*
%TD*%
%TO.C,D14*%
X113650000Y-76250000D03*
X110350000Y-76250000D03*
%TD*%
%TO.C,D5*%
X59650000Y-72000000D03*
X56350000Y-72000000D03*
%TD*%
D13*
%TO.C,S21*%
X90725000Y-111450000D03*
D14*
X102275000Y-109250000D03*
%TD*%
D15*
%TO.C,RST1*%
X157000000Y-99625000D03*
X155300000Y-99625000D03*
X157000000Y-94375000D03*
X155300000Y-94375000D03*
%TD*%
D13*
%TO.C,S20*%
X59225000Y-102950000D03*
D14*
X70775000Y-100750000D03*
%TD*%
D13*
%TO.C,S5*%
X54725000Y-68950000D03*
D14*
X66275000Y-66750000D03*
%TD*%
D13*
%TO.C,S13*%
X108725000Y-90200000D03*
D14*
X120275000Y-88000000D03*
%TD*%
D13*
%TO.C,S4*%
X54725000Y-85950000D03*
D14*
X66275000Y-83750000D03*
%TD*%
D13*
%TO.C,S6*%
X54725000Y-51950000D03*
D14*
X66275000Y-49750000D03*
%TD*%
D13*
%TO.C,S11*%
X90725000Y-64700000D03*
D14*
X102275000Y-62500000D03*
%TD*%
D13*
%TO.C,S12*%
X90725000Y-47700000D03*
D14*
X102275000Y-45500000D03*
%TD*%
D13*
%TO.C,S2*%
X36725000Y-68950000D03*
D14*
X48275000Y-66750000D03*
%TD*%
D13*
%TO.C,S3*%
X36725000Y-51950000D03*
D14*
X48275000Y-49750000D03*
%TD*%
D16*
%TO.C,JST1*%
X148184000Y-87000000D03*
X148184000Y-89000000D03*
D17*
X149200000Y-87000000D03*
X149200000Y-89000000D03*
%TD*%
D18*
%TO.C,MCU1*%
X154000000Y-45650000D03*
X154000000Y-48190000D03*
X154000000Y-50730000D03*
X154000000Y-53270000D03*
X154000000Y-55810000D03*
X154000000Y-58350000D03*
X154000000Y-60890000D03*
X154000000Y-63430000D03*
X154000000Y-65970000D03*
X154000000Y-68510000D03*
X154000000Y-71050000D03*
X154000000Y-73590000D03*
D19*
X143000000Y-73590000D03*
X143000000Y-71050000D03*
X143000000Y-68510000D03*
X143000000Y-65970000D03*
X143000000Y-63430000D03*
X143000000Y-60890000D03*
X143000000Y-58350000D03*
X143000000Y-55810000D03*
X143000000Y-53270000D03*
X143000000Y-50730000D03*
X143000000Y-48190000D03*
X143000000Y-45650000D03*
D20*
X153275000Y-45650000D03*
X153275000Y-48190000D03*
X153275000Y-50730000D03*
X153275000Y-53270000D03*
X153275000Y-55810000D03*
X153275000Y-58350000D03*
X153275000Y-60890000D03*
X153275000Y-63430000D03*
X153275000Y-65970000D03*
X153275000Y-68510000D03*
X153275000Y-71050000D03*
X153275000Y-73590000D03*
D21*
X143725000Y-73590000D03*
X143725000Y-71050000D03*
X143725000Y-68510000D03*
X143725000Y-65970000D03*
X143725000Y-63430000D03*
X143725000Y-60890000D03*
X143725000Y-58350000D03*
X143725000Y-55810000D03*
X143725000Y-53270000D03*
X143725000Y-50730000D03*
X143725000Y-48190000D03*
X143725000Y-45650000D03*
%TD*%
D13*
%TO.C,S18*%
X126725000Y-56200000D03*
D14*
X138275000Y-54000000D03*
%TD*%
D13*
%TO.C,S22*%
X108725000Y-111450000D03*
D14*
X120275000Y-109250000D03*
%TD*%
D13*
%TO.C,S7*%
X72725000Y-85950000D03*
D14*
X84275000Y-83750000D03*
%TD*%
D13*
%TO.C,S1*%
X36725000Y-85950000D03*
D14*
X48275000Y-83750000D03*
%TD*%
D13*
%TO.C,S24*%
X144725000Y-111450000D03*
D14*
X156275000Y-109250000D03*
%TD*%
D13*
%TO.C,S15*%
X108725000Y-56200000D03*
D14*
X120275000Y-54000000D03*
%TD*%
D13*
%TO.C,S19*%
X41225000Y-102950000D03*
D14*
X52775000Y-100750000D03*
%TD*%
D13*
%TO.C,S23*%
X126725000Y-111450000D03*
D14*
X138275000Y-109250000D03*
%TD*%
D13*
%TO.C,S17*%
X126725000Y-73200000D03*
D14*
X138275000Y-71000000D03*
%TD*%
D22*
%TO.C,PWR1*%
X154915000Y-84350000D03*
X154915000Y-91650000D03*
X157125000Y-84350000D03*
X157125000Y-91650000D03*
D23*
X154265000Y-90250000D03*
X154265000Y-87250000D03*
X154265000Y-85750000D03*
%TD*%
D13*
%TO.C,S9*%
X72725000Y-51950000D03*
D14*
X84275000Y-49750000D03*
%TD*%
D13*
%TO.C,S16*%
X126725000Y-90200000D03*
D14*
X138275000Y-88000000D03*
%TD*%
D13*
%TO.C,S10*%
X90725000Y-81700000D03*
D14*
X102275000Y-79500000D03*
%TD*%
D13*
%TO.C,S14*%
X108725000Y-73200000D03*
D14*
X120275000Y-71000000D03*
%TD*%
D13*
%TO.C,S8*%
X72725000Y-68950000D03*
D14*
X84275000Y-66750000D03*
%TD*%
M02*
